%TF.GenerationSoftware,KiCad,Pcbnew,(6.0.1)*%
%TF.CreationDate,2023-04-04T23:27:15+09:00*%
%TF.ProjectId,MAXCON-zero,4d415843-4f4e-42d7-9a65-726f2e6b6963,rev?*%
%TF.SameCoordinates,Original*%
%TF.FileFunction,Paste,Top*%
%TF.FilePolarity,Positive*%
%FSLAX46Y46*%
G04 Gerber Fmt 4.6, Leading zero omitted, Abs format (unit mm)*
G04 Created by KiCad (PCBNEW (6.0.1)) date 2023-04-04 23:27:15*
%MOMM*%
%LPD*%
G01*
G04 APERTURE LIST*
G04 Aperture macros list*
%AMRoundRect*
0 Rectangle with rounded corners*
0 $1 Rounding radius*
0 $2 $3 $4 $5 $6 $7 $8 $9 X,Y pos of 4 corners*
0 Add a 4 corners polygon primitive as box body*
4,1,4,$2,$3,$4,$5,$6,$7,$8,$9,$2,$3,0*
0 Add four circle primitives for the rounded corners*
1,1,$1+$1,$2,$3*
1,1,$1+$1,$4,$5*
1,1,$1+$1,$6,$7*
1,1,$1+$1,$8,$9*
0 Add four rect primitives between the rounded corners*
20,1,$1+$1,$2,$3,$4,$5,0*
20,1,$1+$1,$4,$5,$6,$7,0*
20,1,$1+$1,$6,$7,$8,$9,0*
20,1,$1+$1,$8,$9,$2,$3,0*%
%AMFreePoly0*
4,1,34,0.539142,0.394142,0.545000,0.380000,0.545000,-0.380000,0.542091,-0.387023,0.539183,-0.394101,0.539154,-0.394113,0.539142,-0.394142,0.532183,-0.397025,0.525059,-0.400000,-0.345813,-0.402541,-0.359972,-0.396724,-0.365871,-0.382599,-0.363699,-0.377313,-0.368760,-0.369759,-0.367711,-0.364454,-0.414942,-0.174744,-0.481229,0.014483,-0.564791,0.196743,-0.661662,0.364831,-0.664143,0.365858,
-0.665002,0.367933,-0.666846,0.369219,-0.667839,0.374782,-0.670000,0.380000,-0.669139,0.382076,-0.669535,0.384289,-0.666303,0.388925,-0.664142,0.394142,-0.662066,0.395002,-0.660781,0.396846,-0.655218,0.397839,-0.650001,0.400000,0.525000,0.400000,0.539142,0.394142,0.539142,0.394142,$1*%
%AMFreePoly1*
4,1,32,0.525059,0.400001,0.532183,0.397025,0.539142,0.394142,0.539154,0.394113,0.539183,0.394101,0.542091,0.387023,0.545000,0.380000,0.545000,-0.380000,0.539142,-0.394142,0.525000,-0.400000,-0.650000,-0.400000,-0.664142,-0.394142,-0.670000,-0.380000,-0.664142,-0.365858,-0.650000,-0.360000,-0.639861,-0.360000,-0.639730,-0.359737,-0.647299,-0.349312,-0.644899,-0.334193,-0.640756,-0.331184,
-0.549199,-0.165628,-0.470962,0.011813,-0.408969,0.195560,-0.364825,0.379525,-0.365041,0.380578,-0.365871,0.382599,-0.365592,0.383268,-0.365853,0.384541,-0.363693,0.387815,-0.359972,0.396724,-0.345813,0.402541,0.525059,0.400001,0.525059,0.400001,$1*%
%AMFreePoly2*
4,1,37,0.319736,0.407785,0.429772,0.357533,0.521194,0.278316,0.586594,0.176552,0.620674,0.060484,0.620674,-0.060484,0.586594,-0.176551,0.521194,-0.278316,0.429772,-0.357533,0.319736,-0.407785,0.200000,-0.425000,-0.275000,-0.425000,-0.292678,-0.417678,-0.300000,-0.400000,-0.295208,-0.388431,-0.305365,-0.372951,-0.304263,-0.367635,-0.350273,-0.173516,-0.415031,0.020480,-0.496859,0.207915,
-0.592281,0.382137,-0.592678,0.382301,-0.593020,0.383126,-0.597072,0.386095,-0.598748,0.396955,-0.600000,0.399978,-0.599427,0.401360,-0.599990,0.405006,-0.595222,0.411514,-0.592678,0.417657,-0.589869,0.418820,-0.588682,0.420441,-0.584339,0.421111,-0.575001,0.424979,0.199999,0.425000,0.200000,0.425000,0.319736,0.407785,0.319736,0.407785,$1*%
G04 Aperture macros list end*
%TA.AperFunction,Profile*%
%ADD10C,0.100000*%
%TD*%
%ADD11FreePoly0,193.500000*%
%ADD12FreePoly1,193.500000*%
%ADD13FreePoly2,13.500000*%
%ADD14FreePoly1,13.500000*%
%ADD15RoundRect,0.225000X-0.250000X0.225000X-0.250000X-0.225000X0.250000X-0.225000X0.250000X0.225000X0*%
%ADD16FreePoly0,180.000000*%
%ADD17FreePoly1,180.000000*%
%ADD18FreePoly2,0.000000*%
%ADD19FreePoly1,0.000000*%
%ADD20FreePoly0,166.500000*%
%ADD21FreePoly1,166.500000*%
%ADD22FreePoly2,346.500000*%
%ADD23FreePoly1,346.500000*%
%ADD24R,2.000000X1.600000*%
%ADD25R,1.600000X2.000000*%
G04 APERTURE END LIST*
D10*
X22860000Y-29210000D02*
G75*
G03*
X21590000Y-30480000I-66J-1269934D01*
G01*
X251460000Y-30480000D02*
X251460000Y-151280000D01*
X250190000Y-152400000D02*
G75*
G03*
X251460000Y-151280000I0J1280045D01*
G01*
X21590000Y-151130000D02*
G75*
G03*
X22860000Y-152400000I1269999J-1D01*
G01*
X21590000Y-30480000D02*
X21590000Y-151130000D01*
X250190000Y-152400000D02*
X22860000Y-152400000D01*
X251460000Y-30480000D02*
G75*
G03*
X250200000Y-29200000I-1280125J33D01*
G01*
X144780000Y-29210000D02*
X250200000Y-29200000D01*
X128270000Y-29210000D02*
X22860000Y-29210000D01*
X128270000Y-29210000D02*
X144780000Y-29210000D01*
D11*
%TO.C,D4*%
X159579713Y-102607102D03*
D12*
X159230898Y-101045380D03*
D13*
X164294029Y-99829830D03*
D14*
X164741636Y-101367834D03*
%TD*%
D15*
%TO.C,C1*%
X58420000Y-41625000D03*
X58420000Y-43175000D03*
%TD*%
D16*
%TO.C,D6*%
X133857823Y-81171371D03*
D17*
X133883223Y-79571371D03*
D18*
X139090223Y-79571371D03*
D19*
X139166423Y-81171371D03*
%TD*%
D11*
%TO.C,D5*%
X155304349Y-144770134D03*
D12*
X154955534Y-143208412D03*
D13*
X160018665Y-141992862D03*
D14*
X160466272Y-143530866D03*
%TD*%
D20*
%TO.C,D11*%
X31194168Y-79769642D03*
D21*
X31592379Y-78219780D03*
D22*
X36655509Y-79435330D03*
D23*
X36356091Y-81008910D03*
%TD*%
D11*
%TO.C,D1*%
X236668971Y-81014363D03*
D12*
X236320156Y-79452641D03*
D13*
X241383287Y-78237091D03*
D14*
X241830894Y-79775095D03*
%TD*%
D11*
%TO.C,D3*%
X178952728Y-78416164D03*
D12*
X178603913Y-76854442D03*
D13*
X183667044Y-75638892D03*
D14*
X184114651Y-77176896D03*
%TD*%
D11*
%TO.C,D2*%
X204463083Y-75376915D03*
D12*
X204114268Y-73815193D03*
D13*
X209177399Y-72599643D03*
D14*
X209625006Y-74137647D03*
%TD*%
D20*
%TO.C,D9*%
X88409640Y-77051218D03*
D21*
X88807851Y-75501356D03*
D22*
X93870981Y-76716906D03*
D23*
X93571563Y-78290486D03*
%TD*%
D24*
%TO.C,RZ1*%
X145549823Y-31241371D03*
X145549823Y-33781371D03*
X145549823Y-36321371D03*
X145549823Y-38861371D03*
X145549823Y-41401371D03*
X145549823Y-43941371D03*
X145549823Y-46481371D03*
X145549823Y-49021371D03*
X145549823Y-51561371D03*
D25*
X141629823Y-53151371D03*
X139089823Y-53151371D03*
X136549823Y-53151371D03*
X134009823Y-53151371D03*
X131469823Y-53151371D03*
D24*
X127549823Y-51373371D03*
X127549823Y-49021371D03*
X127549823Y-46481371D03*
X127549823Y-43941371D03*
X127549823Y-41401371D03*
X127549823Y-38861371D03*
X127549823Y-36321371D03*
X127549823Y-33781371D03*
X127549823Y-31241371D03*
%TD*%
D15*
%TO.C,C2*%
X58400000Y-46225000D03*
X58400000Y-47775000D03*
%TD*%
%TO.C,C4*%
X190800000Y-41825000D03*
X190800000Y-43375000D03*
%TD*%
%TO.C,C3*%
X190799996Y-45960825D03*
X190799996Y-47510825D03*
%TD*%
D20*
%TO.C,D7*%
X112558790Y-143525413D03*
D21*
X112957001Y-141975551D03*
D22*
X118020131Y-143191101D03*
D23*
X117720713Y-144764681D03*
%TD*%
D20*
%TO.C,D10*%
X64489110Y-74393654D03*
D21*
X64887321Y-72843792D03*
D22*
X69950451Y-74059342D03*
D23*
X69651033Y-75632922D03*
%TD*%
D20*
%TO.C,D8*%
X108283426Y-101362382D03*
D21*
X108681637Y-99812520D03*
D22*
X113744767Y-101028070D03*
D23*
X113445349Y-102601650D03*
%TD*%
M02*
