M48
; DRILL file {KiCad (6.0.1)} date Tue Apr  4 23:27:35 2023
; FORMAT={-:-/ absolute / inch / decimal}
; #@! TF.CreationDate,2023-04-04T23:27:35+09:00
; #@! TF.GenerationSoftware,Kicad,Pcbnew,(6.0.1)
; #@! TF.FileFunction,Plated,1,2,PTH
FMAT,2
INCH
; #@! TA.AperFunction,Plated,PTH,ViaDrill
T1C0.0157
; #@! TA.AperFunction,Plated,PTH,ComponentDrill
T2C0.0276
; #@! TA.AperFunction,Plated,PTH,ComponentDrill
T3C0.0394
; #@! TA.AperFunction,Plated,PTH,ComponentDrill
T4C0.0472
; #@! TA.AperFunction,Plated,PTH,ComponentDrill
T5C0.0600
; #@! TA.AperFunction,Plated,PTH,ComponentDrill
T6C0.1024
%
G90
G05
T1
X5.85Y-2.24
X8.55Y-2.24
T2
X8.83Y-2.24
X9.03Y-2.24
T3
X2.5531Y-1.6654
X2.5531Y-1.7638
X2.5531Y-1.8622
X3.124Y-1.6654
X3.124Y-1.8622
X7.7539Y-1.6658
X7.7539Y-1.7642
X7.7539Y-1.8627
X8.3248Y-1.6658
X8.3248Y-1.8627
T4
X1.2285Y-2.7497
X1.4392Y-2.7153
X2.5393Y-2.5381
X2.75Y-2.5036
X3.4811Y-2.6427
X3.6918Y-2.6082
X4.2635Y-3.5998
X4.4318Y-5.2598
X4.4742Y-3.5654
X4.6425Y-5.2253
X5.1791Y-2.8156
X5.376Y-2.7329
X5.9373Y-5.3512
X6.1056Y-3.6912
X6.1094Y-5.2249
X6.2777Y-3.5649
X6.888Y-2.7341
X7.0601Y-2.6078
X7.8726Y-2.6192
X8.0447Y-2.4928
X9.1406Y-2.8411
X9.3127Y-2.7148
T5
X1.3337Y-2.7221
X1.5535Y-2.8777
X2.6445Y-2.5105
X2.8643Y-2.6661
X3.5863Y-2.6151
X3.806Y-2.7707
X4.3687Y-3.5722
X4.537Y-5.2322
X4.5885Y-3.7278
X4.7568Y-5.3878
X5.275Y-2.7642
X5.525Y-2.8642
X6.0185Y-5.2789
X6.1868Y-3.6189
X6.2849Y-5.3177
X6.4532Y-3.6578
X6.9692Y-2.6618
X7.2357Y-2.7007
X7.9539Y-2.5469
X8.2203Y-2.5857
X9.2218Y-2.7688
X9.4882Y-2.8077
T6
X2.8484Y-1.5433
X2.8484Y-1.9843
X8.0492Y-1.5438
X8.0492Y-1.9847
T0
M30
