M48
; DRILL file {KiCad (6.0.1)} date Tue Apr  4 23:27:35 2023
; FORMAT={-:-/ absolute / inch / decimal}
; #@! TF.CreationDate,2023-04-04T23:27:35+09:00
; #@! TF.GenerationSoftware,Kicad,Pcbnew,(6.0.1)
; #@! TF.FileFunction,NonPlated,1,2,NPTH
FMAT,2
INCH
; #@! TA.AperFunction,NonPlated,NPTH,ComponentDrill
T1C0.0670
; #@! TA.AperFunction,NonPlated,NPTH,ComponentDrill
T2C0.0748
; #@! TA.AperFunction,NonPlated,NPTH,ComponentDrill
T3C0.1260
; #@! TA.AperFunction,NonPlated,NPTH,ComponentDrill
T4C0.1339
; #@! TA.AperFunction,NonPlated,NPTH,ComponentDrill
T5C0.1570
; #@! TA.AperFunction,NonPlated,NPTH,ComponentDrill
T6C0.1673
%
G90
G05
T1
X1.1898Y-2.8933
X1.5787Y-2.9866
X2.5006Y-2.6816
X2.8896Y-2.775
X3.4424Y-2.7862
X3.8313Y-2.8796
X4.2248Y-3.7434
X4.3931Y-5.4033
X4.6137Y-3.8367
X4.7821Y-5.4967
X5.175Y-2.9642
X5.575Y-2.9642
X5.9679Y-5.4967
X6.1362Y-3.8367
X6.3569Y-5.4033
X6.5252Y-3.7433
X6.9187Y-2.8796
X7.3076Y-2.7862
X7.9033Y-2.7647
X8.2923Y-2.6713
X9.1713Y-2.9866
X9.5602Y-2.8932
T2
X1.1744Y-2.8906
X1.5955Y-2.9917
X2.4853Y-2.6789
X2.9064Y-2.78
X3.427Y-2.7836
X3.8481Y-2.8847
X4.2094Y-3.7407
X4.3778Y-5.4007
X4.6305Y-3.8418
X4.7989Y-5.5018
X5.1594Y-2.9652
X5.5925Y-2.9652
X5.953Y-5.5013
X6.1214Y-3.8413
X6.3741Y-5.4002
X6.5425Y-3.7402
X6.9038Y-2.8842
X7.3249Y-2.7831
X7.8884Y-2.7693
X8.3095Y-2.6682
X9.1564Y-2.9912
X9.5775Y-2.8901
T3
X1.05Y-1.35
X1.05Y-5.8
X9.7Y-1.35
X9.7Y-5.8
T4
X1.385Y-2.9411
X2.6958Y-2.7295
X3.6376Y-2.8341
X4.42Y-3.7912
X4.5883Y-5.4512
X5.376Y-2.9652
X6.1636Y-5.4507
X6.3319Y-3.7908
X7.1143Y-2.8336
X8.099Y-2.7187
X9.3669Y-2.9407
T5
X1.3843Y-2.9399
X2.6951Y-2.7283
X3.6368Y-2.8329
X4.4193Y-3.7901
X4.5876Y-5.45
X5.375Y-2.9642
X6.1624Y-5.45
X6.3307Y-3.79
X7.1132Y-2.8329
X8.0978Y-2.718
X9.3657Y-2.9399
T6
X1.3376Y-3.1344
X2.6484Y-2.9228
X3.5901Y-3.0274
X4.3726Y-3.9845
X4.5409Y-5.6445
X5.375Y-3.1642
X6.2091Y-5.6445
X6.3774Y-3.9845
X7.1401Y-3.0321
X8.1445Y-2.9125
X9.4124Y-3.1344
T0
M30
