%TF.GenerationSoftware,KiCad,Pcbnew,(6.0.1)*%
%TF.CreationDate,2023-04-04T23:27:17+09:00*%
%TF.ProjectId,MAXCON-zero,4d415843-4f4e-42d7-9a65-726f2e6b6963,rev?*%
%TF.SameCoordinates,Original*%
%TF.FileFunction,Soldermask,Top*%
%TF.FilePolarity,Negative*%
%FSLAX46Y46*%
G04 Gerber Fmt 4.6, Leading zero omitted, Abs format (unit mm)*
G04 Created by KiCad (PCBNEW (6.0.1)) date 2023-04-04 23:27:17*
%MOMM*%
%LPD*%
G01*
G04 APERTURE LIST*
G04 Aperture macros list*
%AMRoundRect*
0 Rectangle with rounded corners*
0 $1 Rounding radius*
0 $2 $3 $4 $5 $6 $7 $8 $9 X,Y pos of 4 corners*
0 Add a 4 corners polygon primitive as box body*
4,1,4,$2,$3,$4,$5,$6,$7,$8,$9,$2,$3,0*
0 Add four circle primitives for the rounded corners*
1,1,$1+$1,$2,$3*
1,1,$1+$1,$4,$5*
1,1,$1+$1,$6,$7*
1,1,$1+$1,$8,$9*
0 Add four rect primitives between the rounded corners*
20,1,$1+$1,$2,$3,$4,$5,0*
20,1,$1+$1,$4,$5,$6,$7,0*
20,1,$1+$1,$6,$7,$8,$9,0*
20,1,$1+$1,$8,$9,$2,$3,0*%
%AMFreePoly0*
4,1,34,0.539142,0.394142,0.545000,0.380000,0.545000,-0.380000,0.542091,-0.387023,0.539183,-0.394101,0.539154,-0.394113,0.539142,-0.394142,0.532183,-0.397025,0.525059,-0.400000,-0.345813,-0.402541,-0.359972,-0.396724,-0.365871,-0.382599,-0.363699,-0.377313,-0.368760,-0.369759,-0.367711,-0.364454,-0.414942,-0.174744,-0.481229,0.014483,-0.564791,0.196743,-0.661662,0.364831,-0.664143,0.365858,
-0.665002,0.367933,-0.666846,0.369219,-0.667839,0.374782,-0.670000,0.380000,-0.669139,0.382076,-0.669535,0.384289,-0.666303,0.388925,-0.664142,0.394142,-0.662066,0.395002,-0.660781,0.396846,-0.655218,0.397839,-0.650001,0.400000,0.525000,0.400000,0.539142,0.394142,0.539142,0.394142,$1*%
%AMFreePoly1*
4,1,32,0.525059,0.400001,0.532183,0.397025,0.539142,0.394142,0.539154,0.394113,0.539183,0.394101,0.542091,0.387023,0.545000,0.380000,0.545000,-0.380000,0.539142,-0.394142,0.525000,-0.400000,-0.650000,-0.400000,-0.664142,-0.394142,-0.670000,-0.380000,-0.664142,-0.365858,-0.650000,-0.360000,-0.639861,-0.360000,-0.639730,-0.359737,-0.647299,-0.349312,-0.644899,-0.334193,-0.640756,-0.331184,
-0.549199,-0.165628,-0.470962,0.011813,-0.408969,0.195560,-0.364825,0.379525,-0.365041,0.380578,-0.365871,0.382599,-0.365592,0.383268,-0.365853,0.384541,-0.363693,0.387815,-0.359972,0.396724,-0.345813,0.402541,0.525059,0.400001,0.525059,0.400001,$1*%
%AMFreePoly2*
4,1,37,0.319736,0.407785,0.429772,0.357533,0.521194,0.278316,0.586594,0.176552,0.620674,0.060484,0.620674,-0.060484,0.586594,-0.176551,0.521194,-0.278316,0.429772,-0.357533,0.319736,-0.407785,0.200000,-0.425000,-0.275000,-0.425000,-0.292678,-0.417678,-0.300000,-0.400000,-0.295208,-0.388431,-0.305365,-0.372951,-0.304263,-0.367635,-0.350273,-0.173516,-0.415031,0.020480,-0.496859,0.207915,
-0.592281,0.382137,-0.592678,0.382301,-0.593020,0.383126,-0.597072,0.386095,-0.598748,0.396955,-0.600000,0.399978,-0.599427,0.401360,-0.599990,0.405006,-0.595222,0.411514,-0.592678,0.417657,-0.589869,0.418820,-0.588682,0.420441,-0.584339,0.421111,-0.575001,0.424979,0.199999,0.425000,0.200000,0.425000,0.319736,0.407785,0.319736,0.407785,$1*%
G04 Aperture macros list end*
%TA.AperFunction,Profile*%
%ADD10C,0.100000*%
%TD*%
%ADD11C,1.900000*%
%ADD12C,1.701800*%
%ADD13C,3.400000*%
%ADD14C,3.987800*%
%ADD15C,2.200000*%
%ADD16C,2.540000*%
%ADD17R,2.000000X2.000000*%
%ADD18C,2.000000*%
%ADD19C,3.200000*%
%ADD20C,4.250000*%
%ADD21FreePoly0,193.500000*%
%ADD22FreePoly1,193.500000*%
%ADD23FreePoly2,13.500000*%
%ADD24FreePoly1,13.500000*%
%ADD25RoundRect,0.225000X-0.250000X0.225000X-0.250000X-0.225000X0.250000X-0.225000X0.250000X0.225000X0*%
%ADD26FreePoly0,180.000000*%
%ADD27FreePoly1,180.000000*%
%ADD28FreePoly2,0.000000*%
%ADD29FreePoly1,0.000000*%
%ADD30FreePoly0,166.500000*%
%ADD31FreePoly1,166.500000*%
%ADD32FreePoly2,346.500000*%
%ADD33FreePoly1,346.500000*%
%ADD34C,1.400000*%
%ADD35O,1.400000X1.400000*%
%ADD36R,2.000000X1.600000*%
%ADD37R,1.600000X2.000000*%
G04 APERTURE END LIST*
D10*
X22860000Y-29210000D02*
G75*
G03*
X21590000Y-30480000I-66J-1269934D01*
G01*
X251460000Y-30480000D02*
X251460000Y-151280000D01*
X250190000Y-152400000D02*
G75*
G03*
X251460000Y-151280000I0J1280045D01*
G01*
X21590000Y-151130000D02*
G75*
G03*
X22860000Y-152400000I1269999J-1D01*
G01*
X21590000Y-30480000D02*
X21590000Y-151130000D01*
X250190000Y-152400000D02*
X22860000Y-152400000D01*
X251460000Y-30480000D02*
G75*
G03*
X250200000Y-29200000I-1280125J33D01*
G01*
X144780000Y-29210000D02*
X250200000Y-29200000D01*
X128270000Y-29210000D02*
X22860000Y-29210000D01*
X128270000Y-29210000D02*
X144780000Y-29210000D01*
D11*
%TO.C,SW3*%
X186052331Y-70690330D03*
X175356262Y-73258229D03*
D12*
X175734512Y-73141708D03*
X185613790Y-70769904D03*
D13*
X180704296Y-71974279D03*
D14*
X180674151Y-71955806D03*
D15*
X179326969Y-66237297D03*
D16*
X177018429Y-67609118D03*
X183785929Y-68596560D03*
D15*
X174955354Y-69446500D03*
%TD*%
D17*
%TO.C,E2*%
X196950000Y-42311371D03*
D18*
X196950000Y-47311371D03*
X196950000Y-44811371D03*
D19*
X204450000Y-39211371D03*
X204450000Y-50411371D03*
D18*
X211450000Y-47311371D03*
X211450000Y-42311371D03*
%TD*%
D19*
%TO.C,REF\u002A\u002A*%
X26670000Y-34290000D03*
%TD*%
D13*
%TO.C,SW1*%
X237919767Y-74692702D03*
D14*
X237889622Y-74674229D03*
D11*
X243267802Y-73408753D03*
X232571733Y-75976652D03*
D12*
X232949983Y-75860131D03*
X242829261Y-73488327D03*
D16*
X234233900Y-70327541D03*
D15*
X236542440Y-68955720D03*
D16*
X241001400Y-71314983D03*
D15*
X232170825Y-72164923D03*
%TD*%
D20*
%TO.C,D4*%
X161986267Y-101206607D03*
D21*
X159579713Y-102607102D03*
D22*
X159230898Y-101045380D03*
D23*
X164294029Y-99829830D03*
D24*
X164741636Y-101367834D03*
%TD*%
D25*
%TO.C,C1*%
X58420000Y-41625000D03*
X58420000Y-43175000D03*
%TD*%
D20*
%TO.C,D6*%
X136524823Y-80371371D03*
D26*
X133857823Y-81171371D03*
D27*
X133883223Y-79571371D03*
D28*
X139090223Y-79571371D03*
D29*
X139166423Y-81171371D03*
%TD*%
D14*
%TO.C,SW10*%
X35160138Y-74674706D03*
D11*
X29830577Y-73420902D03*
D13*
X35178611Y-74704851D03*
D11*
X40526646Y-75988801D03*
D12*
X40099777Y-75860608D03*
X30220499Y-73488804D03*
D16*
X33876221Y-69142116D03*
D15*
X36555939Y-68967869D03*
X31203854Y-69842619D03*
D16*
X39457819Y-73094313D03*
%TD*%
D11*
%TO.C,SW4*%
X166178544Y-95001492D03*
D12*
X165740003Y-95081066D03*
X155860725Y-97452870D03*
D14*
X160800364Y-96266968D03*
D13*
X160830509Y-96285441D03*
D11*
X155482475Y-97569391D03*
D15*
X159453182Y-90548459D03*
D16*
X157144642Y-91920280D03*
X163912142Y-92907722D03*
D15*
X155081567Y-93757662D03*
%TD*%
D20*
%TO.C,D5*%
X157710903Y-143369639D03*
D21*
X155304349Y-144770134D03*
D22*
X154955534Y-143208412D03*
D23*
X160018665Y-141992862D03*
D24*
X160466272Y-143530866D03*
%TD*%
D20*
%TO.C,D11*%
X33974235Y-79614345D03*
D30*
X31194168Y-79769642D03*
D31*
X31592379Y-78219780D03*
D32*
X36655509Y-79435330D03*
D33*
X36356091Y-81008910D03*
%TD*%
D12*
%TO.C,SW11*%
X131444823Y-75291371D03*
D13*
X136549823Y-75316371D03*
D12*
X141604823Y-75291371D03*
D11*
X131049823Y-75316371D03*
D14*
X136524823Y-75291371D03*
D11*
X142049823Y-75316371D03*
D16*
X133984823Y-70211371D03*
D15*
X136549823Y-69416371D03*
D16*
X140334823Y-72751371D03*
D15*
X131549823Y-71516371D03*
%TD*%
D34*
%TO.C,R1*%
X224282000Y-56896000D03*
D35*
X229362000Y-56896000D03*
%TD*%
D19*
%TO.C,REF\u002A\u002A*%
X246380000Y-34290000D03*
%TD*%
D11*
%TO.C,SW2*%
X200365846Y-70339205D03*
D12*
X210623374Y-67850880D03*
D11*
X211061915Y-67771306D03*
D14*
X205683735Y-69036782D03*
D13*
X205713880Y-69055255D03*
D12*
X200744096Y-70222684D03*
D15*
X204336553Y-63318273D03*
D16*
X202028013Y-64690094D03*
D15*
X199964938Y-66527476D03*
D16*
X208795513Y-65677536D03*
%TD*%
D17*
%TO.C,E1*%
X64850000Y-42300000D03*
D18*
X64850000Y-47300000D03*
X64850000Y-44800000D03*
D19*
X72350000Y-50400000D03*
X72350000Y-39200000D03*
D18*
X79350000Y-47300000D03*
X79350000Y-42300000D03*
%TD*%
D20*
%TO.C,D1*%
X239075525Y-79613868D03*
D21*
X236668971Y-81014363D03*
D22*
X236320156Y-79452641D03*
D23*
X241383287Y-78237091D03*
D24*
X241830894Y-79775095D03*
%TD*%
D12*
%TO.C,SW8*%
X87435969Y-70770381D03*
X97315247Y-73142185D03*
D13*
X92394081Y-71986428D03*
D11*
X87046047Y-70702479D03*
X97742116Y-73270378D03*
D14*
X92375608Y-71956283D03*
D16*
X91091691Y-66423693D03*
D15*
X93771409Y-66249446D03*
X88419324Y-67124196D03*
D16*
X96673289Y-70375890D03*
%TD*%
D19*
%TO.C,REF\u002A\u002A*%
X246380000Y-147320000D03*
%TD*%
D11*
%TO.C,SW6*%
X121891268Y-139744572D03*
D12*
X111585121Y-137244575D03*
D11*
X111195199Y-137176673D03*
D12*
X121464399Y-139616379D03*
D14*
X116524760Y-138430477D03*
D13*
X116543233Y-138460622D03*
D16*
X115240843Y-132897887D03*
D15*
X117920561Y-132723640D03*
D16*
X120822441Y-136850084D03*
D15*
X112568476Y-133598390D03*
%TD*%
D20*
%TO.C,D3*%
X181359282Y-77015669D03*
D21*
X178952728Y-78416164D03*
D22*
X178603913Y-76854442D03*
D23*
X183667044Y-75638892D03*
D24*
X184114651Y-77176896D03*
%TD*%
D20*
%TO.C,D2*%
X206869637Y-73976420D03*
D21*
X204463083Y-75376915D03*
D22*
X204114268Y-73815193D03*
D23*
X209177399Y-72599643D03*
D24*
X209625006Y-74137647D03*
%TD*%
D20*
%TO.C,D9*%
X91189707Y-76895921D03*
D30*
X88409640Y-77051218D03*
D31*
X88807851Y-75501356D03*
D32*
X93870981Y-76716906D03*
D33*
X93571563Y-78290486D03*
%TD*%
D36*
%TO.C,RZ1*%
X145549823Y-31241371D03*
X145549823Y-33781371D03*
X145549823Y-36321371D03*
X145549823Y-38861371D03*
X145549823Y-41401371D03*
X145549823Y-43941371D03*
X145549823Y-46481371D03*
X145549823Y-49021371D03*
X145549823Y-51561371D03*
D37*
X141629823Y-53151371D03*
X139089823Y-53151371D03*
X136549823Y-53151371D03*
X134009823Y-53151371D03*
X131469823Y-53151371D03*
D36*
X127549823Y-51373371D03*
X127549823Y-49021371D03*
X127549823Y-46481371D03*
X127549823Y-43941371D03*
X127549823Y-41401371D03*
X127549823Y-38861371D03*
X127549823Y-36321371D03*
X127549823Y-33781371D03*
X127549823Y-31241371D03*
%TD*%
D11*
%TO.C,SW5*%
X151207111Y-139732423D03*
X161903180Y-137164524D03*
D12*
X161464639Y-137244098D03*
X151585361Y-139615902D03*
D13*
X156555145Y-138448473D03*
D14*
X156525000Y-138430000D03*
D15*
X155177818Y-132711491D03*
D16*
X152869278Y-134083312D03*
D15*
X150806203Y-135920694D03*
D16*
X159636778Y-135070754D03*
%TD*%
D11*
%TO.C,SW9*%
X63125519Y-68044913D03*
X73821588Y-70612812D03*
D12*
X73394719Y-70484619D03*
D14*
X68455080Y-69298717D03*
D13*
X68473553Y-69328862D03*
D12*
X63515441Y-68112815D03*
D16*
X67171163Y-63766127D03*
D15*
X69850881Y-63591880D03*
X64498796Y-64466630D03*
D16*
X72752761Y-67718324D03*
%TD*%
D25*
%TO.C,C2*%
X58400000Y-46225000D03*
X58400000Y-47775000D03*
%TD*%
D11*
%TO.C,SW7*%
X117615904Y-97581540D03*
D12*
X117189035Y-97453347D03*
D11*
X106919835Y-95013641D03*
D14*
X112249396Y-96267445D03*
D12*
X107309757Y-95081543D03*
D13*
X112267869Y-96297590D03*
D16*
X110965479Y-90734855D03*
D15*
X113645197Y-90560608D03*
D16*
X116547077Y-94687052D03*
D15*
X108293112Y-91435358D03*
%TD*%
D25*
%TO.C,C4*%
X190800000Y-41825000D03*
X190800000Y-43375000D03*
%TD*%
%TO.C,C3*%
X190799996Y-45960825D03*
X190799996Y-47510825D03*
%TD*%
D20*
%TO.C,D7*%
X115338857Y-143370116D03*
D30*
X112558790Y-143525413D03*
D31*
X112957001Y-141975551D03*
D32*
X118020131Y-143191101D03*
D33*
X117720713Y-144764681D03*
%TD*%
D20*
%TO.C,D10*%
X67269177Y-74238357D03*
D30*
X64489110Y-74393654D03*
D31*
X64887321Y-72843792D03*
D32*
X69950451Y-74059342D03*
D33*
X69651033Y-75632922D03*
%TD*%
D19*
%TO.C,REF\u002A\u002A*%
X26670000Y-147320000D03*
%TD*%
D20*
%TO.C,D8*%
X111063493Y-101207085D03*
D30*
X108283426Y-101362382D03*
D31*
X108681637Y-99812520D03*
D32*
X113744767Y-101028070D03*
D33*
X113445349Y-102601650D03*
%TD*%
M02*
