G04 #@! TF.GenerationSoftware,KiCad,Pcbnew,9.0.2-rc1*
G04 #@! TF.CreationDate,2025-07-21T22:58:39+09:00*
G04 #@! TF.ProjectId,MAXCON-zero,4d415843-4f4e-42d7-9a65-726f2e6b6963,rev?*
G04 #@! TF.SameCoordinates,Original*
G04 #@! TF.FileFunction,Soldermask,Top*
G04 #@! TF.FilePolarity,Negative*
%FSLAX46Y46*%
G04 Gerber Fmt 4.6, Leading zero omitted, Abs format (unit mm)*
G04 Created by KiCad (PCBNEW 9.0.2-rc1) date 2025-07-21 22:58:39*
%MOMM*%
%LPD*%
G01*
G04 APERTURE LIST*
%ADD10C,1.700000*%
%ADD11C,1.750000*%
%ADD12C,3.000000*%
%ADD13C,5.060000*%
%ADD14C,2.000000*%
%ADD15C,3.500000*%
G04 APERTURE END LIST*
D10*
G04 #@! TO.C,GP15*
X51077946Y-58034935D03*
D11*
X51491566Y-58107867D03*
D12*
X50919170Y-61814788D03*
X53183338Y-55826989D03*
D13*
X56494389Y-58990000D03*
D12*
X55461182Y-64849606D03*
X59877933Y-54428243D03*
D11*
X61497212Y-59872133D03*
D10*
X61910832Y-59945065D03*
G04 #@! TD*
D14*
G04 #@! TO.C,GP27*
X86270086Y-43792822D03*
X79770086Y-43792822D03*
X86270086Y-39292822D03*
X79770086Y-39292822D03*
G04 #@! TD*
D15*
G04 #@! TO.C,H2*
X226999529Y-39340997D03*
G04 #@! TD*
G04 #@! TO.C,H4*
X134298529Y-88115997D03*
G04 #@! TD*
D14*
G04 #@! TO.C,GP29*
X110270086Y-43792822D03*
X103770086Y-43792822D03*
X110270086Y-39292822D03*
X103770086Y-39292822D03*
G04 #@! TD*
D10*
G04 #@! TO.C,GP7*
X167509057Y-80743062D03*
D11*
X167922677Y-80670130D03*
D12*
X168652642Y-84349267D03*
X168732316Y-77948185D03*
D13*
X172925500Y-79787997D03*
D12*
X173958707Y-85647603D03*
X174544779Y-74344107D03*
D11*
X177928323Y-78905864D03*
D10*
X178341943Y-78832932D03*
G04 #@! TD*
D15*
G04 #@! TO.C,H3*
X41673529Y-136890997D03*
G04 #@! TD*
D14*
G04 #@! TO.C,GP1*
X177022681Y-43792822D03*
X170522681Y-43792822D03*
X177022681Y-39292822D03*
X170522681Y-39292822D03*
G04 #@! TD*
D10*
G04 #@! TO.C,GP13*
X71082468Y-78971761D03*
D11*
X71496088Y-79044693D03*
D12*
X70923692Y-82751614D03*
X73187860Y-76763815D03*
D13*
X76498911Y-79926826D03*
D12*
X75465704Y-85786432D03*
X79882455Y-75365069D03*
D11*
X81501734Y-80808959D03*
D10*
X81915354Y-80881891D03*
G04 #@! TD*
G04 #@! TO.C,GP9*
X151282086Y-125846062D03*
D11*
X151695706Y-125773130D03*
D12*
X152425671Y-129452267D03*
X152505345Y-123051185D03*
D13*
X156698529Y-124890997D03*
D12*
X157731736Y-130750603D03*
X158317808Y-119447107D03*
D11*
X161701352Y-124008864D03*
D10*
X162114972Y-123935932D03*
G04 #@! TD*
D15*
G04 #@! TO.C,H4*
X226923529Y-136890997D03*
G04 #@! TD*
G04 #@! TO.C,H4*
X134298529Y-136890997D03*
G04 #@! TD*
D14*
G04 #@! TO.C,GP2*
X189022681Y-43792822D03*
X182522681Y-43792822D03*
X189022681Y-39292822D03*
X182522681Y-39292822D03*
G04 #@! TD*
D10*
G04 #@! TO.C,GP10*
X106677794Y-123935932D03*
D11*
X107091414Y-124008864D03*
D12*
X106519018Y-127715785D03*
X108783186Y-121727986D03*
D13*
X112094237Y-124890997D03*
D12*
X111061030Y-130750603D03*
X115477781Y-120329240D03*
D11*
X117097060Y-125773130D03*
D10*
X117510680Y-125846062D03*
G04 #@! TD*
G04 #@! TO.C,GP5*
X208810074Y-81850541D03*
D11*
X209223694Y-81777609D03*
D12*
X209953659Y-85456746D03*
X210033333Y-79055664D03*
D13*
X214226517Y-80895476D03*
D12*
X215259724Y-86755082D03*
X215845796Y-75451586D03*
D11*
X219229340Y-80013343D03*
D10*
X219642960Y-79940411D03*
G04 #@! TD*
G04 #@! TO.C,GP8*
X149356238Y-87497887D03*
D11*
X149769858Y-87424955D03*
D12*
X150499823Y-91104092D03*
X150579497Y-84703010D03*
D13*
X154772681Y-86542822D03*
D12*
X155805888Y-92402428D03*
X156391960Y-81098932D03*
D11*
X159775504Y-85660689D03*
D10*
X160189124Y-85587757D03*
G04 #@! TD*
D14*
G04 #@! TO.C,GP3*
X201045530Y-43792822D03*
X194545530Y-43792822D03*
X201045530Y-39292821D03*
X194545529Y-39292822D03*
G04 #@! TD*
D10*
G04 #@! TO.C,GP12*
X90450824Y-78832932D03*
D11*
X90864444Y-78905864D03*
D12*
X90292048Y-82612785D03*
X92556216Y-76624986D03*
D13*
X95867267Y-79787997D03*
D12*
X94834060Y-85647603D03*
X99250811Y-75226240D03*
D11*
X100870090Y-80670130D03*
D10*
X101283710Y-80743062D03*
G04 #@! TD*
G04 #@! TO.C,GP14*
X49149807Y-79940411D03*
D11*
X49563427Y-80013343D03*
D12*
X48991031Y-83720264D03*
X51255199Y-77732465D03*
D13*
X54566250Y-80895476D03*
D12*
X53533043Y-86755082D03*
X57949794Y-76333719D03*
D11*
X59569073Y-81777609D03*
D10*
X59982693Y-81850541D03*
G04 #@! TD*
G04 #@! TO.C,GP11*
X108603643Y-85587757D03*
D11*
X109017263Y-85660689D03*
D12*
X108444867Y-89367610D03*
X110709035Y-83379811D03*
D13*
X114020086Y-86542822D03*
D12*
X112986879Y-92402428D03*
X117403630Y-81981065D03*
D11*
X119022909Y-87424955D03*
D10*
X119436529Y-87497887D03*
G04 #@! TD*
D14*
G04 #@! TO.C,GP0*
X165022681Y-43792822D03*
X158522681Y-43792822D03*
X165022681Y-39292822D03*
X158522681Y-39292822D03*
G04 #@! TD*
G04 #@! TO.C,GP28*
X98270086Y-43792822D03*
X91770086Y-43792822D03*
X98270086Y-39292822D03*
X91770086Y-39292822D03*
G04 #@! TD*
D10*
G04 #@! TO.C,GP4*
X206881935Y-59945065D03*
D11*
X207295555Y-59872133D03*
D12*
X208025520Y-63551270D03*
X208105194Y-57150188D03*
D13*
X212298378Y-58990000D03*
D12*
X213331585Y-64849606D03*
X213917657Y-53546110D03*
D11*
X217301201Y-58107867D03*
D10*
X217714821Y-58034935D03*
G04 #@! TD*
G04 #@! TO.C,GP6*
X186877413Y-80881891D03*
D11*
X187291033Y-80808959D03*
D12*
X188020998Y-84488096D03*
X188100672Y-78087014D03*
D13*
X192293856Y-79926826D03*
D12*
X193327063Y-85786432D03*
X193913135Y-74482936D03*
D11*
X197296679Y-79044693D03*
D10*
X197710299Y-78971761D03*
G04 #@! TD*
D15*
G04 #@! TO.C,H1*
X41673529Y-39340997D03*
G04 #@! TD*
D14*
G04 #@! TO.C,GP26*
X74270086Y-43792822D03*
X67770086Y-43792822D03*
X74270086Y-39292821D03*
X67770085Y-39292822D03*
G04 #@! TD*
M02*
