M48
; DRILL file {KiCad 9.0.2-rc1} date 2025-07-21T22:58:39+0900
; FORMAT={-:-/ absolute / metric / decimal}
; #@! TF.CreationDate,2025-07-21T22:58:39+09:00
; #@! TF.GenerationSoftware,Kicad,Pcbnew,9.0.2-rc1
; #@! TF.FileFunction,NonPlated,1,2,NPTH
FMAT,2
METRIC
; #@! TA.AperFunction,NonPlated,NPTH,ComponentDrill
T1C1.700
; #@! TA.AperFunction,NonPlated,NPTH,ComponentDrill
T2C1.750
; #@! TA.AperFunction,NonPlated,NPTH,ComponentDrill
T3C3.000
; #@! TA.AperFunction,NonPlated,NPTH,ComponentDrill
T4C3.500
; #@! TA.AperFunction,NonPlated,NPTH,ComponentDrill
T5C5.060
%
G90
G05
T1
X49.15Y-79.94
X51.078Y-58.035
X59.983Y-81.851
X61.911Y-59.945
X71.082Y-78.972
X81.915Y-80.882
X90.451Y-78.833
X101.284Y-80.743
X106.678Y-123.936
X108.604Y-85.588
X117.511Y-125.846
X119.437Y-87.498
X149.356Y-87.498
X151.282Y-125.846
X160.189Y-85.588
X162.115Y-123.936
X167.509Y-80.743
X178.342Y-78.833
X186.877Y-80.882
X197.71Y-78.972
X206.882Y-59.945
X208.81Y-81.851
X217.715Y-58.035
X219.643Y-79.94
T2
X49.563Y-80.013
X51.492Y-58.108
X59.569Y-81.778
X61.497Y-59.872
X71.496Y-79.045
X81.502Y-80.809
X90.864Y-78.906
X100.87Y-80.67
X107.091Y-124.009
X109.017Y-85.661
X117.097Y-125.773
X119.023Y-87.425
X149.77Y-87.425
X151.696Y-125.773
X159.776Y-85.661
X161.701Y-124.009
X167.923Y-80.67
X177.928Y-78.906
X187.291Y-80.809
X197.297Y-79.045
X207.296Y-59.872
X209.224Y-81.778
X217.301Y-58.108
X219.229Y-80.013
T3
X48.991Y-83.72
X50.919Y-61.815
X51.255Y-77.732
X53.183Y-55.827
X53.533Y-86.755
X55.461Y-64.85
X57.95Y-76.334
X59.878Y-54.428
X70.924Y-82.752
X73.188Y-76.764
X75.466Y-85.786
X79.882Y-75.365
X90.292Y-82.613
X92.556Y-76.625
X94.834Y-85.648
X99.251Y-75.226
X106.519Y-127.716
X108.445Y-89.368
X108.783Y-121.728
X110.709Y-83.38
X111.061Y-130.751
X112.987Y-92.402
X115.478Y-120.329
X117.404Y-81.981
X150.5Y-91.104
X150.579Y-84.703
X152.426Y-129.452
X152.505Y-123.051
X155.806Y-92.402
X156.392Y-81.099
X157.732Y-130.751
X158.318Y-119.447
X168.653Y-84.349
X168.732Y-77.948
X173.959Y-85.648
X174.545Y-74.344
X188.021Y-84.488
X188.101Y-78.087
X193.327Y-85.786
X193.913Y-74.483
X208.026Y-63.551
X208.105Y-57.15
X209.954Y-85.457
X210.033Y-79.056
X213.332Y-64.85
X213.918Y-53.546
X215.26Y-86.755
X215.846Y-75.452
T4
X41.674Y-39.341
X41.674Y-136.891
X134.299Y-88.116
X134.299Y-136.891
X226.924Y-136.891
X227.0Y-39.341
T5
X54.566Y-80.895
X56.494Y-58.99
X76.499Y-79.927
X95.867Y-79.788
X112.094Y-124.891
X114.02Y-86.543
X154.773Y-86.543
X156.699Y-124.891
X172.925Y-79.788
X192.294Y-79.927
X212.298Y-58.99
X214.227Y-80.895
M30
