G04 #@! TF.GenerationSoftware,KiCad,Pcbnew,9.0.2-rc1*
G04 #@! TF.CreationDate,2025-07-21T22:58:39+09:00*
G04 #@! TF.ProjectId,MAXCON-zero,4d415843-4f4e-42d7-9a65-726f2e6b6963,rev?*
G04 #@! TF.SameCoordinates,Original*
G04 #@! TF.FileFunction,Legend,Bot*
G04 #@! TF.FilePolarity,Positive*
%FSLAX46Y46*%
G04 Gerber Fmt 4.6, Leading zero omitted, Abs format (unit mm)*
G04 Created by KiCad (PCBNEW 9.0.2-rc1) date 2025-07-21 22:58:39*
%MOMM*%
%LPD*%
G01*
G04 APERTURE LIST*
G04 Aperture macros list*
%AMRoundRect*
0 Rectangle with rounded corners*
0 $1 Rounding radius*
0 $2 $3 $4 $5 $6 $7 $8 $9 X,Y pos of 4 corners*
0 Add a 4 corners polygon primitive as box body*
4,1,4,$2,$3,$4,$5,$6,$7,$8,$9,$2,$3,0*
0 Add four circle primitives for the rounded corners*
1,1,$1+$1,$2,$3*
1,1,$1+$1,$4,$5*
1,1,$1+$1,$6,$7*
1,1,$1+$1,$8,$9*
0 Add four rect primitives between the rounded corners*
20,1,$1+$1,$2,$3,$4,$5,0*
20,1,$1+$1,$4,$5,$6,$7,0*
20,1,$1+$1,$6,$7,$8,$9,0*
20,1,$1+$1,$8,$9,$2,$3,0*%
G04 Aperture macros list end*
%ADD10C,0.150000*%
%ADD11C,0.120000*%
%ADD12C,1.700000*%
%ADD13C,1.750000*%
%ADD14C,3.000000*%
%ADD15C,5.060000*%
%ADD16RoundRect,0.260000X1.229414X0.839265X-0.868226X1.209135X-1.229414X-0.839265X0.868226X-1.209135X0*%
%ADD17RoundRect,0.250000X1.183076X0.806818X-0.835780X1.162797X-1.183076X-0.806818X0.835780X-1.162797X0*%
%ADD18C,2.000000*%
%ADD19C,3.500000*%
%ADD20R,2.000000X1.600000*%
%ADD21R,1.600000X2.000000*%
%ADD22RoundRect,0.260000X0.868226X1.209135X-1.229414X0.839265X-0.868226X-1.209135X1.229414X-0.839265X0*%
%ADD23RoundRect,0.250000X0.835780X1.162797X-1.183076X0.806818X-0.835780X-1.162797X1.183076X-0.806818X0*%
G04 APERTURE END LIST*
D10*
X81085235Y-138163616D02*
X81085235Y-138877901D01*
X81085235Y-138877901D02*
X81132854Y-139020758D01*
X81132854Y-139020758D02*
X81228092Y-139115997D01*
X81228092Y-139115997D02*
X81370949Y-139163616D01*
X81370949Y-139163616D02*
X81466187Y-139163616D01*
X80180473Y-138496949D02*
X80180473Y-139163616D01*
X80609044Y-138496949D02*
X80609044Y-139020758D01*
X80609044Y-139020758D02*
X80561425Y-139115997D01*
X80561425Y-139115997D02*
X80466187Y-139163616D01*
X80466187Y-139163616D02*
X80323330Y-139163616D01*
X80323330Y-139163616D02*
X80228092Y-139115997D01*
X80228092Y-139115997D02*
X80180473Y-139068377D01*
X79704282Y-138496949D02*
X79704282Y-139163616D01*
X79704282Y-138592187D02*
X79656663Y-138544568D01*
X79656663Y-138544568D02*
X79561425Y-138496949D01*
X79561425Y-138496949D02*
X79418568Y-138496949D01*
X79418568Y-138496949D02*
X79323330Y-138544568D01*
X79323330Y-138544568D02*
X79275711Y-138639806D01*
X79275711Y-138639806D02*
X79275711Y-139163616D01*
X78418568Y-139115997D02*
X78513806Y-139163616D01*
X78513806Y-139163616D02*
X78704282Y-139163616D01*
X78704282Y-139163616D02*
X78799520Y-139115997D01*
X78799520Y-139115997D02*
X78847139Y-139020758D01*
X78847139Y-139020758D02*
X78847139Y-138639806D01*
X78847139Y-138639806D02*
X78799520Y-138544568D01*
X78799520Y-138544568D02*
X78704282Y-138496949D01*
X78704282Y-138496949D02*
X78513806Y-138496949D01*
X78513806Y-138496949D02*
X78418568Y-138544568D01*
X78418568Y-138544568D02*
X78370949Y-138639806D01*
X78370949Y-138639806D02*
X78370949Y-138735044D01*
X78370949Y-138735044D02*
X78847139Y-138830282D01*
X77894758Y-139115997D02*
X77894758Y-139163616D01*
X77894758Y-139163616D02*
X77942377Y-139258854D01*
X77942377Y-139258854D02*
X77989996Y-139306473D01*
X76751901Y-138258854D02*
X76704282Y-138211235D01*
X76704282Y-138211235D02*
X76609044Y-138163616D01*
X76609044Y-138163616D02*
X76370949Y-138163616D01*
X76370949Y-138163616D02*
X76275711Y-138211235D01*
X76275711Y-138211235D02*
X76228092Y-138258854D01*
X76228092Y-138258854D02*
X76180473Y-138354092D01*
X76180473Y-138354092D02*
X76180473Y-138449330D01*
X76180473Y-138449330D02*
X76228092Y-138592187D01*
X76228092Y-138592187D02*
X76799520Y-139163616D01*
X76799520Y-139163616D02*
X76180473Y-139163616D01*
X75561425Y-138163616D02*
X75466187Y-138163616D01*
X75466187Y-138163616D02*
X75370949Y-138211235D01*
X75370949Y-138211235D02*
X75323330Y-138258854D01*
X75323330Y-138258854D02*
X75275711Y-138354092D01*
X75275711Y-138354092D02*
X75228092Y-138544568D01*
X75228092Y-138544568D02*
X75228092Y-138782663D01*
X75228092Y-138782663D02*
X75275711Y-138973139D01*
X75275711Y-138973139D02*
X75323330Y-139068377D01*
X75323330Y-139068377D02*
X75370949Y-139115997D01*
X75370949Y-139115997D02*
X75466187Y-139163616D01*
X75466187Y-139163616D02*
X75561425Y-139163616D01*
X75561425Y-139163616D02*
X75656663Y-139115997D01*
X75656663Y-139115997D02*
X75704282Y-139068377D01*
X75704282Y-139068377D02*
X75751901Y-138973139D01*
X75751901Y-138973139D02*
X75799520Y-138782663D01*
X75799520Y-138782663D02*
X75799520Y-138544568D01*
X75799520Y-138544568D02*
X75751901Y-138354092D01*
X75751901Y-138354092D02*
X75704282Y-138258854D01*
X75704282Y-138258854D02*
X75656663Y-138211235D01*
X75656663Y-138211235D02*
X75561425Y-138163616D01*
X74847139Y-138258854D02*
X74799520Y-138211235D01*
X74799520Y-138211235D02*
X74704282Y-138163616D01*
X74704282Y-138163616D02*
X74466187Y-138163616D01*
X74466187Y-138163616D02*
X74370949Y-138211235D01*
X74370949Y-138211235D02*
X74323330Y-138258854D01*
X74323330Y-138258854D02*
X74275711Y-138354092D01*
X74275711Y-138354092D02*
X74275711Y-138449330D01*
X74275711Y-138449330D02*
X74323330Y-138592187D01*
X74323330Y-138592187D02*
X74894758Y-139163616D01*
X74894758Y-139163616D02*
X74275711Y-139163616D01*
X73370949Y-138163616D02*
X73847139Y-138163616D01*
X73847139Y-138163616D02*
X73894758Y-138639806D01*
X73894758Y-138639806D02*
X73847139Y-138592187D01*
X73847139Y-138592187D02*
X73751901Y-138544568D01*
X73751901Y-138544568D02*
X73513806Y-138544568D01*
X73513806Y-138544568D02*
X73418568Y-138592187D01*
X73418568Y-138592187D02*
X73370949Y-138639806D01*
X73370949Y-138639806D02*
X73323330Y-138735044D01*
X73323330Y-138735044D02*
X73323330Y-138973139D01*
X73323330Y-138973139D02*
X73370949Y-139068377D01*
X73370949Y-139068377D02*
X73418568Y-139115997D01*
X73418568Y-139115997D02*
X73513806Y-139163616D01*
X73513806Y-139163616D02*
X73751901Y-139163616D01*
X73751901Y-139163616D02*
X73847139Y-139115997D01*
X73847139Y-139115997D02*
X73894758Y-139068377D01*
X72132853Y-139163616D02*
X72132853Y-138163616D01*
X72132853Y-138544568D02*
X72037615Y-138496949D01*
X72037615Y-138496949D02*
X71847139Y-138496949D01*
X71847139Y-138496949D02*
X71751901Y-138544568D01*
X71751901Y-138544568D02*
X71704282Y-138592187D01*
X71704282Y-138592187D02*
X71656663Y-138687425D01*
X71656663Y-138687425D02*
X71656663Y-138973139D01*
X71656663Y-138973139D02*
X71704282Y-139068377D01*
X71704282Y-139068377D02*
X71751901Y-139115997D01*
X71751901Y-139115997D02*
X71847139Y-139163616D01*
X71847139Y-139163616D02*
X72037615Y-139163616D01*
X72037615Y-139163616D02*
X72132853Y-139115997D01*
X71323329Y-138496949D02*
X71085234Y-139163616D01*
X70847139Y-138496949D02*
X71085234Y-139163616D01*
X71085234Y-139163616D02*
X71180472Y-139401711D01*
X71180472Y-139401711D02*
X71228091Y-139449330D01*
X71228091Y-139449330D02*
X71323329Y-139496949D01*
X69847138Y-138163616D02*
X69275710Y-138163616D01*
X69561424Y-139163616D02*
X69561424Y-138163616D01*
X68942376Y-139163616D02*
X68942376Y-138163616D01*
X68513805Y-139163616D02*
X68513805Y-138639806D01*
X68513805Y-138639806D02*
X68561424Y-138544568D01*
X68561424Y-138544568D02*
X68656662Y-138496949D01*
X68656662Y-138496949D02*
X68799519Y-138496949D01*
X68799519Y-138496949D02*
X68894757Y-138544568D01*
X68894757Y-138544568D02*
X68942376Y-138592187D01*
X67609043Y-138496949D02*
X67609043Y-139163616D01*
X68037614Y-138496949D02*
X68037614Y-139020758D01*
X68037614Y-139020758D02*
X67989995Y-139115997D01*
X67989995Y-139115997D02*
X67894757Y-139163616D01*
X67894757Y-139163616D02*
X67751900Y-139163616D01*
X67751900Y-139163616D02*
X67656662Y-139115997D01*
X67656662Y-139115997D02*
X67609043Y-139068377D01*
X67132852Y-138496949D02*
X67132852Y-139163616D01*
X67132852Y-138592187D02*
X67085233Y-138544568D01*
X67085233Y-138544568D02*
X66989995Y-138496949D01*
X66989995Y-138496949D02*
X66847138Y-138496949D01*
X66847138Y-138496949D02*
X66751900Y-138544568D01*
X66751900Y-138544568D02*
X66704281Y-138639806D01*
X66704281Y-138639806D02*
X66704281Y-139163616D01*
X65799519Y-139163616D02*
X65799519Y-138163616D01*
X65799519Y-139115997D02*
X65894757Y-139163616D01*
X65894757Y-139163616D02*
X66085233Y-139163616D01*
X66085233Y-139163616D02*
X66180471Y-139115997D01*
X66180471Y-139115997D02*
X66228090Y-139068377D01*
X66228090Y-139068377D02*
X66275709Y-138973139D01*
X66275709Y-138973139D02*
X66275709Y-138687425D01*
X66275709Y-138687425D02*
X66228090Y-138592187D01*
X66228090Y-138592187D02*
X66180471Y-138544568D01*
X66180471Y-138544568D02*
X66085233Y-138496949D01*
X66085233Y-138496949D02*
X65894757Y-138496949D01*
X65894757Y-138496949D02*
X65799519Y-138544568D01*
X64942376Y-139115997D02*
X65037614Y-139163616D01*
X65037614Y-139163616D02*
X65228090Y-139163616D01*
X65228090Y-139163616D02*
X65323328Y-139115997D01*
X65323328Y-139115997D02*
X65370947Y-139020758D01*
X65370947Y-139020758D02*
X65370947Y-138639806D01*
X65370947Y-138639806D02*
X65323328Y-138544568D01*
X65323328Y-138544568D02*
X65228090Y-138496949D01*
X65228090Y-138496949D02*
X65037614Y-138496949D01*
X65037614Y-138496949D02*
X64942376Y-138544568D01*
X64942376Y-138544568D02*
X64894757Y-138639806D01*
X64894757Y-138639806D02*
X64894757Y-138735044D01*
X64894757Y-138735044D02*
X65370947Y-138830282D01*
X64466185Y-139163616D02*
X64466185Y-138496949D01*
X64466185Y-138687425D02*
X64418566Y-138592187D01*
X64418566Y-138592187D02*
X64370947Y-138544568D01*
X64370947Y-138544568D02*
X64275709Y-138496949D01*
X64275709Y-138496949D02*
X64180471Y-138496949D01*
X63847137Y-139163616D02*
X63847137Y-138496949D01*
X63847137Y-138687425D02*
X63799518Y-138592187D01*
X63799518Y-138592187D02*
X63751899Y-138544568D01*
X63751899Y-138544568D02*
X63656661Y-138496949D01*
X63656661Y-138496949D02*
X63561423Y-138496949D01*
X62704280Y-138211235D02*
X62799518Y-138163616D01*
X62799518Y-138163616D02*
X62942375Y-138163616D01*
X62942375Y-138163616D02*
X63085232Y-138211235D01*
X63085232Y-138211235D02*
X63180470Y-138306473D01*
X63180470Y-138306473D02*
X63228089Y-138401711D01*
X63228089Y-138401711D02*
X63275708Y-138592187D01*
X63275708Y-138592187D02*
X63275708Y-138735044D01*
X63275708Y-138735044D02*
X63228089Y-138925520D01*
X63228089Y-138925520D02*
X63180470Y-139020758D01*
X63180470Y-139020758D02*
X63085232Y-139115997D01*
X63085232Y-139115997D02*
X62942375Y-139163616D01*
X62942375Y-139163616D02*
X62847137Y-139163616D01*
X62847137Y-139163616D02*
X62704280Y-139115997D01*
X62704280Y-139115997D02*
X62656661Y-139068377D01*
X62656661Y-139068377D02*
X62656661Y-138735044D01*
X62656661Y-138735044D02*
X62847137Y-138735044D01*
X62085232Y-139163616D02*
X62180470Y-139115997D01*
X62180470Y-139115997D02*
X62228089Y-139068377D01*
X62228089Y-139068377D02*
X62275708Y-138973139D01*
X62275708Y-138973139D02*
X62275708Y-138687425D01*
X62275708Y-138687425D02*
X62228089Y-138592187D01*
X62228089Y-138592187D02*
X62180470Y-138544568D01*
X62180470Y-138544568D02*
X62085232Y-138496949D01*
X62085232Y-138496949D02*
X61942375Y-138496949D01*
X61942375Y-138496949D02*
X61847137Y-138544568D01*
X61847137Y-138544568D02*
X61799518Y-138592187D01*
X61799518Y-138592187D02*
X61751899Y-138687425D01*
X61751899Y-138687425D02*
X61751899Y-138973139D01*
X61751899Y-138973139D02*
X61799518Y-139068377D01*
X61799518Y-139068377D02*
X61847137Y-139115997D01*
X61847137Y-139115997D02*
X61942375Y-139163616D01*
X61942375Y-139163616D02*
X62085232Y-139163616D01*
X60894756Y-139163616D02*
X60894756Y-138163616D01*
X60894756Y-139115997D02*
X60989994Y-139163616D01*
X60989994Y-139163616D02*
X61180470Y-139163616D01*
X61180470Y-139163616D02*
X61275708Y-139115997D01*
X61275708Y-139115997D02*
X61323327Y-139068377D01*
X61323327Y-139068377D02*
X61370946Y-138973139D01*
X61370946Y-138973139D02*
X61370946Y-138687425D01*
X61370946Y-138687425D02*
X61323327Y-138592187D01*
X61323327Y-138592187D02*
X61275708Y-138544568D01*
X61275708Y-138544568D02*
X61180470Y-138496949D01*
X61180470Y-138496949D02*
X60989994Y-138496949D01*
X60989994Y-138496949D02*
X60894756Y-138544568D01*
X59989994Y-139163616D02*
X59989994Y-138163616D01*
X59989994Y-139115997D02*
X60085232Y-139163616D01*
X60085232Y-139163616D02*
X60275708Y-139163616D01*
X60275708Y-139163616D02*
X60370946Y-139115997D01*
X60370946Y-139115997D02*
X60418565Y-139068377D01*
X60418565Y-139068377D02*
X60466184Y-138973139D01*
X60466184Y-138973139D02*
X60466184Y-138687425D01*
X60466184Y-138687425D02*
X60418565Y-138592187D01*
X60418565Y-138592187D02*
X60370946Y-138544568D01*
X60370946Y-138544568D02*
X60275708Y-138496949D01*
X60275708Y-138496949D02*
X60085232Y-138496949D01*
X60085232Y-138496949D02*
X59989994Y-138544568D01*
D11*
G04 #@! TO.C,GP15*
X48848263Y-59139536D02*
X48726707Y-59828901D01*
X48848263Y-59139536D02*
X49833068Y-59313184D01*
D10*
X51230983Y-53797128D02*
X51326528Y-53255267D01*
X53643439Y-51632948D02*
X59453805Y-52657472D01*
D11*
X56534662Y-67399756D02*
X55549854Y-67226108D01*
X57225394Y-66937681D02*
X56534662Y-67399756D01*
X57342126Y-62820400D02*
X56357318Y-62646752D01*
X57342126Y-62820400D02*
X57805706Y-63505816D01*
D10*
X60931017Y-52917944D02*
X62457469Y-53187099D01*
X61690316Y-57164530D02*
X56569316Y-56261560D01*
D11*
X49078784Y-63901917D02*
G75*
G02*
X48429857Y-62975152I138920J787847D01*
G01*
D10*
X51326528Y-53255267D02*
G75*
G02*
X53643439Y-51632948I1969628J-347315D01*
G01*
X54187337Y-57709714D02*
G75*
G02*
X56766316Y-56296073I2170169J-899849D01*
G01*
D11*
G04 #@! TO.C,GP7*
X165791636Y-82543644D02*
X165913187Y-83233010D01*
X165791636Y-82543644D02*
X166776441Y-82369996D01*
D10*
X166203449Y-76708484D02*
X166107904Y-76166623D01*
X167730224Y-73849711D02*
X173540589Y-72825187D01*
X175017801Y-72564715D02*
X176544253Y-72295560D01*
D11*
X175032186Y-83097453D02*
X174047379Y-83271101D01*
X175032186Y-83097453D02*
X175702235Y-83582979D01*
X175839650Y-87676809D02*
X174854843Y-87850457D01*
X176330687Y-87006356D02*
X175839650Y-87676809D01*
D10*
X177183727Y-76295505D02*
X172062727Y-77198475D01*
X166107904Y-76166623D02*
G75*
G02*
X167730224Y-73849711I1969634J347283D01*
G01*
D11*
X167637085Y-86939975D02*
G75*
G02*
X166710320Y-86291048I-138918J787847D01*
G01*
D10*
X170319697Y-79373980D02*
G75*
G02*
X172259650Y-77163530I2347058J-103340D01*
G01*
D11*
G04 #@! TO.C,GP13*
X68852785Y-80076362D02*
X68731229Y-80765727D01*
X68852785Y-80076362D02*
X69837590Y-80250010D01*
D10*
X71235505Y-74733954D02*
X71331050Y-74192093D01*
X73647961Y-72569774D02*
X79458327Y-73594298D01*
D11*
X76539184Y-88336582D02*
X75554376Y-88162934D01*
X77229916Y-87874507D02*
X76539184Y-88336582D01*
X77346648Y-83757226D02*
X76361840Y-83583578D01*
X77346648Y-83757226D02*
X77810228Y-84442642D01*
D10*
X80935539Y-73854770D02*
X82461991Y-74123925D01*
X81694838Y-78101356D02*
X76573838Y-77198386D01*
D11*
X69083306Y-84838743D02*
G75*
G02*
X68434379Y-83911978I138920J787847D01*
G01*
D10*
X71331050Y-74192093D02*
G75*
G02*
X73647961Y-72569774I1969628J-347315D01*
G01*
X74191859Y-78646540D02*
G75*
G02*
X76770838Y-77232899I2170169J-899849D01*
G01*
D11*
G04 #@! TO.C,GP9*
X149564665Y-127646644D02*
X149686216Y-128336010D01*
X149564665Y-127646644D02*
X150549470Y-127472996D01*
D10*
X149976478Y-121811484D02*
X149880933Y-121269623D01*
X151503253Y-118952711D02*
X157313618Y-117928187D01*
X158790830Y-117667715D02*
X160317282Y-117398560D01*
D11*
X158805215Y-128200453D02*
X157820408Y-128374101D01*
X158805215Y-128200453D02*
X159475264Y-128685979D01*
X159612679Y-132779809D02*
X158627872Y-132953457D01*
X160103716Y-132109356D02*
X159612679Y-132779809D01*
D10*
X160956756Y-121398505D02*
X155835756Y-122301475D01*
X149880933Y-121269623D02*
G75*
G02*
X151503253Y-118952711I1969634J347283D01*
G01*
D11*
X151410114Y-132042975D02*
G75*
G02*
X150483349Y-131394048I-138918J787847D01*
G01*
D10*
X154092726Y-124476980D02*
G75*
G02*
X156032679Y-122266530I2347058J-103340D01*
G01*
D11*
G04 #@! TO.C,GP10*
X104448111Y-125040533D02*
X104326555Y-125729898D01*
X104448111Y-125040533D02*
X105432916Y-125214181D01*
D10*
X106830831Y-119698125D02*
X106926376Y-119156264D01*
X109243287Y-117533945D02*
X115053653Y-118558469D01*
D11*
X112134510Y-133300753D02*
X111149702Y-133127105D01*
X112825242Y-132838678D02*
X112134510Y-133300753D01*
X112941974Y-128721397D02*
X111957166Y-128547749D01*
X112941974Y-128721397D02*
X113405554Y-129406813D01*
D10*
X116530865Y-118818941D02*
X118057317Y-119088096D01*
X117290164Y-123065527D02*
X112169164Y-122162557D01*
D11*
X104678632Y-129802914D02*
G75*
G02*
X104029705Y-128876149I138920J787847D01*
G01*
D10*
X106926376Y-119156264D02*
G75*
G02*
X109243287Y-117533945I1969628J-347315D01*
G01*
X109787185Y-123610711D02*
G75*
G02*
X112366164Y-122197070I2170169J-899849D01*
G01*
D11*
G04 #@! TO.C,GP5*
X207092653Y-83651123D02*
X207214204Y-84340489D01*
X207092653Y-83651123D02*
X208077458Y-83477475D01*
D10*
X207504466Y-77815963D02*
X207408921Y-77274102D01*
X209031241Y-74957190D02*
X214841606Y-73932666D01*
X216318818Y-73672194D02*
X217845270Y-73403039D01*
D11*
X216333203Y-84204932D02*
X215348396Y-84378580D01*
X216333203Y-84204932D02*
X217003252Y-84690458D01*
X217140667Y-88784288D02*
X216155860Y-88957936D01*
X217631704Y-88113835D02*
X217140667Y-88784288D01*
D10*
X218484744Y-77402984D02*
X213363744Y-78305954D01*
X207408921Y-77274102D02*
G75*
G02*
X209031241Y-74957190I1969634J347283D01*
G01*
D11*
X208938102Y-88047454D02*
G75*
G02*
X208011337Y-87398527I-138918J787847D01*
G01*
D10*
X211620714Y-80481459D02*
G75*
G02*
X213560667Y-78271009I2347058J-103340D01*
G01*
D11*
G04 #@! TO.C,GP8*
X147638817Y-89298469D02*
X147760368Y-89987835D01*
X147638817Y-89298469D02*
X148623622Y-89124821D01*
D10*
X148050630Y-83463309D02*
X147955085Y-82921448D01*
X149577405Y-80604536D02*
X155387770Y-79580012D01*
X156864982Y-79319540D02*
X158391434Y-79050385D01*
D11*
X156879367Y-89852278D02*
X155894560Y-90025926D01*
X156879367Y-89852278D02*
X157549416Y-90337804D01*
X157686831Y-94431634D02*
X156702024Y-94605282D01*
X158177868Y-93761181D02*
X157686831Y-94431634D01*
D10*
X159030908Y-83050330D02*
X153909908Y-83953300D01*
X147955085Y-82921448D02*
G75*
G02*
X149577405Y-80604536I1969634J347283D01*
G01*
D11*
X149484266Y-93694800D02*
G75*
G02*
X148557501Y-93045873I-138918J787847D01*
G01*
D10*
X152166878Y-86128805D02*
G75*
G02*
X154106831Y-83918355I2347058J-103340D01*
G01*
D11*
G04 #@! TO.C,GP12*
X88221141Y-79937533D02*
X88099585Y-80626898D01*
X88221141Y-79937533D02*
X89205946Y-80111181D01*
D10*
X90603861Y-74595125D02*
X90699406Y-74053264D01*
X93016317Y-72430945D02*
X98826683Y-73455469D01*
D11*
X95907540Y-88197753D02*
X94922732Y-88024105D01*
X96598272Y-87735678D02*
X95907540Y-88197753D01*
X96715004Y-83618397D02*
X95730196Y-83444749D01*
X96715004Y-83618397D02*
X97178584Y-84303813D01*
D10*
X100303895Y-73715941D02*
X101830347Y-73985096D01*
X101063194Y-77962527D02*
X95942194Y-77059557D01*
D11*
X88451662Y-84699914D02*
G75*
G02*
X87802735Y-83773149I138920J787847D01*
G01*
D10*
X90699406Y-74053264D02*
G75*
G02*
X93016317Y-72430945I1969628J-347315D01*
G01*
X93560215Y-78507711D02*
G75*
G02*
X96139194Y-77094070I2170169J-899849D01*
G01*
D11*
G04 #@! TO.C,GP14*
X46920124Y-81045012D02*
X46798568Y-81734377D01*
X46920124Y-81045012D02*
X47904929Y-81218660D01*
D10*
X49302844Y-75702604D02*
X49398389Y-75160743D01*
X51715300Y-73538424D02*
X57525666Y-74562948D01*
D11*
X54606523Y-89305232D02*
X53621715Y-89131584D01*
X55297255Y-88843157D02*
X54606523Y-89305232D01*
X55413987Y-84725876D02*
X54429179Y-84552228D01*
X55413987Y-84725876D02*
X55877567Y-85411292D01*
D10*
X59002878Y-74823420D02*
X60529330Y-75092575D01*
X59762177Y-79070006D02*
X54641177Y-78167036D01*
D11*
X47150645Y-85807393D02*
G75*
G02*
X46501718Y-84880628I138920J787847D01*
G01*
D10*
X49398389Y-75160743D02*
G75*
G02*
X51715300Y-73538424I1969628J-347315D01*
G01*
X52259198Y-79615190D02*
G75*
G02*
X54838177Y-78201549I2170169J-899849D01*
G01*
D11*
G04 #@! TO.C,GP11*
X106373960Y-86692358D02*
X106252404Y-87381723D01*
X106373960Y-86692358D02*
X107358765Y-86866006D01*
D10*
X108756680Y-81349950D02*
X108852225Y-80808089D01*
X111169136Y-79185770D02*
X116979502Y-80210294D01*
D11*
X114060359Y-94952578D02*
X113075551Y-94778930D01*
X114751091Y-94490503D02*
X114060359Y-94952578D01*
X114867823Y-90373222D02*
X113883015Y-90199574D01*
X114867823Y-90373222D02*
X115331403Y-91058638D01*
D10*
X118456714Y-80470766D02*
X119983166Y-80739921D01*
X119216013Y-84717352D02*
X114095013Y-83814382D01*
D11*
X106604481Y-91454739D02*
G75*
G02*
X105955554Y-90527974I138920J787847D01*
G01*
D10*
X108852225Y-80808089D02*
G75*
G02*
X111169136Y-79185770I1969628J-347315D01*
G01*
X111713034Y-85262536D02*
G75*
G02*
X114292013Y-83848895I2170169J-899849D01*
G01*
D11*
G04 #@! TO.C,GP4*
X205164514Y-61745647D02*
X205286065Y-62435013D01*
X205164514Y-61745647D02*
X206149319Y-61571999D01*
D10*
X205576327Y-55910487D02*
X205480782Y-55368626D01*
X207103102Y-53051714D02*
X212913467Y-52027190D01*
X214390679Y-51766718D02*
X215917131Y-51497563D01*
D11*
X214405064Y-62299456D02*
X213420257Y-62473104D01*
X214405064Y-62299456D02*
X215075113Y-62784982D01*
X215212528Y-66878812D02*
X214227721Y-67052460D01*
X215703565Y-66208359D02*
X215212528Y-66878812D01*
D10*
X216556605Y-55497508D02*
X211435605Y-56400478D01*
X205480782Y-55368626D02*
G75*
G02*
X207103102Y-53051714I1969634J347283D01*
G01*
D11*
X207009963Y-66141978D02*
G75*
G02*
X206083198Y-65493051I-138918J787847D01*
G01*
D10*
X209692575Y-58575983D02*
G75*
G02*
X211632528Y-56365533I2347058J-103340D01*
G01*
D11*
G04 #@! TO.C,GP6*
X185159992Y-82682473D02*
X185281543Y-83371839D01*
X185159992Y-82682473D02*
X186144797Y-82508825D01*
D10*
X185571805Y-76847313D02*
X185476260Y-76305452D01*
X187098580Y-73988540D02*
X192908945Y-72964016D01*
X194386157Y-72703544D02*
X195912609Y-72434389D01*
D11*
X194400542Y-83236282D02*
X193415735Y-83409930D01*
X194400542Y-83236282D02*
X195070591Y-83721808D01*
X195208006Y-87815638D02*
X194223199Y-87989286D01*
X195699043Y-87145185D02*
X195208006Y-87815638D01*
D10*
X196552083Y-76434334D02*
X191431083Y-77337304D01*
X185476260Y-76305452D02*
G75*
G02*
X187098580Y-73988540I1969634J347283D01*
G01*
D11*
X187005441Y-87078804D02*
G75*
G02*
X186078676Y-86429877I-138918J787847D01*
G01*
D10*
X189688053Y-79512809D02*
G75*
G02*
X191628006Y-77302359I2347058J-103340D01*
G01*
G04 #@! TD*
%LPC*%
D12*
G04 #@! TO.C,GP15*
X51077946Y-58034935D03*
D13*
X51491566Y-58107867D03*
D14*
X50919170Y-61814788D03*
X53183338Y-55826989D03*
D15*
X56494389Y-58990000D03*
D14*
X55461182Y-64849606D03*
X59877933Y-54428243D03*
D13*
X61497212Y-59872133D03*
D12*
X61910832Y-59945065D03*
D16*
X47723468Y-61251300D03*
D17*
X49687270Y-55210538D03*
D16*
X58656884Y-65413092D03*
D17*
X63374001Y-55044694D03*
G04 #@! TD*
D18*
G04 #@! TO.C,GP27*
X86270086Y-43792822D03*
X79770086Y-43792822D03*
X86270086Y-39292822D03*
X79770086Y-39292822D03*
G04 #@! TD*
D19*
G04 #@! TO.C,H2*
X226999529Y-39340997D03*
G04 #@! TD*
G04 #@! TO.C,H4*
X134298529Y-88115997D03*
G04 #@! TD*
D18*
G04 #@! TO.C,GP29*
X110270086Y-43792822D03*
X103770086Y-43792822D03*
X110270086Y-39292822D03*
X103770086Y-39292822D03*
G04 #@! TD*
D20*
G04 #@! TO.C,RZ1*
X143336529Y-35999797D03*
X143336529Y-38539797D03*
X143336529Y-41079797D03*
X143336529Y-43619797D03*
X143336529Y-46159797D03*
X143336529Y-48699797D03*
X143336529Y-51239797D03*
X143336529Y-53779797D03*
X143336529Y-56319797D03*
D21*
X139416529Y-57909797D03*
X136876529Y-57909797D03*
X134336529Y-57909797D03*
X131796529Y-57909797D03*
X129256529Y-57909797D03*
D20*
X125336529Y-56131797D03*
X125336529Y-53779797D03*
X125336529Y-51239797D03*
X125336529Y-48699797D03*
X125336529Y-46159797D03*
X125336529Y-43619797D03*
X125336529Y-41079797D03*
X125336529Y-38539797D03*
X125336529Y-35999797D03*
G04 #@! TD*
D12*
G04 #@! TO.C,GP7*
X167509057Y-80743062D03*
D13*
X167922677Y-80670130D03*
D14*
X168652642Y-84349267D03*
X168732316Y-77948185D03*
D15*
X172925500Y-79787997D03*
D14*
X173958707Y-85647603D03*
X174544779Y-74344107D03*
D13*
X177928323Y-78905864D03*
D12*
X178341943Y-78832932D03*
D22*
X165456941Y-84912755D03*
D23*
X165236249Y-78564636D03*
D22*
X177154407Y-85084112D03*
D23*
X178040846Y-73727656D03*
G04 #@! TD*
D19*
G04 #@! TO.C,H3*
X41673529Y-136890997D03*
G04 #@! TD*
D18*
G04 #@! TO.C,GP1*
X177022681Y-43792822D03*
X170522681Y-43792822D03*
X177022681Y-39292822D03*
X170522681Y-39292822D03*
G04 #@! TD*
D12*
G04 #@! TO.C,GP13*
X71082468Y-78971761D03*
D13*
X71496088Y-79044693D03*
D14*
X70923692Y-82751614D03*
X73187860Y-76763815D03*
D15*
X76498911Y-79926826D03*
D14*
X75465704Y-85786432D03*
X79882455Y-75365069D03*
D13*
X81501734Y-80808959D03*
D12*
X81915354Y-80881891D03*
D16*
X67727990Y-82188126D03*
D17*
X69691792Y-76147364D03*
D16*
X78661406Y-86349918D03*
D17*
X83378523Y-75981520D03*
G04 #@! TD*
D12*
G04 #@! TO.C,GP9*
X151282086Y-125846062D03*
D13*
X151695706Y-125773130D03*
D14*
X152425671Y-129452267D03*
X152505345Y-123051185D03*
D15*
X156698529Y-124890997D03*
D14*
X157731736Y-130750603D03*
X158317808Y-119447107D03*
D13*
X161701352Y-124008864D03*
D12*
X162114972Y-123935932D03*
D22*
X149229970Y-130015755D03*
D23*
X149009278Y-123667636D03*
D22*
X160927436Y-130187112D03*
D23*
X161813875Y-118830656D03*
G04 #@! TD*
D19*
G04 #@! TO.C,H4*
X226923529Y-136890997D03*
G04 #@! TD*
G04 #@! TO.C,H4*
X134298529Y-136890997D03*
G04 #@! TD*
D18*
G04 #@! TO.C,GP2*
X189022681Y-43792822D03*
X182522681Y-43792822D03*
X189022681Y-39292822D03*
X182522681Y-39292822D03*
G04 #@! TD*
D12*
G04 #@! TO.C,GP10*
X106677794Y-123935932D03*
D13*
X107091414Y-124008864D03*
D14*
X106519018Y-127715785D03*
X108783186Y-121727986D03*
D15*
X112094237Y-124890997D03*
D14*
X111061030Y-130750603D03*
X115477781Y-120329240D03*
D13*
X117097060Y-125773130D03*
D12*
X117510680Y-125846062D03*
D16*
X103323316Y-127152297D03*
D17*
X105287118Y-121111535D03*
D16*
X114256732Y-131314089D03*
D17*
X118973849Y-120945691D03*
G04 #@! TD*
D12*
G04 #@! TO.C,GP5*
X208810074Y-81850541D03*
D13*
X209223694Y-81777609D03*
D14*
X209953659Y-85456746D03*
X210033333Y-79055664D03*
D15*
X214226517Y-80895476D03*
D14*
X215259724Y-86755082D03*
X215845796Y-75451586D03*
D13*
X219229340Y-80013343D03*
D12*
X219642960Y-79940411D03*
D22*
X206757958Y-86020234D03*
D23*
X206537266Y-79672115D03*
D22*
X218455424Y-86191591D03*
D23*
X219341863Y-74835135D03*
G04 #@! TD*
D12*
G04 #@! TO.C,GP8*
X149356238Y-87497887D03*
D13*
X149769858Y-87424955D03*
D14*
X150499823Y-91104092D03*
X150579497Y-84703010D03*
D15*
X154772681Y-86542822D03*
D14*
X155805888Y-92402428D03*
X156391960Y-81098932D03*
D13*
X159775504Y-85660689D03*
D12*
X160189124Y-85587757D03*
D22*
X147304122Y-91667580D03*
D23*
X147083430Y-85319461D03*
D22*
X159001588Y-91838937D03*
D23*
X159888027Y-80482481D03*
G04 #@! TD*
D18*
G04 #@! TO.C,GP3*
X201045530Y-43792822D03*
X194545530Y-43792822D03*
X201045530Y-39292821D03*
X194545529Y-39292822D03*
G04 #@! TD*
D12*
G04 #@! TO.C,GP12*
X90450824Y-78832932D03*
D13*
X90864444Y-78905864D03*
D14*
X90292048Y-82612785D03*
X92556216Y-76624986D03*
D15*
X95867267Y-79787997D03*
D14*
X94834060Y-85647603D03*
X99250811Y-75226240D03*
D13*
X100870090Y-80670130D03*
D12*
X101283710Y-80743062D03*
D16*
X87096346Y-82049297D03*
D17*
X89060148Y-76008535D03*
D16*
X98029762Y-86211089D03*
D17*
X102746879Y-75842691D03*
G04 #@! TD*
D12*
G04 #@! TO.C,GP14*
X49149807Y-79940411D03*
D13*
X49563427Y-80013343D03*
D14*
X48991031Y-83720264D03*
X51255199Y-77732465D03*
D15*
X54566250Y-80895476D03*
D14*
X53533043Y-86755082D03*
X57949794Y-76333719D03*
D13*
X59569073Y-81777609D03*
D12*
X59982693Y-81850541D03*
D16*
X45795329Y-83156776D03*
D17*
X47759131Y-77116014D03*
D16*
X56728745Y-87318568D03*
D17*
X61445862Y-76950170D03*
G04 #@! TD*
D12*
G04 #@! TO.C,GP11*
X108603643Y-85587757D03*
D13*
X109017263Y-85660689D03*
D14*
X108444867Y-89367610D03*
X110709035Y-83379811D03*
D15*
X114020086Y-86542822D03*
D14*
X112986879Y-92402428D03*
X117403630Y-81981065D03*
D13*
X119022909Y-87424955D03*
D12*
X119436529Y-87497887D03*
D16*
X105249165Y-88804122D03*
D17*
X107212967Y-82763360D03*
D16*
X116182581Y-92965914D03*
D17*
X120899698Y-82597516D03*
G04 #@! TD*
D18*
G04 #@! TO.C,GP0*
X165022681Y-43792822D03*
X158522681Y-43792822D03*
X165022681Y-39292822D03*
X158522681Y-39292822D03*
G04 #@! TD*
G04 #@! TO.C,GP28*
X98270086Y-43792822D03*
X91770086Y-43792822D03*
X98270086Y-39292822D03*
X91770086Y-39292822D03*
G04 #@! TD*
D12*
G04 #@! TO.C,GP4*
X206881935Y-59945065D03*
D13*
X207295555Y-59872133D03*
D14*
X208025520Y-63551270D03*
X208105194Y-57150188D03*
D15*
X212298378Y-58990000D03*
D14*
X213331585Y-64849606D03*
X213917657Y-53546110D03*
D13*
X217301201Y-58107867D03*
D12*
X217714821Y-58034935D03*
D22*
X204829819Y-64114758D03*
D23*
X204609127Y-57766639D03*
D22*
X216527285Y-64286115D03*
D23*
X217413724Y-52929659D03*
G04 #@! TD*
D12*
G04 #@! TO.C,GP6*
X186877413Y-80881891D03*
D13*
X187291033Y-80808959D03*
D14*
X188020998Y-84488096D03*
X188100672Y-78087014D03*
D15*
X192293856Y-79926826D03*
D14*
X193327063Y-85786432D03*
X193913135Y-74482936D03*
D13*
X197296679Y-79044693D03*
D12*
X197710299Y-78971761D03*
D22*
X184825297Y-85051584D03*
D23*
X184604605Y-78703465D03*
D22*
X196522763Y-85222941D03*
D23*
X197409202Y-73866485D03*
G04 #@! TD*
D19*
G04 #@! TO.C,H1*
X41673529Y-39340997D03*
G04 #@! TD*
D18*
G04 #@! TO.C,GP26*
X74270086Y-43792822D03*
X67770086Y-43792822D03*
X74270086Y-39292821D03*
X67770085Y-39292822D03*
G04 #@! TD*
%LPD*%
M02*
