G04 #@! TF.GenerationSoftware,KiCad,Pcbnew,9.0.2-rc1*
G04 #@! TF.CreationDate,2025-07-21T22:58:39+09:00*
G04 #@! TF.ProjectId,MAXCON-zero,4d415843-4f4e-42d7-9a65-726f2e6b6963,rev?*
G04 #@! TF.SameCoordinates,Original*
G04 #@! TF.FileFunction,Legend,Top*
G04 #@! TF.FilePolarity,Positive*
%FSLAX46Y46*%
G04 Gerber Fmt 4.6, Leading zero omitted, Abs format (unit mm)*
G04 Created by KiCad (PCBNEW 9.0.2-rc1) date 2025-07-21 22:58:39*
%MOMM*%
%LPD*%
G01*
G04 APERTURE LIST*
%ADD10C,0.150000*%
%ADD11C,0.120000*%
%ADD12C,1.700000*%
%ADD13C,1.750000*%
%ADD14C,3.000000*%
%ADD15C,5.060000*%
%ADD16C,2.000000*%
%ADD17C,3.500000*%
G04 APERTURE END LIST*
D10*
X59633190Y-90619392D02*
X59164234Y-90536703D01*
X59164234Y-90536703D02*
X59337882Y-89551895D01*
X59922833Y-90622110D02*
X60055251Y-90693813D01*
X60055251Y-90693813D02*
X60289729Y-90735158D01*
X60289729Y-90735158D02*
X60391789Y-90704800D01*
X60391789Y-90704800D02*
X60446954Y-90666173D01*
X60446954Y-90666173D02*
X60510387Y-90580651D01*
X60510387Y-90580651D02*
X60526925Y-90486860D01*
X60526925Y-90486860D02*
X60496567Y-90384800D01*
X60496567Y-90384800D02*
X60457941Y-90329635D01*
X60457941Y-90329635D02*
X60372419Y-90266202D01*
X60372419Y-90266202D02*
X60193105Y-90186230D01*
X60193105Y-90186230D02*
X60107583Y-90122797D01*
X60107583Y-90122797D02*
X60068956Y-90067632D01*
X60068956Y-90067632D02*
X60038598Y-89965572D01*
X60038598Y-89965572D02*
X60055136Y-89871781D01*
X60055136Y-89871781D02*
X60118570Y-89786258D01*
X60118570Y-89786258D02*
X60173735Y-89747632D01*
X60173735Y-89747632D02*
X60275795Y-89717274D01*
X60275795Y-89717274D02*
X60510273Y-89758619D01*
X60510273Y-89758619D02*
X60642691Y-89830321D01*
X61318600Y-90384685D02*
X60990330Y-90326802D01*
X60899372Y-90842654D02*
X61073020Y-89857846D01*
X61073020Y-89857846D02*
X61541976Y-89940536D01*
X61776454Y-89981881D02*
X62339202Y-90081108D01*
X61884180Y-91016302D02*
X62057828Y-90031495D01*
X81409686Y-89466187D02*
X81878642Y-89548877D01*
X81266281Y-89731023D02*
X81768199Y-88804098D01*
X81768199Y-88804098D02*
X81922820Y-89846789D01*
X161260576Y-47712181D02*
X160927243Y-47712181D01*
X160927243Y-48235991D02*
X160927243Y-47235991D01*
X160927243Y-47235991D02*
X161403433Y-47235991D01*
X161784386Y-48235991D02*
X161784386Y-47235991D01*
X161784386Y-47235991D02*
X162355814Y-48235991D01*
X162355814Y-48235991D02*
X162355814Y-47235991D01*
X118632624Y-96719427D02*
X118806272Y-95734619D01*
X118806272Y-95734619D02*
X119040750Y-95775964D01*
X119040750Y-95775964D02*
X119173168Y-95847666D01*
X119173168Y-95847666D02*
X119250422Y-95957995D01*
X119250422Y-95957995D02*
X119280779Y-96060055D01*
X119280779Y-96060055D02*
X119294599Y-96255907D01*
X119294599Y-96255907D02*
X119269792Y-96396594D01*
X119269792Y-96396594D02*
X119189821Y-96575907D01*
X119189821Y-96575907D02*
X119126387Y-96661429D01*
X119126387Y-96661429D02*
X119016058Y-96738683D01*
X119016058Y-96738683D02*
X118867102Y-96760771D01*
X118867102Y-96760771D02*
X118632624Y-96719427D01*
X94760195Y-47734006D02*
X94426862Y-47734006D01*
X94426862Y-48257816D02*
X94426862Y-47257816D01*
X94426862Y-47257816D02*
X94903052Y-47257816D01*
X95807814Y-48257816D02*
X95236386Y-48257816D01*
X95522100Y-48257816D02*
X95522100Y-47257816D01*
X95522100Y-47257816D02*
X95426862Y-47400673D01*
X95426862Y-47400673D02*
X95331624Y-47495911D01*
X95331624Y-47495911D02*
X95236386Y-47543530D01*
X100321446Y-89692397D02*
X100453864Y-89764099D01*
X100453864Y-89764099D02*
X100688342Y-89805444D01*
X100688342Y-89805444D02*
X100790402Y-89775086D01*
X100790402Y-89775086D02*
X100845566Y-89736459D01*
X100845566Y-89736459D02*
X100909000Y-89650937D01*
X100909000Y-89650937D02*
X100925538Y-89557146D01*
X100925538Y-89557146D02*
X100895180Y-89455086D01*
X100895180Y-89455086D02*
X100856554Y-89399921D01*
X100856554Y-89399921D02*
X100771031Y-89336488D01*
X100771031Y-89336488D02*
X100591718Y-89256516D01*
X100591718Y-89256516D02*
X100506196Y-89193083D01*
X100506196Y-89193083D02*
X100467569Y-89137918D01*
X100467569Y-89137918D02*
X100437211Y-89035858D01*
X100437211Y-89035858D02*
X100453749Y-88942067D01*
X100453749Y-88942067D02*
X100517183Y-88856545D01*
X100517183Y-88856545D02*
X100572347Y-88817918D01*
X100572347Y-88817918D02*
X100674407Y-88787560D01*
X100674407Y-88787560D02*
X100908885Y-88828905D01*
X100908885Y-88828905D02*
X101041303Y-88900608D01*
X166850613Y-131933954D02*
X166863017Y-132004298D01*
X166863017Y-132004298D02*
X166817480Y-132157388D01*
X166817480Y-132157388D02*
X166759540Y-132240135D01*
X171666862Y-48188372D02*
X171809719Y-48235991D01*
X171809719Y-48235991D02*
X172047814Y-48235991D01*
X172047814Y-48235991D02*
X172143052Y-48188372D01*
X172143052Y-48188372D02*
X172190671Y-48140752D01*
X172190671Y-48140752D02*
X172238290Y-48045514D01*
X172238290Y-48045514D02*
X172238290Y-47950276D01*
X172238290Y-47950276D02*
X172190671Y-47855038D01*
X172190671Y-47855038D02*
X172143052Y-47807419D01*
X172143052Y-47807419D02*
X172047814Y-47759800D01*
X172047814Y-47759800D02*
X171857338Y-47712181D01*
X171857338Y-47712181D02*
X171762100Y-47664562D01*
X171762100Y-47664562D02*
X171714481Y-47616943D01*
X171714481Y-47616943D02*
X171666862Y-47521705D01*
X171666862Y-47521705D02*
X171666862Y-47426467D01*
X171666862Y-47426467D02*
X171714481Y-47331229D01*
X171714481Y-47331229D02*
X171762100Y-47283610D01*
X171762100Y-47283610D02*
X171857338Y-47235991D01*
X171857338Y-47235991D02*
X172095433Y-47235991D01*
X172095433Y-47235991D02*
X172238290Y-47283610D01*
X172666862Y-48235991D02*
X172666862Y-47235991D01*
X172666862Y-47235991D02*
X173047814Y-47235991D01*
X173047814Y-47235991D02*
X173143052Y-47283610D01*
X173143052Y-47283610D02*
X173190671Y-47331229D01*
X173190671Y-47331229D02*
X173238290Y-47426467D01*
X173238290Y-47426467D02*
X173238290Y-47569324D01*
X173238290Y-47569324D02*
X173190671Y-47664562D01*
X173190671Y-47664562D02*
X173143052Y-47712181D01*
X173143052Y-47712181D02*
X173047814Y-47759800D01*
X173047814Y-47759800D02*
X172666862Y-47759800D01*
X173619243Y-47950276D02*
X174095433Y-47950276D01*
X173524005Y-48235991D02*
X173857338Y-47235991D01*
X173857338Y-47235991D02*
X174190671Y-48235991D01*
X175095433Y-48140752D02*
X175047814Y-48188372D01*
X175047814Y-48188372D02*
X174904957Y-48235991D01*
X174904957Y-48235991D02*
X174809719Y-48235991D01*
X174809719Y-48235991D02*
X174666862Y-48188372D01*
X174666862Y-48188372D02*
X174571624Y-48093133D01*
X174571624Y-48093133D02*
X174524005Y-47997895D01*
X174524005Y-47997895D02*
X174476386Y-47807419D01*
X174476386Y-47807419D02*
X174476386Y-47664562D01*
X174476386Y-47664562D02*
X174524005Y-47474086D01*
X174524005Y-47474086D02*
X174571624Y-47378848D01*
X174571624Y-47378848D02*
X174666862Y-47283610D01*
X174666862Y-47283610D02*
X174809719Y-47235991D01*
X174809719Y-47235991D02*
X174904957Y-47235991D01*
X174904957Y-47235991D02*
X175047814Y-47283610D01*
X175047814Y-47283610D02*
X175095433Y-47331229D01*
X175524005Y-47712181D02*
X175857338Y-47712181D01*
X176000195Y-48235991D02*
X175524005Y-48235991D01*
X175524005Y-48235991D02*
X175524005Y-47235991D01*
X175524005Y-47235991D02*
X176000195Y-47235991D01*
X70995243Y-48235990D02*
X70423815Y-48235990D01*
X70709529Y-48235990D02*
X70709529Y-47235990D01*
X70709529Y-47235990D02*
X70614291Y-47378847D01*
X70614291Y-47378847D02*
X70519053Y-47474085D01*
X70519053Y-47474085D02*
X70423815Y-47521704D01*
X118915909Y-134748863D02*
X118860745Y-134787490D01*
X118860745Y-134787490D02*
X118711789Y-134809578D01*
X118711789Y-134809578D02*
X118617998Y-134793040D01*
X118617998Y-134793040D02*
X118485580Y-134721338D01*
X118485580Y-134721338D02*
X118408327Y-134611009D01*
X118408327Y-134611009D02*
X118377969Y-134508949D01*
X118377969Y-134508949D02*
X118364149Y-134313097D01*
X118364149Y-134313097D02*
X118388956Y-134172410D01*
X118388956Y-134172410D02*
X118468928Y-133993097D01*
X118468928Y-133993097D02*
X118532361Y-133907575D01*
X118532361Y-133907575D02*
X118642690Y-133830321D01*
X118642690Y-133830321D02*
X118791646Y-133808233D01*
X118791646Y-133808233D02*
X118885437Y-133824770D01*
X118885437Y-133824770D02*
X119017855Y-133896473D01*
X119017855Y-133896473D02*
X119056482Y-133951638D01*
X200178544Y-86359086D02*
X200087471Y-86665267D01*
X106166481Y-48235991D02*
X106166481Y-47235991D01*
X106166481Y-47235991D02*
X106404576Y-47235991D01*
X106404576Y-47235991D02*
X106547433Y-47283610D01*
X106547433Y-47283610D02*
X106642671Y-47378848D01*
X106642671Y-47378848D02*
X106690290Y-47474086D01*
X106690290Y-47474086D02*
X106737909Y-47664562D01*
X106737909Y-47664562D02*
X106737909Y-47807419D01*
X106737909Y-47807419D02*
X106690290Y-47997895D01*
X106690290Y-47997895D02*
X106642671Y-48093133D01*
X106642671Y-48093133D02*
X106547433Y-48188372D01*
X106547433Y-48188372D02*
X106404576Y-48235991D01*
X106404576Y-48235991D02*
X106166481Y-48235991D01*
X107166481Y-47712181D02*
X107499814Y-47712181D01*
X107642671Y-48235991D02*
X107166481Y-48235991D01*
X107166481Y-48235991D02*
X107166481Y-47235991D01*
X107166481Y-47235991D02*
X107642671Y-47235991D01*
X108547433Y-48235991D02*
X108071243Y-48235991D01*
X108071243Y-48235991D02*
X108071243Y-47235991D01*
X196519053Y-47712181D02*
X196852386Y-47712181D01*
X196995243Y-48235991D02*
X196519053Y-48235991D01*
X196519053Y-48235991D02*
X196519053Y-47235991D01*
X196519053Y-47235991D02*
X196995243Y-47235991D01*
X197376196Y-48188372D02*
X197519053Y-48235991D01*
X197519053Y-48235991D02*
X197757148Y-48235991D01*
X197757148Y-48235991D02*
X197852386Y-48188372D01*
X197852386Y-48188372D02*
X197900005Y-48140752D01*
X197900005Y-48140752D02*
X197947624Y-48045514D01*
X197947624Y-48045514D02*
X197947624Y-47950276D01*
X197947624Y-47950276D02*
X197900005Y-47855038D01*
X197900005Y-47855038D02*
X197852386Y-47807419D01*
X197852386Y-47807419D02*
X197757148Y-47759800D01*
X197757148Y-47759800D02*
X197566672Y-47712181D01*
X197566672Y-47712181D02*
X197471434Y-47664562D01*
X197471434Y-47664562D02*
X197423815Y-47616943D01*
X197423815Y-47616943D02*
X197376196Y-47521705D01*
X197376196Y-47521705D02*
X197376196Y-47426467D01*
X197376196Y-47426467D02*
X197423815Y-47331229D01*
X197423815Y-47331229D02*
X197471434Y-47283610D01*
X197471434Y-47283610D02*
X197566672Y-47235991D01*
X197566672Y-47235991D02*
X197804767Y-47235991D01*
X197804767Y-47235991D02*
X197947624Y-47283610D01*
X198947624Y-48140752D02*
X198900005Y-48188372D01*
X198900005Y-48188372D02*
X198757148Y-48235991D01*
X198757148Y-48235991D02*
X198661910Y-48235991D01*
X198661910Y-48235991D02*
X198519053Y-48188372D01*
X198519053Y-48188372D02*
X198423815Y-48093133D01*
X198423815Y-48093133D02*
X198376196Y-47997895D01*
X198376196Y-47997895D02*
X198328577Y-47807419D01*
X198328577Y-47807419D02*
X198328577Y-47664562D01*
X198328577Y-47664562D02*
X198376196Y-47474086D01*
X198376196Y-47474086D02*
X198423815Y-47378848D01*
X198423815Y-47378848D02*
X198519053Y-47283610D01*
X198519053Y-47283610D02*
X198661910Y-47235991D01*
X198661910Y-47235991D02*
X198757148Y-47235991D01*
X198757148Y-47235991D02*
X198900005Y-47283610D01*
X198900005Y-47283610D02*
X198947624Y-47331229D01*
X163041328Y-93663158D02*
X162572372Y-93745847D01*
X162572372Y-93745847D02*
X162398724Y-92761039D01*
X60742174Y-68462282D02*
X60915822Y-67477474D01*
X60915822Y-67477474D02*
X61150300Y-67518819D01*
X61150300Y-67518819D02*
X61282718Y-67590522D01*
X61282718Y-67590522D02*
X61359971Y-67700851D01*
X61359971Y-67700851D02*
X61390329Y-67802911D01*
X61390329Y-67802911D02*
X61404149Y-67998762D01*
X61404149Y-67998762D02*
X61379342Y-68139449D01*
X61379342Y-68139449D02*
X61299371Y-68318763D01*
X61299371Y-68318763D02*
X61235937Y-68404285D01*
X61235937Y-68404285D02*
X61125608Y-68481538D01*
X61125608Y-68481538D02*
X60976652Y-68503627D01*
X60976652Y-68503627D02*
X60742174Y-68462282D01*
X62088212Y-67684198D02*
X62275795Y-67717274D01*
X62275795Y-67717274D02*
X62361317Y-67780708D01*
X62361317Y-67780708D02*
X62438570Y-67891037D01*
X62438570Y-67891037D02*
X62452390Y-68086888D01*
X62452390Y-68086888D02*
X62394507Y-68415157D01*
X62394507Y-68415157D02*
X62314536Y-68594471D01*
X62314536Y-68594471D02*
X62204207Y-68671724D01*
X62204207Y-68671724D02*
X62102147Y-68702082D01*
X62102147Y-68702082D02*
X61914564Y-68669006D01*
X61914564Y-68669006D02*
X61829042Y-68605572D01*
X61829042Y-68605572D02*
X61751789Y-68495243D01*
X61751789Y-68495243D02*
X61737969Y-68299392D01*
X61737969Y-68299392D02*
X61795852Y-67971123D01*
X61795852Y-67971123D02*
X61875823Y-67791809D01*
X61875823Y-67791809D02*
X61986152Y-67714556D01*
X61986152Y-67714556D02*
X62088212Y-67684198D01*
X62838542Y-67816502D02*
X62899372Y-68842654D01*
X62899372Y-68842654D02*
X63210989Y-68172296D01*
X63210989Y-68172296D02*
X63274537Y-68908806D01*
X63274537Y-68908806D02*
X63682663Y-67965343D01*
X63884180Y-69016302D02*
X64057828Y-68031495D01*
X64057828Y-68031495D02*
X64446927Y-69115530D01*
X64446927Y-69115530D02*
X64620575Y-68130722D01*
X221719147Y-88298419D02*
X221308188Y-87887346D01*
X221156400Y-88397647D02*
X220982752Y-87412839D01*
X220982752Y-87412839D02*
X221357917Y-87346688D01*
X221357917Y-87346688D02*
X221459977Y-87377045D01*
X221459977Y-87377045D02*
X221515141Y-87415672D01*
X221515141Y-87415672D02*
X221578575Y-87501194D01*
X221578575Y-87501194D02*
X221603382Y-87641881D01*
X221603382Y-87641881D02*
X221573024Y-87743941D01*
X221573024Y-87743941D02*
X221534398Y-87799106D01*
X221534398Y-87799106D02*
X221448875Y-87862539D01*
X221448875Y-87862539D02*
X221073710Y-87928691D01*
X222086043Y-88185372D02*
X222234999Y-88207461D01*
X222234999Y-88207461D02*
X222469477Y-88166116D01*
X222469477Y-88166116D02*
X222554999Y-88102683D01*
X222554999Y-88102683D02*
X222593626Y-88047518D01*
X222593626Y-88047518D02*
X222623984Y-87945458D01*
X222623984Y-87945458D02*
X222607446Y-87851667D01*
X222607446Y-87851667D02*
X222544012Y-87766144D01*
X222544012Y-87766144D02*
X222488848Y-87727518D01*
X222488848Y-87727518D02*
X222386787Y-87697160D01*
X222386787Y-87697160D02*
X222190936Y-87683340D01*
X222190936Y-87683340D02*
X222088876Y-87652983D01*
X222088876Y-87652983D02*
X222033711Y-87614356D01*
X222033711Y-87614356D02*
X221970278Y-87528834D01*
X221970278Y-87528834D02*
X221953740Y-87435042D01*
X221953740Y-87435042D02*
X221984098Y-87332982D01*
X221984098Y-87332982D02*
X222022724Y-87277818D01*
X222022724Y-87277818D02*
X222108246Y-87214384D01*
X222108246Y-87214384D02*
X222342724Y-87173039D01*
X222342724Y-87173039D02*
X222491680Y-87195128D01*
X223316431Y-87484885D02*
X222988161Y-87542768D01*
X223079120Y-88058620D02*
X222905472Y-87073812D01*
X222905472Y-87073812D02*
X223374428Y-86991122D01*
X223608906Y-86949777D02*
X224171653Y-86850550D01*
X224063928Y-87884971D02*
X223890280Y-86900164D01*
X219025589Y-66128754D02*
X219353859Y-66070871D01*
X219585504Y-66561916D02*
X219116548Y-66644606D01*
X219116548Y-66644606D02*
X218942900Y-65659798D01*
X218942900Y-65659798D02*
X219411856Y-65577108D01*
X220007565Y-66487495D02*
X219833916Y-65502688D01*
X219833916Y-65502688D02*
X220570312Y-66388268D01*
X220570312Y-66388268D02*
X220396664Y-65403460D01*
X220724933Y-65345577D02*
X221287680Y-65246350D01*
X221179955Y-66280771D02*
X221006306Y-65295964D01*
X221698639Y-65657423D02*
X222026908Y-65599540D01*
X222258554Y-66090585D02*
X221789598Y-66173275D01*
X221789598Y-66173275D02*
X221615950Y-65188467D01*
X221615950Y-65188467D02*
X222084906Y-65105777D01*
X223243362Y-65916937D02*
X222832403Y-65505864D01*
X222680614Y-66016165D02*
X222506966Y-65031357D01*
X222506966Y-65031357D02*
X222882131Y-64965205D01*
X222882131Y-64965205D02*
X222984191Y-64995563D01*
X222984191Y-64995563D02*
X223039356Y-65034189D01*
X223039356Y-65034189D02*
X223102789Y-65119712D01*
X223102789Y-65119712D02*
X223127596Y-65260399D01*
X223127596Y-65260399D02*
X223097239Y-65362459D01*
X223097239Y-65362459D02*
X223058612Y-65417623D01*
X223058612Y-65417623D02*
X222973090Y-65481057D01*
X222973090Y-65481057D02*
X222597925Y-65547208D01*
X82615815Y-47331229D02*
X82663434Y-47283610D01*
X82663434Y-47283610D02*
X82758672Y-47235991D01*
X82758672Y-47235991D02*
X82996767Y-47235991D01*
X82996767Y-47235991D02*
X83092005Y-47283610D01*
X83092005Y-47283610D02*
X83139624Y-47331229D01*
X83139624Y-47331229D02*
X83187243Y-47426467D01*
X83187243Y-47426467D02*
X83187243Y-47521705D01*
X83187243Y-47521705D02*
X83139624Y-47664562D01*
X83139624Y-47664562D02*
X82568196Y-48235991D01*
X82568196Y-48235991D02*
X83187243Y-48235991D01*
X181122613Y-87257954D02*
X181135017Y-87328298D01*
X181135017Y-87328298D02*
X181089480Y-87481388D01*
X181089480Y-87481388D02*
X181031540Y-87564135D01*
X180903429Y-86426237D02*
X180986175Y-86484177D01*
X180986175Y-86484177D02*
X180928235Y-86566924D01*
X180928235Y-86566924D02*
X180845489Y-86508984D01*
X180845489Y-86508984D02*
X180903429Y-86426237D01*
X180903429Y-86426237D02*
X180928235Y-86566924D01*
X185112767Y-47712181D02*
X185255624Y-47759800D01*
X185255624Y-47759800D02*
X185303243Y-47807419D01*
X185303243Y-47807419D02*
X185350862Y-47902657D01*
X185350862Y-47902657D02*
X185350862Y-48045514D01*
X185350862Y-48045514D02*
X185303243Y-48140752D01*
X185303243Y-48140752D02*
X185255624Y-48188372D01*
X185255624Y-48188372D02*
X185160386Y-48235991D01*
X185160386Y-48235991D02*
X184779434Y-48235991D01*
X184779434Y-48235991D02*
X184779434Y-47235991D01*
X184779434Y-47235991D02*
X185112767Y-47235991D01*
X185112767Y-47235991D02*
X185208005Y-47283610D01*
X185208005Y-47283610D02*
X185255624Y-47331229D01*
X185255624Y-47331229D02*
X185303243Y-47426467D01*
X185303243Y-47426467D02*
X185303243Y-47521705D01*
X185303243Y-47521705D02*
X185255624Y-47616943D01*
X185255624Y-47616943D02*
X185208005Y-47664562D01*
X185208005Y-47664562D02*
X185112767Y-47712181D01*
X185112767Y-47712181D02*
X184779434Y-47712181D01*
X185731815Y-48188372D02*
X185874672Y-48235991D01*
X185874672Y-48235991D02*
X186112767Y-48235991D01*
X186112767Y-48235991D02*
X186208005Y-48188372D01*
X186208005Y-48188372D02*
X186255624Y-48140752D01*
X186255624Y-48140752D02*
X186303243Y-48045514D01*
X186303243Y-48045514D02*
X186303243Y-47950276D01*
X186303243Y-47950276D02*
X186255624Y-47855038D01*
X186255624Y-47855038D02*
X186208005Y-47807419D01*
X186208005Y-47807419D02*
X186112767Y-47759800D01*
X186112767Y-47759800D02*
X185922291Y-47712181D01*
X185922291Y-47712181D02*
X185827053Y-47664562D01*
X185827053Y-47664562D02*
X185779434Y-47616943D01*
X185779434Y-47616943D02*
X185731815Y-47521705D01*
X185731815Y-47521705D02*
X185731815Y-47426467D01*
X185731815Y-47426467D02*
X185779434Y-47331229D01*
X185779434Y-47331229D02*
X185827053Y-47283610D01*
X185827053Y-47283610D02*
X185922291Y-47235991D01*
X185922291Y-47235991D02*
X186160386Y-47235991D01*
X186160386Y-47235991D02*
X186303243Y-47283610D01*
X62587539Y-65644270D02*
X62502017Y-65580836D01*
X62502017Y-65580836D02*
X62361330Y-65556029D01*
X62361330Y-65556029D02*
X62212374Y-65578118D01*
X62212374Y-65578118D02*
X62102045Y-65655371D01*
X62102045Y-65655371D02*
X62038611Y-65740894D01*
X62038611Y-65740894D02*
X61958640Y-65920207D01*
X61958640Y-65920207D02*
X61933833Y-66060894D01*
X61933833Y-66060894D02*
X61947653Y-66256745D01*
X61947653Y-66256745D02*
X61978011Y-66358805D01*
X61978011Y-66358805D02*
X62055264Y-66469135D01*
X62055264Y-66469135D02*
X62187682Y-66540837D01*
X62187682Y-66540837D02*
X62281473Y-66557375D01*
X62281473Y-66557375D02*
X62430429Y-66535286D01*
X62430429Y-66535286D02*
X62485593Y-66496660D01*
X62485593Y-66496660D02*
X62543476Y-66168390D01*
X62543476Y-66168390D02*
X62355894Y-66135314D01*
X62891116Y-66664871D02*
X63064764Y-65680064D01*
X63064764Y-65680064D02*
X63439929Y-65746215D01*
X63439929Y-65746215D02*
X63525451Y-65809649D01*
X63525451Y-65809649D02*
X63564078Y-65864813D01*
X63564078Y-65864813D02*
X63594435Y-65966874D01*
X63594435Y-65966874D02*
X63569629Y-66107560D01*
X63569629Y-66107560D02*
X63506195Y-66193083D01*
X63506195Y-66193083D02*
X63451030Y-66231709D01*
X63451030Y-66231709D02*
X63348970Y-66262067D01*
X63348970Y-66262067D02*
X62973805Y-66195915D01*
X64391775Y-66929478D02*
X63829028Y-66830251D01*
X64110402Y-66879864D02*
X64284050Y-65895057D01*
X64284050Y-65895057D02*
X64165452Y-66019206D01*
X64165452Y-66019206D02*
X64055123Y-66096459D01*
X64055123Y-66096459D02*
X63953062Y-66126817D01*
X65456440Y-66101781D02*
X64987484Y-66019091D01*
X64987484Y-66019091D02*
X64857899Y-66479778D01*
X64857899Y-66479778D02*
X64913063Y-66441152D01*
X64913063Y-66441152D02*
X65015123Y-66410794D01*
X65015123Y-66410794D02*
X65249602Y-66452139D01*
X65249602Y-66452139D02*
X65335124Y-66515572D01*
X65335124Y-66515572D02*
X65373750Y-66570737D01*
X65373750Y-66570737D02*
X65404108Y-66672797D01*
X65404108Y-66672797D02*
X65362763Y-66907275D01*
X65362763Y-66907275D02*
X65299330Y-66992797D01*
X65299330Y-66992797D02*
X65244165Y-67031424D01*
X65244165Y-67031424D02*
X65142105Y-67061782D01*
X65142105Y-67061782D02*
X64907627Y-67020437D01*
X64907627Y-67020437D02*
X64822105Y-66957003D01*
X64822105Y-66957003D02*
X64783478Y-66901839D01*
X81829609Y-45527435D02*
X81734371Y-45479816D01*
X81734371Y-45479816D02*
X81591514Y-45479816D01*
X81591514Y-45479816D02*
X81448657Y-45527435D01*
X81448657Y-45527435D02*
X81353419Y-45622673D01*
X81353419Y-45622673D02*
X81305800Y-45717911D01*
X81305800Y-45717911D02*
X81258181Y-45908387D01*
X81258181Y-45908387D02*
X81258181Y-46051244D01*
X81258181Y-46051244D02*
X81305800Y-46241720D01*
X81305800Y-46241720D02*
X81353419Y-46336958D01*
X81353419Y-46336958D02*
X81448657Y-46432197D01*
X81448657Y-46432197D02*
X81591514Y-46479816D01*
X81591514Y-46479816D02*
X81686752Y-46479816D01*
X81686752Y-46479816D02*
X81829609Y-46432197D01*
X81829609Y-46432197D02*
X81877228Y-46384577D01*
X81877228Y-46384577D02*
X81877228Y-46051244D01*
X81877228Y-46051244D02*
X81686752Y-46051244D01*
X82305800Y-46479816D02*
X82305800Y-45479816D01*
X82305800Y-45479816D02*
X82686752Y-45479816D01*
X82686752Y-45479816D02*
X82781990Y-45527435D01*
X82781990Y-45527435D02*
X82829609Y-45575054D01*
X82829609Y-45575054D02*
X82877228Y-45670292D01*
X82877228Y-45670292D02*
X82877228Y-45813149D01*
X82877228Y-45813149D02*
X82829609Y-45908387D01*
X82829609Y-45908387D02*
X82781990Y-45956006D01*
X82781990Y-45956006D02*
X82686752Y-46003625D01*
X82686752Y-46003625D02*
X82305800Y-46003625D01*
X83258181Y-45575054D02*
X83305800Y-45527435D01*
X83305800Y-45527435D02*
X83401038Y-45479816D01*
X83401038Y-45479816D02*
X83639133Y-45479816D01*
X83639133Y-45479816D02*
X83734371Y-45527435D01*
X83734371Y-45527435D02*
X83781990Y-45575054D01*
X83781990Y-45575054D02*
X83829609Y-45670292D01*
X83829609Y-45670292D02*
X83829609Y-45765530D01*
X83829609Y-45765530D02*
X83781990Y-45908387D01*
X83781990Y-45908387D02*
X83210562Y-46479816D01*
X83210562Y-46479816D02*
X83829609Y-46479816D01*
X84162943Y-45479816D02*
X84829609Y-45479816D01*
X84829609Y-45479816D02*
X84401038Y-46479816D01*
X226237624Y-35345816D02*
X226237624Y-34345816D01*
X226237624Y-34822006D02*
X226809052Y-34822006D01*
X226809052Y-35345816D02*
X226809052Y-34345816D01*
X227237624Y-34441054D02*
X227285243Y-34393435D01*
X227285243Y-34393435D02*
X227380481Y-34345816D01*
X227380481Y-34345816D02*
X227618576Y-34345816D01*
X227618576Y-34345816D02*
X227713814Y-34393435D01*
X227713814Y-34393435D02*
X227761433Y-34441054D01*
X227761433Y-34441054D02*
X227809052Y-34536292D01*
X227809052Y-34536292D02*
X227809052Y-34631530D01*
X227809052Y-34631530D02*
X227761433Y-34774387D01*
X227761433Y-34774387D02*
X227190005Y-35345816D01*
X227190005Y-35345816D02*
X227809052Y-35345816D01*
X133536624Y-84120816D02*
X133536624Y-83120816D01*
X133536624Y-83597006D02*
X134108052Y-83597006D01*
X134108052Y-84120816D02*
X134108052Y-83120816D01*
X135012814Y-83454149D02*
X135012814Y-84120816D01*
X134774719Y-83073197D02*
X134536624Y-83787482D01*
X134536624Y-83787482D02*
X135155671Y-83787482D01*
X105829609Y-45527435D02*
X105734371Y-45479816D01*
X105734371Y-45479816D02*
X105591514Y-45479816D01*
X105591514Y-45479816D02*
X105448657Y-45527435D01*
X105448657Y-45527435D02*
X105353419Y-45622673D01*
X105353419Y-45622673D02*
X105305800Y-45717911D01*
X105305800Y-45717911D02*
X105258181Y-45908387D01*
X105258181Y-45908387D02*
X105258181Y-46051244D01*
X105258181Y-46051244D02*
X105305800Y-46241720D01*
X105305800Y-46241720D02*
X105353419Y-46336958D01*
X105353419Y-46336958D02*
X105448657Y-46432197D01*
X105448657Y-46432197D02*
X105591514Y-46479816D01*
X105591514Y-46479816D02*
X105686752Y-46479816D01*
X105686752Y-46479816D02*
X105829609Y-46432197D01*
X105829609Y-46432197D02*
X105877228Y-46384577D01*
X105877228Y-46384577D02*
X105877228Y-46051244D01*
X105877228Y-46051244D02*
X105686752Y-46051244D01*
X106305800Y-46479816D02*
X106305800Y-45479816D01*
X106305800Y-45479816D02*
X106686752Y-45479816D01*
X106686752Y-45479816D02*
X106781990Y-45527435D01*
X106781990Y-45527435D02*
X106829609Y-45575054D01*
X106829609Y-45575054D02*
X106877228Y-45670292D01*
X106877228Y-45670292D02*
X106877228Y-45813149D01*
X106877228Y-45813149D02*
X106829609Y-45908387D01*
X106829609Y-45908387D02*
X106781990Y-45956006D01*
X106781990Y-45956006D02*
X106686752Y-46003625D01*
X106686752Y-46003625D02*
X106305800Y-46003625D01*
X107258181Y-45575054D02*
X107305800Y-45527435D01*
X107305800Y-45527435D02*
X107401038Y-45479816D01*
X107401038Y-45479816D02*
X107639133Y-45479816D01*
X107639133Y-45479816D02*
X107734371Y-45527435D01*
X107734371Y-45527435D02*
X107781990Y-45575054D01*
X107781990Y-45575054D02*
X107829609Y-45670292D01*
X107829609Y-45670292D02*
X107829609Y-45765530D01*
X107829609Y-45765530D02*
X107781990Y-45908387D01*
X107781990Y-45908387D02*
X107210562Y-46479816D01*
X107210562Y-46479816D02*
X107829609Y-46479816D01*
X108305800Y-46479816D02*
X108496276Y-46479816D01*
X108496276Y-46479816D02*
X108591514Y-46432197D01*
X108591514Y-46432197D02*
X108639133Y-46384577D01*
X108639133Y-46384577D02*
X108734371Y-46241720D01*
X108734371Y-46241720D02*
X108781990Y-46051244D01*
X108781990Y-46051244D02*
X108781990Y-45670292D01*
X108781990Y-45670292D02*
X108734371Y-45575054D01*
X108734371Y-45575054D02*
X108686752Y-45527435D01*
X108686752Y-45527435D02*
X108591514Y-45479816D01*
X108591514Y-45479816D02*
X108401038Y-45479816D01*
X108401038Y-45479816D02*
X108305800Y-45527435D01*
X108305800Y-45527435D02*
X108258181Y-45575054D01*
X108258181Y-45575054D02*
X108210562Y-45670292D01*
X108210562Y-45670292D02*
X108210562Y-45908387D01*
X108210562Y-45908387D02*
X108258181Y-46003625D01*
X108258181Y-46003625D02*
X108305800Y-46051244D01*
X108305800Y-46051244D02*
X108401038Y-46098863D01*
X108401038Y-46098863D02*
X108591514Y-46098863D01*
X108591514Y-46098863D02*
X108686752Y-46051244D01*
X108686752Y-46051244D02*
X108734371Y-46003625D01*
X108734371Y-46003625D02*
X108781990Y-45908387D01*
X180155694Y-84775028D02*
X180053634Y-84744670D01*
X180053634Y-84744670D02*
X179912947Y-84769477D01*
X179912947Y-84769477D02*
X179780529Y-84841180D01*
X179780529Y-84841180D02*
X179703276Y-84951509D01*
X179703276Y-84951509D02*
X179672918Y-85053569D01*
X179672918Y-85053569D02*
X179659099Y-85249420D01*
X179659099Y-85249420D02*
X179683905Y-85390107D01*
X179683905Y-85390107D02*
X179763877Y-85569421D01*
X179763877Y-85569421D02*
X179827310Y-85654943D01*
X179827310Y-85654943D02*
X179937640Y-85732196D01*
X179937640Y-85732196D02*
X180086595Y-85754285D01*
X180086595Y-85754285D02*
X180180387Y-85737747D01*
X180180387Y-85737747D02*
X180312804Y-85666045D01*
X180312804Y-85666045D02*
X180351431Y-85610880D01*
X180351431Y-85610880D02*
X180293548Y-85282611D01*
X180293548Y-85282611D02*
X180105966Y-85315687D01*
X180790029Y-85630251D02*
X180616381Y-84645443D01*
X180616381Y-84645443D02*
X180991546Y-84579291D01*
X180991546Y-84579291D02*
X181093606Y-84609649D01*
X181093606Y-84609649D02*
X181148771Y-84648275D01*
X181148771Y-84648275D02*
X181212204Y-84733798D01*
X181212204Y-84733798D02*
X181237011Y-84874485D01*
X181237011Y-84874485D02*
X181206654Y-84976545D01*
X181206654Y-84976545D02*
X181168027Y-85031709D01*
X181168027Y-85031709D02*
X181082505Y-85095143D01*
X181082505Y-85095143D02*
X180707340Y-85161294D01*
X181507398Y-84488333D02*
X182163936Y-84372567D01*
X182163936Y-84372567D02*
X181915524Y-85431795D01*
X40911624Y-132895816D02*
X40911624Y-131895816D01*
X40911624Y-132372006D02*
X41483052Y-132372006D01*
X41483052Y-132895816D02*
X41483052Y-131895816D01*
X41864005Y-131895816D02*
X42483052Y-131895816D01*
X42483052Y-131895816D02*
X42149719Y-132276768D01*
X42149719Y-132276768D02*
X42292576Y-132276768D01*
X42292576Y-132276768D02*
X42387814Y-132324387D01*
X42387814Y-132324387D02*
X42435433Y-132372006D01*
X42435433Y-132372006D02*
X42483052Y-132467244D01*
X42483052Y-132467244D02*
X42483052Y-132705339D01*
X42483052Y-132705339D02*
X42435433Y-132800577D01*
X42435433Y-132800577D02*
X42387814Y-132848197D01*
X42387814Y-132848197D02*
X42292576Y-132895816D01*
X42292576Y-132895816D02*
X42006862Y-132895816D01*
X42006862Y-132895816D02*
X41911624Y-132848197D01*
X41911624Y-132848197D02*
X41864005Y-132800577D01*
X173058395Y-45527435D02*
X172963157Y-45479816D01*
X172963157Y-45479816D02*
X172820300Y-45479816D01*
X172820300Y-45479816D02*
X172677443Y-45527435D01*
X172677443Y-45527435D02*
X172582205Y-45622673D01*
X172582205Y-45622673D02*
X172534586Y-45717911D01*
X172534586Y-45717911D02*
X172486967Y-45908387D01*
X172486967Y-45908387D02*
X172486967Y-46051244D01*
X172486967Y-46051244D02*
X172534586Y-46241720D01*
X172534586Y-46241720D02*
X172582205Y-46336958D01*
X172582205Y-46336958D02*
X172677443Y-46432197D01*
X172677443Y-46432197D02*
X172820300Y-46479816D01*
X172820300Y-46479816D02*
X172915538Y-46479816D01*
X172915538Y-46479816D02*
X173058395Y-46432197D01*
X173058395Y-46432197D02*
X173106014Y-46384577D01*
X173106014Y-46384577D02*
X173106014Y-46051244D01*
X173106014Y-46051244D02*
X172915538Y-46051244D01*
X173534586Y-46479816D02*
X173534586Y-45479816D01*
X173534586Y-45479816D02*
X173915538Y-45479816D01*
X173915538Y-45479816D02*
X174010776Y-45527435D01*
X174010776Y-45527435D02*
X174058395Y-45575054D01*
X174058395Y-45575054D02*
X174106014Y-45670292D01*
X174106014Y-45670292D02*
X174106014Y-45813149D01*
X174106014Y-45813149D02*
X174058395Y-45908387D01*
X174058395Y-45908387D02*
X174010776Y-45956006D01*
X174010776Y-45956006D02*
X173915538Y-46003625D01*
X173915538Y-46003625D02*
X173534586Y-46003625D01*
X175058395Y-46479816D02*
X174486967Y-46479816D01*
X174772681Y-46479816D02*
X174772681Y-45479816D01*
X174772681Y-45479816D02*
X174677443Y-45622673D01*
X174677443Y-45622673D02*
X174582205Y-45717911D01*
X174582205Y-45717911D02*
X174486967Y-45765530D01*
X81587539Y-86644270D02*
X81502017Y-86580836D01*
X81502017Y-86580836D02*
X81361330Y-86556029D01*
X81361330Y-86556029D02*
X81212374Y-86578118D01*
X81212374Y-86578118D02*
X81102045Y-86655371D01*
X81102045Y-86655371D02*
X81038611Y-86740894D01*
X81038611Y-86740894D02*
X80958640Y-86920207D01*
X80958640Y-86920207D02*
X80933833Y-87060894D01*
X80933833Y-87060894D02*
X80947653Y-87256745D01*
X80947653Y-87256745D02*
X80978011Y-87358805D01*
X80978011Y-87358805D02*
X81055264Y-87469135D01*
X81055264Y-87469135D02*
X81187682Y-87540837D01*
X81187682Y-87540837D02*
X81281473Y-87557375D01*
X81281473Y-87557375D02*
X81430429Y-87535286D01*
X81430429Y-87535286D02*
X81485593Y-87496660D01*
X81485593Y-87496660D02*
X81543476Y-87168390D01*
X81543476Y-87168390D02*
X81355894Y-87135314D01*
X81891116Y-87664871D02*
X82064764Y-86680064D01*
X82064764Y-86680064D02*
X82439929Y-86746215D01*
X82439929Y-86746215D02*
X82525451Y-86809649D01*
X82525451Y-86809649D02*
X82564078Y-86864813D01*
X82564078Y-86864813D02*
X82594435Y-86966874D01*
X82594435Y-86966874D02*
X82569629Y-87107560D01*
X82569629Y-87107560D02*
X82506195Y-87193083D01*
X82506195Y-87193083D02*
X82451030Y-87231709D01*
X82451030Y-87231709D02*
X82348970Y-87262067D01*
X82348970Y-87262067D02*
X81973805Y-87195915D01*
X83391775Y-87929478D02*
X82829028Y-87830251D01*
X83110402Y-87879864D02*
X83284050Y-86895057D01*
X83284050Y-86895057D02*
X83165452Y-87019206D01*
X83165452Y-87019206D02*
X83055123Y-87096459D01*
X83055123Y-87096459D02*
X82953062Y-87126817D01*
X83893693Y-87002553D02*
X84503336Y-87110050D01*
X84503336Y-87110050D02*
X84108915Y-87427332D01*
X84108915Y-87427332D02*
X84249602Y-87452139D01*
X84249602Y-87452139D02*
X84335124Y-87515572D01*
X84335124Y-87515572D02*
X84373750Y-87570737D01*
X84373750Y-87570737D02*
X84404108Y-87672797D01*
X84404108Y-87672797D02*
X84362763Y-87907275D01*
X84362763Y-87907275D02*
X84299330Y-87992797D01*
X84299330Y-87992797D02*
X84244165Y-88031424D01*
X84244165Y-88031424D02*
X84142105Y-88061782D01*
X84142105Y-88061782D02*
X83860731Y-88012168D01*
X83860731Y-88012168D02*
X83775209Y-87948734D01*
X83775209Y-87948734D02*
X83736582Y-87893570D01*
X164883694Y-128975028D02*
X164781634Y-128944670D01*
X164781634Y-128944670D02*
X164640947Y-128969477D01*
X164640947Y-128969477D02*
X164508529Y-129041180D01*
X164508529Y-129041180D02*
X164431276Y-129151509D01*
X164431276Y-129151509D02*
X164400918Y-129253569D01*
X164400918Y-129253569D02*
X164387099Y-129449420D01*
X164387099Y-129449420D02*
X164411905Y-129590107D01*
X164411905Y-129590107D02*
X164491877Y-129769421D01*
X164491877Y-129769421D02*
X164555310Y-129854943D01*
X164555310Y-129854943D02*
X164665640Y-129932196D01*
X164665640Y-129932196D02*
X164814595Y-129954285D01*
X164814595Y-129954285D02*
X164908387Y-129937747D01*
X164908387Y-129937747D02*
X165040804Y-129866045D01*
X165040804Y-129866045D02*
X165079431Y-129810880D01*
X165079431Y-129810880D02*
X165021548Y-129482611D01*
X165021548Y-129482611D02*
X164833966Y-129515687D01*
X165518029Y-129830251D02*
X165344381Y-128845443D01*
X165344381Y-128845443D02*
X165719546Y-128779291D01*
X165719546Y-128779291D02*
X165821606Y-128809649D01*
X165821606Y-128809649D02*
X165876771Y-128848275D01*
X165876771Y-128848275D02*
X165940204Y-128933798D01*
X165940204Y-128933798D02*
X165965011Y-129074485D01*
X165965011Y-129074485D02*
X165934654Y-129176545D01*
X165934654Y-129176545D02*
X165896027Y-129231709D01*
X165896027Y-129231709D02*
X165810505Y-129295143D01*
X165810505Y-129295143D02*
X165435340Y-129361294D01*
X166549733Y-129648333D02*
X166737315Y-129615258D01*
X166737315Y-129615258D02*
X166822837Y-129551824D01*
X166822837Y-129551824D02*
X166861464Y-129496659D01*
X166861464Y-129496659D02*
X166930448Y-129339435D01*
X166930448Y-129339435D02*
X166944268Y-129143583D01*
X166944268Y-129143583D02*
X166878117Y-128768418D01*
X166878117Y-128768418D02*
X166814683Y-128682896D01*
X166814683Y-128682896D02*
X166759518Y-128644270D01*
X166759518Y-128644270D02*
X166657458Y-128613912D01*
X166657458Y-128613912D02*
X166469876Y-128646988D01*
X166469876Y-128646988D02*
X166384354Y-128710421D01*
X166384354Y-128710421D02*
X166345727Y-128765586D01*
X166345727Y-128765586D02*
X166315369Y-128867646D01*
X166315369Y-128867646D02*
X166356714Y-129102124D01*
X166356714Y-129102124D02*
X166420148Y-129187646D01*
X166420148Y-129187646D02*
X166475312Y-129226273D01*
X166475312Y-129226273D02*
X166577372Y-129256631D01*
X166577372Y-129256631D02*
X166764955Y-129223555D01*
X166764955Y-129223555D02*
X166850477Y-129160121D01*
X166850477Y-129160121D02*
X166889104Y-129104957D01*
X166889104Y-129104957D02*
X166919461Y-129002897D01*
X226161624Y-132895816D02*
X226161624Y-131895816D01*
X226161624Y-132372006D02*
X226733052Y-132372006D01*
X226733052Y-132895816D02*
X226733052Y-131895816D01*
X227637814Y-132229149D02*
X227637814Y-132895816D01*
X227399719Y-131848197D02*
X227161624Y-132562482D01*
X227161624Y-132562482D02*
X227780671Y-132562482D01*
X133536624Y-132895816D02*
X133536624Y-131895816D01*
X133536624Y-132372006D02*
X134108052Y-132372006D01*
X134108052Y-132895816D02*
X134108052Y-131895816D01*
X135012814Y-132229149D02*
X135012814Y-132895816D01*
X134774719Y-131848197D02*
X134536624Y-132562482D01*
X134536624Y-132562482D02*
X135155671Y-132562482D01*
X185058395Y-45527435D02*
X184963157Y-45479816D01*
X184963157Y-45479816D02*
X184820300Y-45479816D01*
X184820300Y-45479816D02*
X184677443Y-45527435D01*
X184677443Y-45527435D02*
X184582205Y-45622673D01*
X184582205Y-45622673D02*
X184534586Y-45717911D01*
X184534586Y-45717911D02*
X184486967Y-45908387D01*
X184486967Y-45908387D02*
X184486967Y-46051244D01*
X184486967Y-46051244D02*
X184534586Y-46241720D01*
X184534586Y-46241720D02*
X184582205Y-46336958D01*
X184582205Y-46336958D02*
X184677443Y-46432197D01*
X184677443Y-46432197D02*
X184820300Y-46479816D01*
X184820300Y-46479816D02*
X184915538Y-46479816D01*
X184915538Y-46479816D02*
X185058395Y-46432197D01*
X185058395Y-46432197D02*
X185106014Y-46384577D01*
X185106014Y-46384577D02*
X185106014Y-46051244D01*
X185106014Y-46051244D02*
X184915538Y-46051244D01*
X185534586Y-46479816D02*
X185534586Y-45479816D01*
X185534586Y-45479816D02*
X185915538Y-45479816D01*
X185915538Y-45479816D02*
X186010776Y-45527435D01*
X186010776Y-45527435D02*
X186058395Y-45575054D01*
X186058395Y-45575054D02*
X186106014Y-45670292D01*
X186106014Y-45670292D02*
X186106014Y-45813149D01*
X186106014Y-45813149D02*
X186058395Y-45908387D01*
X186058395Y-45908387D02*
X186010776Y-45956006D01*
X186010776Y-45956006D02*
X185915538Y-46003625D01*
X185915538Y-46003625D02*
X185534586Y-46003625D01*
X186486967Y-45575054D02*
X186534586Y-45527435D01*
X186534586Y-45527435D02*
X186629824Y-45479816D01*
X186629824Y-45479816D02*
X186867919Y-45479816D01*
X186867919Y-45479816D02*
X186963157Y-45527435D01*
X186963157Y-45527435D02*
X187010776Y-45575054D01*
X187010776Y-45575054D02*
X187058395Y-45670292D01*
X187058395Y-45670292D02*
X187058395Y-45765530D01*
X187058395Y-45765530D02*
X187010776Y-45908387D01*
X187010776Y-45908387D02*
X186439348Y-46479816D01*
X186439348Y-46479816D02*
X187058395Y-46479816D01*
X118587537Y-131644270D02*
X118502015Y-131580836D01*
X118502015Y-131580836D02*
X118361328Y-131556029D01*
X118361328Y-131556029D02*
X118212372Y-131578118D01*
X118212372Y-131578118D02*
X118102043Y-131655371D01*
X118102043Y-131655371D02*
X118038609Y-131740894D01*
X118038609Y-131740894D02*
X117958638Y-131920207D01*
X117958638Y-131920207D02*
X117933831Y-132060894D01*
X117933831Y-132060894D02*
X117947651Y-132256745D01*
X117947651Y-132256745D02*
X117978009Y-132358805D01*
X117978009Y-132358805D02*
X118055262Y-132469135D01*
X118055262Y-132469135D02*
X118187680Y-132540837D01*
X118187680Y-132540837D02*
X118281471Y-132557375D01*
X118281471Y-132557375D02*
X118430427Y-132535286D01*
X118430427Y-132535286D02*
X118485591Y-132496660D01*
X118485591Y-132496660D02*
X118543474Y-132168390D01*
X118543474Y-132168390D02*
X118355892Y-132135314D01*
X118891114Y-132664871D02*
X119064762Y-131680064D01*
X119064762Y-131680064D02*
X119439927Y-131746215D01*
X119439927Y-131746215D02*
X119525449Y-131809649D01*
X119525449Y-131809649D02*
X119564076Y-131864813D01*
X119564076Y-131864813D02*
X119594433Y-131966874D01*
X119594433Y-131966874D02*
X119569627Y-132107560D01*
X119569627Y-132107560D02*
X119506193Y-132193083D01*
X119506193Y-132193083D02*
X119451028Y-132231709D01*
X119451028Y-132231709D02*
X119348968Y-132262067D01*
X119348968Y-132262067D02*
X118973803Y-132195915D01*
X120391773Y-132929478D02*
X119829026Y-132830251D01*
X120110400Y-132879864D02*
X120284048Y-131895057D01*
X120284048Y-131895057D02*
X120165450Y-132019206D01*
X120165450Y-132019206D02*
X120055121Y-132096459D01*
X120055121Y-132096459D02*
X119953060Y-132126817D01*
X121175064Y-132052167D02*
X121268856Y-132068705D01*
X121268856Y-132068705D02*
X121354378Y-132132138D01*
X121354378Y-132132138D02*
X121393005Y-132187303D01*
X121393005Y-132187303D02*
X121423362Y-132289363D01*
X121423362Y-132289363D02*
X121437182Y-132485214D01*
X121437182Y-132485214D02*
X121395837Y-132719693D01*
X121395837Y-132719693D02*
X121315866Y-132899006D01*
X121315866Y-132899006D02*
X121252432Y-132984528D01*
X121252432Y-132984528D02*
X121197268Y-133023155D01*
X121197268Y-133023155D02*
X121095207Y-133053513D01*
X121095207Y-133053513D02*
X121001416Y-133036975D01*
X121001416Y-133036975D02*
X120915894Y-132973541D01*
X120915894Y-132973541D02*
X120877267Y-132918377D01*
X120877267Y-132918377D02*
X120846910Y-132816316D01*
X120846910Y-132816316D02*
X120833090Y-132620465D01*
X120833090Y-132620465D02*
X120874435Y-132385987D01*
X120874435Y-132385987D02*
X120954406Y-132206673D01*
X120954406Y-132206673D02*
X121017840Y-132121151D01*
X121017840Y-132121151D02*
X121073004Y-132082525D01*
X121073004Y-132082525D02*
X121175064Y-132052167D01*
X222697056Y-84981774D02*
X222594996Y-84951416D01*
X222594996Y-84951416D02*
X222454309Y-84976223D01*
X222454309Y-84976223D02*
X222321891Y-85047926D01*
X222321891Y-85047926D02*
X222244638Y-85158255D01*
X222244638Y-85158255D02*
X222214280Y-85260315D01*
X222214280Y-85260315D02*
X222200461Y-85456166D01*
X222200461Y-85456166D02*
X222225267Y-85596853D01*
X222225267Y-85596853D02*
X222305239Y-85776167D01*
X222305239Y-85776167D02*
X222368672Y-85861689D01*
X222368672Y-85861689D02*
X222479002Y-85938942D01*
X222479002Y-85938942D02*
X222627957Y-85961031D01*
X222627957Y-85961031D02*
X222721749Y-85944493D01*
X222721749Y-85944493D02*
X222854166Y-85872791D01*
X222854166Y-85872791D02*
X222892793Y-85817626D01*
X222892793Y-85817626D02*
X222834910Y-85489357D01*
X222834910Y-85489357D02*
X222647328Y-85522433D01*
X223331391Y-85836997D02*
X223157743Y-84852189D01*
X223157743Y-84852189D02*
X223532908Y-84786037D01*
X223532908Y-84786037D02*
X223634968Y-84816395D01*
X223634968Y-84816395D02*
X223690133Y-84855021D01*
X223690133Y-84855021D02*
X223753566Y-84940544D01*
X223753566Y-84940544D02*
X223778373Y-85081231D01*
X223778373Y-85081231D02*
X223748016Y-85183291D01*
X223748016Y-85183291D02*
X223709389Y-85238455D01*
X223709389Y-85238455D02*
X223623867Y-85301889D01*
X223623867Y-85301889D02*
X223248702Y-85368040D01*
X224611507Y-84595851D02*
X224142551Y-84678541D01*
X224142551Y-84678541D02*
X224178345Y-85155766D01*
X224178345Y-85155766D02*
X224216972Y-85100601D01*
X224216972Y-85100601D02*
X224302494Y-85037168D01*
X224302494Y-85037168D02*
X224536972Y-84995823D01*
X224536972Y-84995823D02*
X224639032Y-85026180D01*
X224639032Y-85026180D02*
X224694197Y-85064807D01*
X224694197Y-85064807D02*
X224757630Y-85150329D01*
X224757630Y-85150329D02*
X224798975Y-85384807D01*
X224798975Y-85384807D02*
X224768617Y-85486868D01*
X224768617Y-85486868D02*
X224729991Y-85542032D01*
X224729991Y-85542032D02*
X224644468Y-85605466D01*
X224644468Y-85605466D02*
X224409990Y-85646810D01*
X224409990Y-85646810D02*
X224307930Y-85616453D01*
X224307930Y-85616453D02*
X224252766Y-85577826D01*
X161883694Y-90975028D02*
X161781634Y-90944670D01*
X161781634Y-90944670D02*
X161640947Y-90969477D01*
X161640947Y-90969477D02*
X161508529Y-91041180D01*
X161508529Y-91041180D02*
X161431276Y-91151509D01*
X161431276Y-91151509D02*
X161400918Y-91253569D01*
X161400918Y-91253569D02*
X161387099Y-91449420D01*
X161387099Y-91449420D02*
X161411905Y-91590107D01*
X161411905Y-91590107D02*
X161491877Y-91769421D01*
X161491877Y-91769421D02*
X161555310Y-91854943D01*
X161555310Y-91854943D02*
X161665640Y-91932196D01*
X161665640Y-91932196D02*
X161814595Y-91954285D01*
X161814595Y-91954285D02*
X161908387Y-91937747D01*
X161908387Y-91937747D02*
X162040804Y-91866045D01*
X162040804Y-91866045D02*
X162079431Y-91810880D01*
X162079431Y-91810880D02*
X162021548Y-91482611D01*
X162021548Y-91482611D02*
X161833966Y-91515687D01*
X162518029Y-91830251D02*
X162344381Y-90845443D01*
X162344381Y-90845443D02*
X162719546Y-90779291D01*
X162719546Y-90779291D02*
X162821606Y-90809649D01*
X162821606Y-90809649D02*
X162876771Y-90848275D01*
X162876771Y-90848275D02*
X162940204Y-90933798D01*
X162940204Y-90933798D02*
X162965011Y-91074485D01*
X162965011Y-91074485D02*
X162934654Y-91176545D01*
X162934654Y-91176545D02*
X162896027Y-91231709D01*
X162896027Y-91231709D02*
X162810505Y-91295143D01*
X162810505Y-91295143D02*
X162435340Y-91361294D01*
X163544296Y-91069048D02*
X163442236Y-91038691D01*
X163442236Y-91038691D02*
X163387072Y-91000064D01*
X163387072Y-91000064D02*
X163323638Y-90914542D01*
X163323638Y-90914542D02*
X163315369Y-90867646D01*
X163315369Y-90867646D02*
X163345727Y-90765586D01*
X163345727Y-90765586D02*
X163384354Y-90710421D01*
X163384354Y-90710421D02*
X163469876Y-90646988D01*
X163469876Y-90646988D02*
X163657458Y-90613912D01*
X163657458Y-90613912D02*
X163759518Y-90644270D01*
X163759518Y-90644270D02*
X163814683Y-90682896D01*
X163814683Y-90682896D02*
X163878117Y-90768418D01*
X163878117Y-90768418D02*
X163886385Y-90815314D01*
X163886385Y-90815314D02*
X163856028Y-90917374D01*
X163856028Y-90917374D02*
X163817401Y-90972539D01*
X163817401Y-90972539D02*
X163731879Y-91035972D01*
X163731879Y-91035972D02*
X163544296Y-91069048D01*
X163544296Y-91069048D02*
X163458774Y-91132482D01*
X163458774Y-91132482D02*
X163420148Y-91187646D01*
X163420148Y-91187646D02*
X163389790Y-91289706D01*
X163389790Y-91289706D02*
X163422866Y-91477289D01*
X163422866Y-91477289D02*
X163486299Y-91562811D01*
X163486299Y-91562811D02*
X163541464Y-91601438D01*
X163541464Y-91601438D02*
X163643524Y-91631795D01*
X163643524Y-91631795D02*
X163831106Y-91598720D01*
X163831106Y-91598720D02*
X163916629Y-91535286D01*
X163916629Y-91535286D02*
X163955255Y-91480122D01*
X163955255Y-91480122D02*
X163985613Y-91378061D01*
X163985613Y-91378061D02*
X163952537Y-91190479D01*
X163952537Y-91190479D02*
X163889104Y-91104957D01*
X163889104Y-91104957D02*
X163833939Y-91066330D01*
X163833939Y-91066330D02*
X163731879Y-91035972D01*
X197081244Y-45527436D02*
X196986006Y-45479817D01*
X196986006Y-45479817D02*
X196843149Y-45479817D01*
X196843149Y-45479817D02*
X196700292Y-45527436D01*
X196700292Y-45527436D02*
X196605054Y-45622674D01*
X196605054Y-45622674D02*
X196557435Y-45717912D01*
X196557435Y-45717912D02*
X196509816Y-45908388D01*
X196509816Y-45908388D02*
X196509816Y-46051245D01*
X196509816Y-46051245D02*
X196557435Y-46241721D01*
X196557435Y-46241721D02*
X196605054Y-46336959D01*
X196605054Y-46336959D02*
X196700292Y-46432198D01*
X196700292Y-46432198D02*
X196843149Y-46479817D01*
X196843149Y-46479817D02*
X196938387Y-46479817D01*
X196938387Y-46479817D02*
X197081244Y-46432198D01*
X197081244Y-46432198D02*
X197128863Y-46384578D01*
X197128863Y-46384578D02*
X197128863Y-46051245D01*
X197128863Y-46051245D02*
X196938387Y-46051245D01*
X197557435Y-46479817D02*
X197557435Y-45479817D01*
X197557435Y-45479817D02*
X197938387Y-45479817D01*
X197938387Y-45479817D02*
X198033625Y-45527436D01*
X198033625Y-45527436D02*
X198081244Y-45575055D01*
X198081244Y-45575055D02*
X198128863Y-45670293D01*
X198128863Y-45670293D02*
X198128863Y-45813150D01*
X198128863Y-45813150D02*
X198081244Y-45908388D01*
X198081244Y-45908388D02*
X198033625Y-45956007D01*
X198033625Y-45956007D02*
X197938387Y-46003626D01*
X197938387Y-46003626D02*
X197557435Y-46003626D01*
X198462197Y-45479817D02*
X199081244Y-45479817D01*
X199081244Y-45479817D02*
X198747911Y-45860769D01*
X198747911Y-45860769D02*
X198890768Y-45860769D01*
X198890768Y-45860769D02*
X198986006Y-45908388D01*
X198986006Y-45908388D02*
X199033625Y-45956007D01*
X199033625Y-45956007D02*
X199081244Y-46051245D01*
X199081244Y-46051245D02*
X199081244Y-46289340D01*
X199081244Y-46289340D02*
X199033625Y-46384578D01*
X199033625Y-46384578D02*
X198986006Y-46432198D01*
X198986006Y-46432198D02*
X198890768Y-46479817D01*
X198890768Y-46479817D02*
X198605054Y-46479817D01*
X198605054Y-46479817D02*
X198509816Y-46432198D01*
X198509816Y-46432198D02*
X198462197Y-46384578D01*
X100587539Y-86644270D02*
X100502017Y-86580836D01*
X100502017Y-86580836D02*
X100361330Y-86556029D01*
X100361330Y-86556029D02*
X100212374Y-86578118D01*
X100212374Y-86578118D02*
X100102045Y-86655371D01*
X100102045Y-86655371D02*
X100038611Y-86740894D01*
X100038611Y-86740894D02*
X99958640Y-86920207D01*
X99958640Y-86920207D02*
X99933833Y-87060894D01*
X99933833Y-87060894D02*
X99947653Y-87256745D01*
X99947653Y-87256745D02*
X99978011Y-87358805D01*
X99978011Y-87358805D02*
X100055264Y-87469135D01*
X100055264Y-87469135D02*
X100187682Y-87540837D01*
X100187682Y-87540837D02*
X100281473Y-87557375D01*
X100281473Y-87557375D02*
X100430429Y-87535286D01*
X100430429Y-87535286D02*
X100485593Y-87496660D01*
X100485593Y-87496660D02*
X100543476Y-87168390D01*
X100543476Y-87168390D02*
X100355894Y-87135314D01*
X100891116Y-87664871D02*
X101064764Y-86680064D01*
X101064764Y-86680064D02*
X101439929Y-86746215D01*
X101439929Y-86746215D02*
X101525451Y-86809649D01*
X101525451Y-86809649D02*
X101564078Y-86864813D01*
X101564078Y-86864813D02*
X101594435Y-86966874D01*
X101594435Y-86966874D02*
X101569629Y-87107560D01*
X101569629Y-87107560D02*
X101506195Y-87193083D01*
X101506195Y-87193083D02*
X101451030Y-87231709D01*
X101451030Y-87231709D02*
X101348970Y-87262067D01*
X101348970Y-87262067D02*
X100973805Y-87195915D01*
X102391775Y-87929478D02*
X101829028Y-87830251D01*
X102110402Y-87879864D02*
X102284050Y-86895057D01*
X102284050Y-86895057D02*
X102165452Y-87019206D01*
X102165452Y-87019206D02*
X102055123Y-87096459D01*
X102055123Y-87096459D02*
X101953062Y-87126817D01*
X102924050Y-87104613D02*
X102979215Y-87065987D01*
X102979215Y-87065987D02*
X103081275Y-87035629D01*
X103081275Y-87035629D02*
X103315753Y-87076974D01*
X103315753Y-87076974D02*
X103401275Y-87140407D01*
X103401275Y-87140407D02*
X103439902Y-87195572D01*
X103439902Y-87195572D02*
X103470260Y-87297632D01*
X103470260Y-87297632D02*
X103453722Y-87391423D01*
X103453722Y-87391423D02*
X103382019Y-87523841D01*
X103382019Y-87523841D02*
X102720045Y-87987361D01*
X102720045Y-87987361D02*
X103329687Y-88094857D01*
X60659400Y-87549746D02*
X60573878Y-87486312D01*
X60573878Y-87486312D02*
X60433191Y-87461505D01*
X60433191Y-87461505D02*
X60284235Y-87483594D01*
X60284235Y-87483594D02*
X60173906Y-87560847D01*
X60173906Y-87560847D02*
X60110472Y-87646370D01*
X60110472Y-87646370D02*
X60030501Y-87825683D01*
X60030501Y-87825683D02*
X60005694Y-87966370D01*
X60005694Y-87966370D02*
X60019514Y-88162221D01*
X60019514Y-88162221D02*
X60049872Y-88264281D01*
X60049872Y-88264281D02*
X60127125Y-88374611D01*
X60127125Y-88374611D02*
X60259543Y-88446313D01*
X60259543Y-88446313D02*
X60353334Y-88462851D01*
X60353334Y-88462851D02*
X60502290Y-88440762D01*
X60502290Y-88440762D02*
X60557454Y-88402136D01*
X60557454Y-88402136D02*
X60615337Y-88073866D01*
X60615337Y-88073866D02*
X60427755Y-88040790D01*
X60962977Y-88570347D02*
X61136625Y-87585540D01*
X61136625Y-87585540D02*
X61511790Y-87651691D01*
X61511790Y-87651691D02*
X61597312Y-87715125D01*
X61597312Y-87715125D02*
X61635939Y-87770289D01*
X61635939Y-87770289D02*
X61666296Y-87872350D01*
X61666296Y-87872350D02*
X61641490Y-88013036D01*
X61641490Y-88013036D02*
X61578056Y-88098559D01*
X61578056Y-88098559D02*
X61522891Y-88137185D01*
X61522891Y-88137185D02*
X61420831Y-88167543D01*
X61420831Y-88167543D02*
X61045666Y-88101391D01*
X62463636Y-88834954D02*
X61900889Y-88735727D01*
X62182263Y-88785340D02*
X62355911Y-87800533D01*
X62355911Y-87800533D02*
X62237313Y-87924682D01*
X62237313Y-87924682D02*
X62126984Y-88001935D01*
X62126984Y-88001935D02*
X62024923Y-88032293D01*
X63423523Y-88327257D02*
X63307757Y-88983795D01*
X63255196Y-87910747D02*
X62896684Y-88572837D01*
X62896684Y-88572837D02*
X63506327Y-88680333D01*
X118899539Y-93588270D02*
X118814017Y-93524836D01*
X118814017Y-93524836D02*
X118673330Y-93500029D01*
X118673330Y-93500029D02*
X118524374Y-93522118D01*
X118524374Y-93522118D02*
X118414045Y-93599371D01*
X118414045Y-93599371D02*
X118350611Y-93684894D01*
X118350611Y-93684894D02*
X118270640Y-93864207D01*
X118270640Y-93864207D02*
X118245833Y-94004894D01*
X118245833Y-94004894D02*
X118259653Y-94200745D01*
X118259653Y-94200745D02*
X118290011Y-94302805D01*
X118290011Y-94302805D02*
X118367264Y-94413135D01*
X118367264Y-94413135D02*
X118499682Y-94484837D01*
X118499682Y-94484837D02*
X118593473Y-94501375D01*
X118593473Y-94501375D02*
X118742429Y-94479286D01*
X118742429Y-94479286D02*
X118797593Y-94440660D01*
X118797593Y-94440660D02*
X118855476Y-94112390D01*
X118855476Y-94112390D02*
X118667894Y-94079314D01*
X119203116Y-94608871D02*
X119376764Y-93624064D01*
X119376764Y-93624064D02*
X119751929Y-93690215D01*
X119751929Y-93690215D02*
X119837451Y-93753649D01*
X119837451Y-93753649D02*
X119876078Y-93808813D01*
X119876078Y-93808813D02*
X119906435Y-93910874D01*
X119906435Y-93910874D02*
X119881629Y-94051560D01*
X119881629Y-94051560D02*
X119818195Y-94137083D01*
X119818195Y-94137083D02*
X119763030Y-94175709D01*
X119763030Y-94175709D02*
X119660970Y-94206067D01*
X119660970Y-94206067D02*
X119285805Y-94139915D01*
X120703775Y-94873478D02*
X120141028Y-94774251D01*
X120422402Y-94823864D02*
X120596050Y-93839057D01*
X120596050Y-93839057D02*
X120477452Y-93963206D01*
X120477452Y-93963206D02*
X120367123Y-94040459D01*
X120367123Y-94040459D02*
X120265062Y-94070817D01*
X121641687Y-95038857D02*
X121078940Y-94939630D01*
X121360314Y-94989244D02*
X121533962Y-94004436D01*
X121533962Y-94004436D02*
X121415364Y-94128585D01*
X121415364Y-94128585D02*
X121305035Y-94205838D01*
X121305035Y-94205838D02*
X121202975Y-94236196D01*
X161058395Y-45527435D02*
X160963157Y-45479816D01*
X160963157Y-45479816D02*
X160820300Y-45479816D01*
X160820300Y-45479816D02*
X160677443Y-45527435D01*
X160677443Y-45527435D02*
X160582205Y-45622673D01*
X160582205Y-45622673D02*
X160534586Y-45717911D01*
X160534586Y-45717911D02*
X160486967Y-45908387D01*
X160486967Y-45908387D02*
X160486967Y-46051244D01*
X160486967Y-46051244D02*
X160534586Y-46241720D01*
X160534586Y-46241720D02*
X160582205Y-46336958D01*
X160582205Y-46336958D02*
X160677443Y-46432197D01*
X160677443Y-46432197D02*
X160820300Y-46479816D01*
X160820300Y-46479816D02*
X160915538Y-46479816D01*
X160915538Y-46479816D02*
X161058395Y-46432197D01*
X161058395Y-46432197D02*
X161106014Y-46384577D01*
X161106014Y-46384577D02*
X161106014Y-46051244D01*
X161106014Y-46051244D02*
X160915538Y-46051244D01*
X161534586Y-46479816D02*
X161534586Y-45479816D01*
X161534586Y-45479816D02*
X161915538Y-45479816D01*
X161915538Y-45479816D02*
X162010776Y-45527435D01*
X162010776Y-45527435D02*
X162058395Y-45575054D01*
X162058395Y-45575054D02*
X162106014Y-45670292D01*
X162106014Y-45670292D02*
X162106014Y-45813149D01*
X162106014Y-45813149D02*
X162058395Y-45908387D01*
X162058395Y-45908387D02*
X162010776Y-45956006D01*
X162010776Y-45956006D02*
X161915538Y-46003625D01*
X161915538Y-46003625D02*
X161534586Y-46003625D01*
X162725062Y-45479816D02*
X162820300Y-45479816D01*
X162820300Y-45479816D02*
X162915538Y-45527435D01*
X162915538Y-45527435D02*
X162963157Y-45575054D01*
X162963157Y-45575054D02*
X163010776Y-45670292D01*
X163010776Y-45670292D02*
X163058395Y-45860768D01*
X163058395Y-45860768D02*
X163058395Y-46098863D01*
X163058395Y-46098863D02*
X163010776Y-46289339D01*
X163010776Y-46289339D02*
X162963157Y-46384577D01*
X162963157Y-46384577D02*
X162915538Y-46432197D01*
X162915538Y-46432197D02*
X162820300Y-46479816D01*
X162820300Y-46479816D02*
X162725062Y-46479816D01*
X162725062Y-46479816D02*
X162629824Y-46432197D01*
X162629824Y-46432197D02*
X162582205Y-46384577D01*
X162582205Y-46384577D02*
X162534586Y-46289339D01*
X162534586Y-46289339D02*
X162486967Y-46098863D01*
X162486967Y-46098863D02*
X162486967Y-45860768D01*
X162486967Y-45860768D02*
X162534586Y-45670292D01*
X162534586Y-45670292D02*
X162582205Y-45575054D01*
X162582205Y-45575054D02*
X162629824Y-45527435D01*
X162629824Y-45527435D02*
X162725062Y-45479816D01*
X93829609Y-45527435D02*
X93734371Y-45479816D01*
X93734371Y-45479816D02*
X93591514Y-45479816D01*
X93591514Y-45479816D02*
X93448657Y-45527435D01*
X93448657Y-45527435D02*
X93353419Y-45622673D01*
X93353419Y-45622673D02*
X93305800Y-45717911D01*
X93305800Y-45717911D02*
X93258181Y-45908387D01*
X93258181Y-45908387D02*
X93258181Y-46051244D01*
X93258181Y-46051244D02*
X93305800Y-46241720D01*
X93305800Y-46241720D02*
X93353419Y-46336958D01*
X93353419Y-46336958D02*
X93448657Y-46432197D01*
X93448657Y-46432197D02*
X93591514Y-46479816D01*
X93591514Y-46479816D02*
X93686752Y-46479816D01*
X93686752Y-46479816D02*
X93829609Y-46432197D01*
X93829609Y-46432197D02*
X93877228Y-46384577D01*
X93877228Y-46384577D02*
X93877228Y-46051244D01*
X93877228Y-46051244D02*
X93686752Y-46051244D01*
X94305800Y-46479816D02*
X94305800Y-45479816D01*
X94305800Y-45479816D02*
X94686752Y-45479816D01*
X94686752Y-45479816D02*
X94781990Y-45527435D01*
X94781990Y-45527435D02*
X94829609Y-45575054D01*
X94829609Y-45575054D02*
X94877228Y-45670292D01*
X94877228Y-45670292D02*
X94877228Y-45813149D01*
X94877228Y-45813149D02*
X94829609Y-45908387D01*
X94829609Y-45908387D02*
X94781990Y-45956006D01*
X94781990Y-45956006D02*
X94686752Y-46003625D01*
X94686752Y-46003625D02*
X94305800Y-46003625D01*
X95258181Y-45575054D02*
X95305800Y-45527435D01*
X95305800Y-45527435D02*
X95401038Y-45479816D01*
X95401038Y-45479816D02*
X95639133Y-45479816D01*
X95639133Y-45479816D02*
X95734371Y-45527435D01*
X95734371Y-45527435D02*
X95781990Y-45575054D01*
X95781990Y-45575054D02*
X95829609Y-45670292D01*
X95829609Y-45670292D02*
X95829609Y-45765530D01*
X95829609Y-45765530D02*
X95781990Y-45908387D01*
X95781990Y-45908387D02*
X95210562Y-46479816D01*
X95210562Y-46479816D02*
X95829609Y-46479816D01*
X96401038Y-45908387D02*
X96305800Y-45860768D01*
X96305800Y-45860768D02*
X96258181Y-45813149D01*
X96258181Y-45813149D02*
X96210562Y-45717911D01*
X96210562Y-45717911D02*
X96210562Y-45670292D01*
X96210562Y-45670292D02*
X96258181Y-45575054D01*
X96258181Y-45575054D02*
X96305800Y-45527435D01*
X96305800Y-45527435D02*
X96401038Y-45479816D01*
X96401038Y-45479816D02*
X96591514Y-45479816D01*
X96591514Y-45479816D02*
X96686752Y-45527435D01*
X96686752Y-45527435D02*
X96734371Y-45575054D01*
X96734371Y-45575054D02*
X96781990Y-45670292D01*
X96781990Y-45670292D02*
X96781990Y-45717911D01*
X96781990Y-45717911D02*
X96734371Y-45813149D01*
X96734371Y-45813149D02*
X96686752Y-45860768D01*
X96686752Y-45860768D02*
X96591514Y-45908387D01*
X96591514Y-45908387D02*
X96401038Y-45908387D01*
X96401038Y-45908387D02*
X96305800Y-45956006D01*
X96305800Y-45956006D02*
X96258181Y-46003625D01*
X96258181Y-46003625D02*
X96210562Y-46098863D01*
X96210562Y-46098863D02*
X96210562Y-46289339D01*
X96210562Y-46289339D02*
X96258181Y-46384577D01*
X96258181Y-46384577D02*
X96305800Y-46432197D01*
X96305800Y-46432197D02*
X96401038Y-46479816D01*
X96401038Y-46479816D02*
X96591514Y-46479816D01*
X96591514Y-46479816D02*
X96686752Y-46432197D01*
X96686752Y-46432197D02*
X96734371Y-46384577D01*
X96734371Y-46384577D02*
X96781990Y-46289339D01*
X96781990Y-46289339D02*
X96781990Y-46098863D01*
X96781990Y-46098863D02*
X96734371Y-46003625D01*
X96734371Y-46003625D02*
X96686752Y-45956006D01*
X96686752Y-45956006D02*
X96591514Y-45908387D01*
X220768917Y-63076298D02*
X220666857Y-63045940D01*
X220666857Y-63045940D02*
X220526170Y-63070747D01*
X220526170Y-63070747D02*
X220393752Y-63142450D01*
X220393752Y-63142450D02*
X220316499Y-63252779D01*
X220316499Y-63252779D02*
X220286141Y-63354839D01*
X220286141Y-63354839D02*
X220272322Y-63550690D01*
X220272322Y-63550690D02*
X220297128Y-63691377D01*
X220297128Y-63691377D02*
X220377100Y-63870691D01*
X220377100Y-63870691D02*
X220440533Y-63956213D01*
X220440533Y-63956213D02*
X220550863Y-64033466D01*
X220550863Y-64033466D02*
X220699818Y-64055555D01*
X220699818Y-64055555D02*
X220793610Y-64039017D01*
X220793610Y-64039017D02*
X220926027Y-63967315D01*
X220926027Y-63967315D02*
X220964654Y-63912150D01*
X220964654Y-63912150D02*
X220906771Y-63583881D01*
X220906771Y-63583881D02*
X220719189Y-63616957D01*
X221403252Y-63931521D02*
X221229604Y-62946713D01*
X221229604Y-62946713D02*
X221604769Y-62880561D01*
X221604769Y-62880561D02*
X221706829Y-62910919D01*
X221706829Y-62910919D02*
X221761994Y-62949545D01*
X221761994Y-62949545D02*
X221825427Y-63035068D01*
X221825427Y-63035068D02*
X221850234Y-63175755D01*
X221850234Y-63175755D02*
X221819877Y-63277815D01*
X221819877Y-63277815D02*
X221781250Y-63332979D01*
X221781250Y-63332979D02*
X221695728Y-63396413D01*
X221695728Y-63396413D02*
X221320563Y-63462564D01*
X222694355Y-63026913D02*
X222810121Y-63683452D01*
X222393725Y-62693093D02*
X222283282Y-63437872D01*
X222283282Y-63437872D02*
X222892925Y-63330376D01*
X199459694Y-84775028D02*
X199357634Y-84744670D01*
X199357634Y-84744670D02*
X199216947Y-84769477D01*
X199216947Y-84769477D02*
X199084529Y-84841180D01*
X199084529Y-84841180D02*
X199007276Y-84951509D01*
X199007276Y-84951509D02*
X198976918Y-85053569D01*
X198976918Y-85053569D02*
X198963099Y-85249420D01*
X198963099Y-85249420D02*
X198987905Y-85390107D01*
X198987905Y-85390107D02*
X199067877Y-85569421D01*
X199067877Y-85569421D02*
X199131310Y-85654943D01*
X199131310Y-85654943D02*
X199241640Y-85732196D01*
X199241640Y-85732196D02*
X199390595Y-85754285D01*
X199390595Y-85754285D02*
X199484387Y-85737747D01*
X199484387Y-85737747D02*
X199616804Y-85666045D01*
X199616804Y-85666045D02*
X199655431Y-85610880D01*
X199655431Y-85610880D02*
X199597548Y-85282611D01*
X199597548Y-85282611D02*
X199409966Y-85315687D01*
X200094029Y-85630251D02*
X199920381Y-84645443D01*
X199920381Y-84645443D02*
X200295546Y-84579291D01*
X200295546Y-84579291D02*
X200397606Y-84609649D01*
X200397606Y-84609649D02*
X200452771Y-84648275D01*
X200452771Y-84648275D02*
X200516204Y-84733798D01*
X200516204Y-84733798D02*
X200541011Y-84874485D01*
X200541011Y-84874485D02*
X200510654Y-84976545D01*
X200510654Y-84976545D02*
X200472027Y-85031709D01*
X200472027Y-85031709D02*
X200386505Y-85095143D01*
X200386505Y-85095143D02*
X200011340Y-85161294D01*
X201327249Y-84397374D02*
X201139667Y-84430450D01*
X201139667Y-84430450D02*
X201054145Y-84493883D01*
X201054145Y-84493883D02*
X201015518Y-84549048D01*
X201015518Y-84549048D02*
X200946534Y-84706273D01*
X200946534Y-84706273D02*
X200932714Y-84902124D01*
X200932714Y-84902124D02*
X200998866Y-85277289D01*
X200998866Y-85277289D02*
X201062299Y-85362811D01*
X201062299Y-85362811D02*
X201117464Y-85401438D01*
X201117464Y-85401438D02*
X201219524Y-85431795D01*
X201219524Y-85431795D02*
X201407106Y-85398720D01*
X201407106Y-85398720D02*
X201492629Y-85335286D01*
X201492629Y-85335286D02*
X201531255Y-85280122D01*
X201531255Y-85280122D02*
X201561613Y-85178061D01*
X201561613Y-85178061D02*
X201520268Y-84943583D01*
X201520268Y-84943583D02*
X201456835Y-84858061D01*
X201456835Y-84858061D02*
X201401670Y-84819434D01*
X201401670Y-84819434D02*
X201299610Y-84789077D01*
X201299610Y-84789077D02*
X201112028Y-84822153D01*
X201112028Y-84822153D02*
X201026505Y-84885586D01*
X201026505Y-84885586D02*
X200987879Y-84940751D01*
X200987879Y-84940751D02*
X200957521Y-85042811D01*
X40911624Y-35345816D02*
X40911624Y-34345816D01*
X40911624Y-34822006D02*
X41483052Y-34822006D01*
X41483052Y-35345816D02*
X41483052Y-34345816D01*
X42483052Y-35345816D02*
X41911624Y-35345816D01*
X42197338Y-35345816D02*
X42197338Y-34345816D01*
X42197338Y-34345816D02*
X42102100Y-34488673D01*
X42102100Y-34488673D02*
X42006862Y-34583911D01*
X42006862Y-34583911D02*
X41911624Y-34631530D01*
X69829609Y-45527435D02*
X69734371Y-45479816D01*
X69734371Y-45479816D02*
X69591514Y-45479816D01*
X69591514Y-45479816D02*
X69448657Y-45527435D01*
X69448657Y-45527435D02*
X69353419Y-45622673D01*
X69353419Y-45622673D02*
X69305800Y-45717911D01*
X69305800Y-45717911D02*
X69258181Y-45908387D01*
X69258181Y-45908387D02*
X69258181Y-46051244D01*
X69258181Y-46051244D02*
X69305800Y-46241720D01*
X69305800Y-46241720D02*
X69353419Y-46336958D01*
X69353419Y-46336958D02*
X69448657Y-46432197D01*
X69448657Y-46432197D02*
X69591514Y-46479816D01*
X69591514Y-46479816D02*
X69686752Y-46479816D01*
X69686752Y-46479816D02*
X69829609Y-46432197D01*
X69829609Y-46432197D02*
X69877228Y-46384577D01*
X69877228Y-46384577D02*
X69877228Y-46051244D01*
X69877228Y-46051244D02*
X69686752Y-46051244D01*
X70305800Y-46479816D02*
X70305800Y-45479816D01*
X70305800Y-45479816D02*
X70686752Y-45479816D01*
X70686752Y-45479816D02*
X70781990Y-45527435D01*
X70781990Y-45527435D02*
X70829609Y-45575054D01*
X70829609Y-45575054D02*
X70877228Y-45670292D01*
X70877228Y-45670292D02*
X70877228Y-45813149D01*
X70877228Y-45813149D02*
X70829609Y-45908387D01*
X70829609Y-45908387D02*
X70781990Y-45956006D01*
X70781990Y-45956006D02*
X70686752Y-46003625D01*
X70686752Y-46003625D02*
X70305800Y-46003625D01*
X71258181Y-45575054D02*
X71305800Y-45527435D01*
X71305800Y-45527435D02*
X71401038Y-45479816D01*
X71401038Y-45479816D02*
X71639133Y-45479816D01*
X71639133Y-45479816D02*
X71734371Y-45527435D01*
X71734371Y-45527435D02*
X71781990Y-45575054D01*
X71781990Y-45575054D02*
X71829609Y-45670292D01*
X71829609Y-45670292D02*
X71829609Y-45765530D01*
X71829609Y-45765530D02*
X71781990Y-45908387D01*
X71781990Y-45908387D02*
X71210562Y-46479816D01*
X71210562Y-46479816D02*
X71829609Y-46479816D01*
X72686752Y-45479816D02*
X72496276Y-45479816D01*
X72496276Y-45479816D02*
X72401038Y-45527435D01*
X72401038Y-45527435D02*
X72353419Y-45575054D01*
X72353419Y-45575054D02*
X72258181Y-45717911D01*
X72258181Y-45717911D02*
X72210562Y-45908387D01*
X72210562Y-45908387D02*
X72210562Y-46289339D01*
X72210562Y-46289339D02*
X72258181Y-46384577D01*
X72258181Y-46384577D02*
X72305800Y-46432197D01*
X72305800Y-46432197D02*
X72401038Y-46479816D01*
X72401038Y-46479816D02*
X72591514Y-46479816D01*
X72591514Y-46479816D02*
X72686752Y-46432197D01*
X72686752Y-46432197D02*
X72734371Y-46384577D01*
X72734371Y-46384577D02*
X72781990Y-46289339D01*
X72781990Y-46289339D02*
X72781990Y-46051244D01*
X72781990Y-46051244D02*
X72734371Y-45956006D01*
X72734371Y-45956006D02*
X72686752Y-45908387D01*
X72686752Y-45908387D02*
X72591514Y-45860768D01*
X72591514Y-45860768D02*
X72401038Y-45860768D01*
X72401038Y-45860768D02*
X72305800Y-45908387D01*
X72305800Y-45908387D02*
X72258181Y-45956006D01*
X72258181Y-45956006D02*
X72210562Y-46051244D01*
D11*
G04 #@! TO.C,GP27*
X79520086Y-40792822D02*
X79520086Y-42292822D01*
X80770086Y-44792822D02*
X85270086Y-44792822D01*
X85270086Y-38292822D02*
X80770086Y-38292822D01*
X86520086Y-42292822D02*
X86520086Y-40792822D01*
G04 #@! TO.C,GP29*
X103520086Y-40792822D02*
X103520086Y-42292822D01*
X104770086Y-44792822D02*
X109270086Y-44792822D01*
X109270086Y-38292822D02*
X104770086Y-38292822D01*
X110520086Y-42292822D02*
X110520086Y-40792822D01*
G04 #@! TO.C,GP1*
X170272681Y-40792822D02*
X170272681Y-42292822D01*
X171522681Y-44792822D02*
X176022681Y-44792822D01*
X176022681Y-38292822D02*
X171522681Y-38292822D01*
X177272681Y-42292822D02*
X177272681Y-40792822D01*
G04 #@! TO.C,GP2*
X182272681Y-40792822D02*
X182272681Y-42292822D01*
X183522681Y-44792822D02*
X188022681Y-44792822D01*
X188022681Y-38292822D02*
X183522681Y-38292822D01*
X189272681Y-42292822D02*
X189272681Y-40792822D01*
G04 #@! TO.C,GP3*
X194295530Y-40792822D02*
X194295530Y-42292822D01*
X195545530Y-44792822D02*
X200045530Y-44792822D01*
X200045530Y-38292822D02*
X195545530Y-38292822D01*
X201295530Y-42292822D02*
X201295530Y-40792822D01*
G04 #@! TO.C,GP0*
X158272681Y-40792822D02*
X158272681Y-42292822D01*
X159522681Y-44792822D02*
X164022681Y-44792822D01*
X164022681Y-38292822D02*
X159522681Y-38292822D01*
X165272681Y-42292822D02*
X165272681Y-40792822D01*
G04 #@! TO.C,GP28*
X91520086Y-40792822D02*
X91520086Y-42292822D01*
X92770086Y-44792822D02*
X97270086Y-44792822D01*
X97270086Y-38292822D02*
X92770086Y-38292822D01*
X98520086Y-42292822D02*
X98520086Y-40792822D01*
G04 #@! TO.C,GP26*
X67520086Y-40792822D02*
X67520086Y-42292822D01*
X68770086Y-44792822D02*
X73270086Y-44792822D01*
X73270086Y-38292822D02*
X68770086Y-38292822D01*
X74520086Y-42292822D02*
X74520086Y-40792822D01*
G04 #@! TD*
%LPC*%
D12*
G04 #@! TO.C,GP15*
X51077946Y-58034935D03*
D13*
X51491566Y-58107867D03*
D14*
X50919170Y-61814788D03*
X53183338Y-55826989D03*
D15*
X56494389Y-58990000D03*
D14*
X55461182Y-64849606D03*
X59877933Y-54428243D03*
D13*
X61497212Y-59872133D03*
D12*
X61910832Y-59945065D03*
G04 #@! TD*
D16*
G04 #@! TO.C,GP27*
X86270086Y-43792822D03*
X79770086Y-43792822D03*
X86270086Y-39292822D03*
X79770086Y-39292822D03*
G04 #@! TD*
D17*
G04 #@! TO.C,H2*
X226999529Y-39340997D03*
G04 #@! TD*
G04 #@! TO.C,H4*
X134298529Y-88115997D03*
G04 #@! TD*
D16*
G04 #@! TO.C,GP29*
X110270086Y-43792822D03*
X103770086Y-43792822D03*
X110270086Y-39292822D03*
X103770086Y-39292822D03*
G04 #@! TD*
D12*
G04 #@! TO.C,GP7*
X167509057Y-80743062D03*
D13*
X167922677Y-80670130D03*
D14*
X168652642Y-84349267D03*
X168732316Y-77948185D03*
D15*
X172925500Y-79787997D03*
D14*
X173958707Y-85647603D03*
X174544779Y-74344107D03*
D13*
X177928323Y-78905864D03*
D12*
X178341943Y-78832932D03*
G04 #@! TD*
D17*
G04 #@! TO.C,H3*
X41673529Y-136890997D03*
G04 #@! TD*
D16*
G04 #@! TO.C,GP1*
X177022681Y-43792822D03*
X170522681Y-43792822D03*
X177022681Y-39292822D03*
X170522681Y-39292822D03*
G04 #@! TD*
D12*
G04 #@! TO.C,GP13*
X71082468Y-78971761D03*
D13*
X71496088Y-79044693D03*
D14*
X70923692Y-82751614D03*
X73187860Y-76763815D03*
D15*
X76498911Y-79926826D03*
D14*
X75465704Y-85786432D03*
X79882455Y-75365069D03*
D13*
X81501734Y-80808959D03*
D12*
X81915354Y-80881891D03*
G04 #@! TD*
G04 #@! TO.C,GP9*
X151282086Y-125846062D03*
D13*
X151695706Y-125773130D03*
D14*
X152425671Y-129452267D03*
X152505345Y-123051185D03*
D15*
X156698529Y-124890997D03*
D14*
X157731736Y-130750603D03*
X158317808Y-119447107D03*
D13*
X161701352Y-124008864D03*
D12*
X162114972Y-123935932D03*
G04 #@! TD*
D17*
G04 #@! TO.C,H4*
X226923529Y-136890997D03*
G04 #@! TD*
G04 #@! TO.C,H4*
X134298529Y-136890997D03*
G04 #@! TD*
D16*
G04 #@! TO.C,GP2*
X189022681Y-43792822D03*
X182522681Y-43792822D03*
X189022681Y-39292822D03*
X182522681Y-39292822D03*
G04 #@! TD*
D12*
G04 #@! TO.C,GP10*
X106677794Y-123935932D03*
D13*
X107091414Y-124008864D03*
D14*
X106519018Y-127715785D03*
X108783186Y-121727986D03*
D15*
X112094237Y-124890997D03*
D14*
X111061030Y-130750603D03*
X115477781Y-120329240D03*
D13*
X117097060Y-125773130D03*
D12*
X117510680Y-125846062D03*
G04 #@! TD*
G04 #@! TO.C,GP5*
X208810074Y-81850541D03*
D13*
X209223694Y-81777609D03*
D14*
X209953659Y-85456746D03*
X210033333Y-79055664D03*
D15*
X214226517Y-80895476D03*
D14*
X215259724Y-86755082D03*
X215845796Y-75451586D03*
D13*
X219229340Y-80013343D03*
D12*
X219642960Y-79940411D03*
G04 #@! TD*
G04 #@! TO.C,GP8*
X149356238Y-87497887D03*
D13*
X149769858Y-87424955D03*
D14*
X150499823Y-91104092D03*
X150579497Y-84703010D03*
D15*
X154772681Y-86542822D03*
D14*
X155805888Y-92402428D03*
X156391960Y-81098932D03*
D13*
X159775504Y-85660689D03*
D12*
X160189124Y-85587757D03*
G04 #@! TD*
D16*
G04 #@! TO.C,GP3*
X201045530Y-43792822D03*
X194545530Y-43792822D03*
X201045530Y-39292821D03*
X194545529Y-39292822D03*
G04 #@! TD*
D12*
G04 #@! TO.C,GP12*
X90450824Y-78832932D03*
D13*
X90864444Y-78905864D03*
D14*
X90292048Y-82612785D03*
X92556216Y-76624986D03*
D15*
X95867267Y-79787997D03*
D14*
X94834060Y-85647603D03*
X99250811Y-75226240D03*
D13*
X100870090Y-80670130D03*
D12*
X101283710Y-80743062D03*
G04 #@! TD*
G04 #@! TO.C,GP14*
X49149807Y-79940411D03*
D13*
X49563427Y-80013343D03*
D14*
X48991031Y-83720264D03*
X51255199Y-77732465D03*
D15*
X54566250Y-80895476D03*
D14*
X53533043Y-86755082D03*
X57949794Y-76333719D03*
D13*
X59569073Y-81777609D03*
D12*
X59982693Y-81850541D03*
G04 #@! TD*
G04 #@! TO.C,GP11*
X108603643Y-85587757D03*
D13*
X109017263Y-85660689D03*
D14*
X108444867Y-89367610D03*
X110709035Y-83379811D03*
D15*
X114020086Y-86542822D03*
D14*
X112986879Y-92402428D03*
X117403630Y-81981065D03*
D13*
X119022909Y-87424955D03*
D12*
X119436529Y-87497887D03*
G04 #@! TD*
D16*
G04 #@! TO.C,GP0*
X165022681Y-43792822D03*
X158522681Y-43792822D03*
X165022681Y-39292822D03*
X158522681Y-39292822D03*
G04 #@! TD*
G04 #@! TO.C,GP28*
X98270086Y-43792822D03*
X91770086Y-43792822D03*
X98270086Y-39292822D03*
X91770086Y-39292822D03*
G04 #@! TD*
D12*
G04 #@! TO.C,GP4*
X206881935Y-59945065D03*
D13*
X207295555Y-59872133D03*
D14*
X208025520Y-63551270D03*
X208105194Y-57150188D03*
D15*
X212298378Y-58990000D03*
D14*
X213331585Y-64849606D03*
X213917657Y-53546110D03*
D13*
X217301201Y-58107867D03*
D12*
X217714821Y-58034935D03*
G04 #@! TD*
G04 #@! TO.C,GP6*
X186877413Y-80881891D03*
D13*
X187291033Y-80808959D03*
D14*
X188020998Y-84488096D03*
X188100672Y-78087014D03*
D15*
X192293856Y-79926826D03*
D14*
X193327063Y-85786432D03*
X193913135Y-74482936D03*
D13*
X197296679Y-79044693D03*
D12*
X197710299Y-78971761D03*
G04 #@! TD*
D17*
G04 #@! TO.C,H1*
X41673529Y-39340997D03*
G04 #@! TD*
D16*
G04 #@! TO.C,GP26*
X74270086Y-43792822D03*
X67770086Y-43792822D03*
X74270086Y-39292821D03*
X67770085Y-39292822D03*
G04 #@! TD*
%LPD*%
M02*
