M48
; DRILL file {KiCad 9.0.2-rc1} date 2025-07-21T22:58:39+0900
; FORMAT={-:-/ absolute / metric / decimal}
; #@! TF.CreationDate,2025-07-21T22:58:39+09:00
; #@! TF.GenerationSoftware,Kicad,Pcbnew,9.0.2-rc1
; #@! TF.FileFunction,Plated,1,2,PTH
FMAT,2
METRIC
; #@! TA.AperFunction,Plated,PTH,ComponentDrill
T1C1.100
%
G90
G05
T1
X67.77Y-39.293
X67.77Y-43.793
X74.27Y-39.293
X74.27Y-43.793
X79.77Y-39.293
X79.77Y-43.793
X86.27Y-39.293
X86.27Y-43.793
X91.77Y-39.293
X91.77Y-43.793
X98.27Y-39.293
X98.27Y-43.793
X103.77Y-39.293
X103.77Y-43.793
X110.27Y-39.293
X110.27Y-43.793
X158.523Y-39.293
X158.523Y-43.793
X165.023Y-39.293
X165.023Y-43.793
X170.523Y-39.293
X170.523Y-43.793
X177.023Y-39.293
X177.023Y-43.793
X182.523Y-39.293
X182.523Y-43.793
X189.023Y-39.293
X189.023Y-43.793
X194.546Y-39.293
X194.546Y-43.793
X201.046Y-39.293
X201.046Y-43.793
M30
