%TF.GenerationSoftware,KiCad,Pcbnew,9.0.2-rc1*%
%TF.CreationDate,2025-07-21T22:58:39+09:00*%
%TF.ProjectId,MAXCON-zero,4d415843-4f4e-42d7-9a65-726f2e6b6963,rev?*%
%TF.SameCoordinates,Original*%
%TF.FileFunction,Drillmap*%
%TF.FilePolarity,Positive*%
%FSLAX45Y45*%
G04 Gerber Fmt 4.5, Leading zero omitted, Abs format (unit mm)*
G04 Created by KiCad (PCBNEW 9.0.2-rc1) date 2025-07-21 22:58:39*
%MOMM*%
%LPD*%
G01*
G04 APERTURE LIST*
%ADD10C,0.100000*%
%ADD11C,0.200000*%
%ADD12C,0.170000*%
%ADD13C,0.175000*%
%ADD14C,0.300000*%
%ADD15C,0.350000*%
%ADD16C,0.506000*%
G04 APERTURE END LIST*
D10*
X3917353Y-3434100D02*
X12672353Y-3434860D01*
X3667353Y-3684100D02*
X3667353Y-13939100D01*
X23192353Y-13939100D02*
G75*
G02*
X22942353Y-14189103I-250003J0D01*
G01*
X14207452Y-3434860D02*
X14207452Y-5649100D01*
X22942353Y-14189100D02*
X3917353Y-14189100D01*
X3667350Y-3684100D02*
G75*
G02*
X3917353Y-3434100I250000J0D01*
G01*
X12672353Y-3434860D02*
X12672353Y-5649100D01*
X22942353Y-3434100D02*
X14207452Y-3434860D01*
X23192353Y-13939100D02*
X23192353Y-3684100D01*
X22942353Y-3434100D02*
G75*
G02*
X23192350Y-3684100I-3J-250000D01*
G01*
X3917353Y-14189100D02*
G75*
G02*
X3667350Y-13939100I-3J250000D01*
G01*
X12672353Y-5649100D02*
X14207452Y-5649100D01*
D11*
D12*
X4829981Y-7909041D02*
X4999981Y-8079041D01*
X4999981Y-7909041D02*
X4829981Y-8079041D01*
X5022795Y-5718493D02*
X5192795Y-5888493D01*
X5192795Y-5718493D02*
X5022795Y-5888493D01*
X5913269Y-8100054D02*
X6083269Y-8270054D01*
X6083269Y-8100054D02*
X5913269Y-8270054D01*
X6106083Y-5909506D02*
X6276083Y-6079506D01*
X6276083Y-5909506D02*
X6106083Y-6079506D01*
X7023247Y-7812176D02*
X7193247Y-7982176D01*
X7193247Y-7812176D02*
X7023247Y-7982176D01*
X8106535Y-8003189D02*
X8276535Y-8173189D01*
X8276535Y-8003189D02*
X8106535Y-8173189D01*
X8960082Y-7798293D02*
X9130082Y-7968293D01*
X9130082Y-7798293D02*
X8960082Y-7968293D01*
X10043371Y-7989306D02*
X10213371Y-8159306D01*
X10213371Y-7989306D02*
X10043371Y-8159306D01*
X10582779Y-12308593D02*
X10752779Y-12478593D01*
X10752779Y-12308593D02*
X10582779Y-12478593D01*
X10775364Y-8473776D02*
X10945364Y-8643776D01*
X10945364Y-8473776D02*
X10775364Y-8643776D01*
X11666068Y-12499606D02*
X11836068Y-12669606D01*
X11836068Y-12499606D02*
X11666068Y-12669606D01*
X11858653Y-8664789D02*
X12028653Y-8834789D01*
X12028653Y-8664789D02*
X11858653Y-8834789D01*
X14850624Y-8664789D02*
X15020624Y-8834789D01*
X15020624Y-8664789D02*
X14850624Y-8834789D01*
X15043209Y-12499606D02*
X15213209Y-12669606D01*
X15213209Y-12499606D02*
X15043209Y-12669606D01*
X15933912Y-8473776D02*
X16103912Y-8643776D01*
X16103912Y-8473776D02*
X15933912Y-8643776D01*
X16126497Y-12308593D02*
X16296497Y-12478593D01*
X16296497Y-12308593D02*
X16126497Y-12478593D01*
X16665906Y-7989306D02*
X16835906Y-8159306D01*
X16835906Y-7989306D02*
X16665906Y-8159306D01*
X17749194Y-7798293D02*
X17919194Y-7968293D01*
X17919194Y-7798293D02*
X17749194Y-7968293D01*
X18602741Y-8003189D02*
X18772741Y-8173189D01*
X18772741Y-8003189D02*
X18602741Y-8173189D01*
X19686030Y-7812176D02*
X19856030Y-7982176D01*
X19856030Y-7812176D02*
X19686030Y-7982176D01*
X20603194Y-5909506D02*
X20773194Y-6079506D01*
X20773194Y-5909506D02*
X20603194Y-6079506D01*
X20796007Y-8100054D02*
X20966007Y-8270054D01*
X20966007Y-8100054D02*
X20796007Y-8270054D01*
X21686482Y-5718493D02*
X21856482Y-5888493D01*
X21856482Y-5718493D02*
X21686482Y-5888493D01*
X21879296Y-7909041D02*
X22049296Y-8079041D01*
X22049296Y-7909041D02*
X21879296Y-8079041D01*
D13*
X5043843Y-8001334D02*
G75*
G02*
X4868843Y-8001334I-87500J0D01*
G01*
X4868843Y-8001334D02*
G75*
G02*
X5043843Y-8001334I87500J0D01*
G01*
X5236657Y-5810787D02*
G75*
G02*
X5061657Y-5810787I-87500J0D01*
G01*
X5061657Y-5810787D02*
G75*
G02*
X5236657Y-5810787I87500J0D01*
G01*
X6044407Y-8177761D02*
G75*
G02*
X5869407Y-8177761I-87500J0D01*
G01*
X5869407Y-8177761D02*
G75*
G02*
X6044407Y-8177761I87500J0D01*
G01*
X6237221Y-5987213D02*
G75*
G02*
X6062221Y-5987213I-87500J0D01*
G01*
X6062221Y-5987213D02*
G75*
G02*
X6237221Y-5987213I87500J0D01*
G01*
X7237109Y-7904469D02*
G75*
G02*
X7062109Y-7904469I-87500J0D01*
G01*
X7062109Y-7904469D02*
G75*
G02*
X7237109Y-7904469I87500J0D01*
G01*
X8237673Y-8080896D02*
G75*
G02*
X8062673Y-8080896I-87500J0D01*
G01*
X8062673Y-8080896D02*
G75*
G02*
X8237673Y-8080896I87500J0D01*
G01*
X9173944Y-7890586D02*
G75*
G02*
X8998944Y-7890586I-87500J0D01*
G01*
X8998944Y-7890586D02*
G75*
G02*
X9173944Y-7890586I87500J0D01*
G01*
X10174509Y-8067013D02*
G75*
G02*
X9999509Y-8067013I-87500J0D01*
G01*
X9999509Y-8067013D02*
G75*
G02*
X10174509Y-8067013I87500J0D01*
G01*
X10796641Y-12400886D02*
G75*
G02*
X10621641Y-12400886I-87500J0D01*
G01*
X10621641Y-12400886D02*
G75*
G02*
X10796641Y-12400886I87500J0D01*
G01*
X10989226Y-8566069D02*
G75*
G02*
X10814226Y-8566069I-87500J0D01*
G01*
X10814226Y-8566069D02*
G75*
G02*
X10989226Y-8566069I87500J0D01*
G01*
X11797206Y-12577313D02*
G75*
G02*
X11622206Y-12577313I-87500J0D01*
G01*
X11622206Y-12577313D02*
G75*
G02*
X11797206Y-12577313I87500J0D01*
G01*
X11989791Y-8742496D02*
G75*
G02*
X11814791Y-8742496I-87500J0D01*
G01*
X11814791Y-8742496D02*
G75*
G02*
X11989791Y-8742496I87500J0D01*
G01*
X15064486Y-8742496D02*
G75*
G02*
X14889486Y-8742496I-87500J0D01*
G01*
X14889486Y-8742496D02*
G75*
G02*
X15064486Y-8742496I87500J0D01*
G01*
X15257071Y-12577313D02*
G75*
G02*
X15082071Y-12577313I-87500J0D01*
G01*
X15082071Y-12577313D02*
G75*
G02*
X15257071Y-12577313I87500J0D01*
G01*
X16065050Y-8566069D02*
G75*
G02*
X15890050Y-8566069I-87500J0D01*
G01*
X15890050Y-8566069D02*
G75*
G02*
X16065050Y-8566069I87500J0D01*
G01*
X16257635Y-12400886D02*
G75*
G02*
X16082635Y-12400886I-87500J0D01*
G01*
X16082635Y-12400886D02*
G75*
G02*
X16257635Y-12400886I87500J0D01*
G01*
X16879768Y-8067013D02*
G75*
G02*
X16704768Y-8067013I-87500J0D01*
G01*
X16704768Y-8067013D02*
G75*
G02*
X16879768Y-8067013I87500J0D01*
G01*
X17880332Y-7890586D02*
G75*
G02*
X17705332Y-7890586I-87500J0D01*
G01*
X17705332Y-7890586D02*
G75*
G02*
X17880332Y-7890586I87500J0D01*
G01*
X18816603Y-8080896D02*
G75*
G02*
X18641603Y-8080896I-87500J0D01*
G01*
X18641603Y-8080896D02*
G75*
G02*
X18816603Y-8080896I87500J0D01*
G01*
X19817168Y-7904469D02*
G75*
G02*
X19642168Y-7904469I-87500J0D01*
G01*
X19642168Y-7904469D02*
G75*
G02*
X19817168Y-7904469I87500J0D01*
G01*
X20817056Y-5987213D02*
G75*
G02*
X20642056Y-5987213I-87500J0D01*
G01*
X20642056Y-5987213D02*
G75*
G02*
X20817056Y-5987213I87500J0D01*
G01*
X21009869Y-8177761D02*
G75*
G02*
X20834869Y-8177761I-87500J0D01*
G01*
X20834869Y-8177761D02*
G75*
G02*
X21009869Y-8177761I87500J0D01*
G01*
X21817620Y-5810787D02*
G75*
G02*
X21642620Y-5810787I-87500J0D01*
G01*
X21642620Y-5810787D02*
G75*
G02*
X21817620Y-5810787I87500J0D01*
G01*
X22010434Y-8001334D02*
G75*
G02*
X21835434Y-8001334I-87500J0D01*
G01*
X21835434Y-8001334D02*
G75*
G02*
X22010434Y-8001334I87500J0D01*
G01*
D14*
X4899103Y-8222026D02*
X4899103Y-8522026D01*
X4749103Y-8372026D02*
X5049103Y-8372026D01*
X5091917Y-6031479D02*
X5091917Y-6331479D01*
X4941917Y-6181479D02*
X5241917Y-6181479D01*
X5125520Y-7623246D02*
X5125520Y-7923246D01*
X4975520Y-7773246D02*
X5275520Y-7773246D01*
X5318334Y-5432699D02*
X5318334Y-5732699D01*
X5168334Y-5582699D02*
X5468334Y-5582699D01*
X5353304Y-8525508D02*
X5353304Y-8825508D01*
X5203304Y-8675508D02*
X5503304Y-8675508D01*
X5546118Y-6334961D02*
X5546118Y-6634961D01*
X5396118Y-6484961D02*
X5696118Y-6484961D01*
X5794979Y-7483372D02*
X5794979Y-7783372D01*
X5644979Y-7633372D02*
X5944979Y-7633372D01*
X5987793Y-5292824D02*
X5987793Y-5592824D01*
X5837793Y-5442824D02*
X6137793Y-5442824D01*
X7092369Y-8125161D02*
X7092369Y-8425161D01*
X6942369Y-8275161D02*
X7242369Y-8275161D01*
X7318786Y-7526381D02*
X7318786Y-7826381D01*
X7168786Y-7676381D02*
X7468786Y-7676381D01*
X7546570Y-8428643D02*
X7546570Y-8728643D01*
X7396570Y-8578643D02*
X7696570Y-8578643D01*
X7988245Y-7386507D02*
X7988245Y-7686507D01*
X7838245Y-7536507D02*
X8138245Y-7536507D01*
X9029205Y-8111278D02*
X9029205Y-8411279D01*
X8879205Y-8261278D02*
X9179205Y-8261278D01*
X9255622Y-7512499D02*
X9255622Y-7812499D01*
X9105622Y-7662499D02*
X9405622Y-7662499D01*
X9483406Y-8414760D02*
X9483406Y-8714760D01*
X9333406Y-8564760D02*
X9633406Y-8564760D01*
X9925081Y-7372624D02*
X9925081Y-7672624D01*
X9775081Y-7522624D02*
X10075081Y-7522624D01*
X10651902Y-12621578D02*
X10651902Y-12921578D01*
X10501902Y-12771578D02*
X10801902Y-12771578D01*
X10844487Y-8786761D02*
X10844487Y-9086761D01*
X10694487Y-8936761D02*
X10994487Y-8936761D01*
X10878319Y-12022799D02*
X10878319Y-12322799D01*
X10728319Y-12172799D02*
X11028319Y-12172799D01*
X11070904Y-8187981D02*
X11070904Y-8487981D01*
X10920904Y-8337981D02*
X11220903Y-8337981D01*
X11106103Y-12925060D02*
X11106103Y-13225060D01*
X10956103Y-13075060D02*
X11256103Y-13075060D01*
X11298688Y-9090243D02*
X11298688Y-9390243D01*
X11148688Y-9240243D02*
X11448688Y-9240243D01*
X11547778Y-11882924D02*
X11547778Y-12182924D01*
X11397778Y-12032924D02*
X11697778Y-12032924D01*
X11740363Y-8048106D02*
X11740363Y-8348106D01*
X11590363Y-8198106D02*
X11890363Y-8198106D01*
X15049982Y-8960409D02*
X15049982Y-9260409D01*
X14899982Y-9110409D02*
X15199982Y-9110409D01*
X15057950Y-8320301D02*
X15057950Y-8620301D01*
X14907950Y-8470301D02*
X15207950Y-8470301D01*
X15242567Y-12795227D02*
X15242567Y-13095227D01*
X15092567Y-12945227D02*
X15392567Y-12945227D01*
X15250534Y-12155118D02*
X15250534Y-12455118D01*
X15100534Y-12305118D02*
X15400534Y-12305118D01*
X15580589Y-9090243D02*
X15580589Y-9390243D01*
X15430589Y-9240243D02*
X15730589Y-9240243D01*
X15639196Y-7959893D02*
X15639196Y-8259893D01*
X15489196Y-8109893D02*
X15789196Y-8109893D01*
X15773174Y-12925060D02*
X15773174Y-13225060D01*
X15623174Y-13075060D02*
X15923174Y-13075060D01*
X15831781Y-11794711D02*
X15831781Y-12094711D01*
X15681781Y-11944711D02*
X15981781Y-11944711D01*
X16865264Y-8284927D02*
X16865264Y-8584927D01*
X16715264Y-8434927D02*
X17015264Y-8434927D01*
X16873232Y-7644818D02*
X16873232Y-7944818D01*
X16723232Y-7794818D02*
X17023232Y-7794818D01*
X17395871Y-8414760D02*
X17395871Y-8714760D01*
X17245871Y-8564760D02*
X17545871Y-8564760D01*
X17454478Y-7284411D02*
X17454478Y-7584411D01*
X17304478Y-7434411D02*
X17604478Y-7434411D01*
X18802100Y-8298810D02*
X18802100Y-8598810D01*
X18652100Y-8448810D02*
X18952100Y-8448810D01*
X18810067Y-7658701D02*
X18810067Y-7958701D01*
X18660067Y-7808701D02*
X18960067Y-7808701D01*
X19332706Y-8428643D02*
X19332706Y-8728643D01*
X19182706Y-8578643D02*
X19482706Y-8578643D01*
X19391314Y-7298294D02*
X19391314Y-7598294D01*
X19241314Y-7448294D02*
X19541314Y-7448294D01*
X20802552Y-6205127D02*
X20802552Y-6505127D01*
X20652552Y-6355127D02*
X20952552Y-6355127D01*
X20810519Y-5565019D02*
X20810519Y-5865019D01*
X20660519Y-5715019D02*
X20960519Y-5715019D01*
X20995366Y-8395675D02*
X20995366Y-8695675D01*
X20845366Y-8545675D02*
X21145366Y-8545675D01*
X21003333Y-7755566D02*
X21003333Y-8055566D01*
X20853333Y-7905566D02*
X21153333Y-7905566D01*
X21333159Y-6334961D02*
X21333159Y-6634961D01*
X21183159Y-6484961D02*
X21483159Y-6484961D01*
X21391766Y-5204611D02*
X21391766Y-5504611D01*
X21241766Y-5354611D02*
X21541766Y-5354611D01*
X21525972Y-8525508D02*
X21525972Y-8825508D01*
X21375972Y-8675508D02*
X21675972Y-8675508D01*
X21584580Y-7395159D02*
X21584580Y-7695159D01*
X21434580Y-7545159D02*
X21734580Y-7545159D01*
D15*
X4291098Y-4057845D02*
X4291098Y-3810355D01*
X4043608Y-3810355D01*
X4043608Y-4057845D01*
X4291098Y-4057845D01*
X4291098Y-13812845D02*
X4291098Y-13565355D01*
X4043608Y-13565355D01*
X4043608Y-13812845D01*
X4291098Y-13812845D01*
X13553598Y-8935345D02*
X13553598Y-8687855D01*
X13306108Y-8687855D01*
X13306108Y-8935345D01*
X13553598Y-8935345D01*
X13553598Y-13812845D02*
X13553598Y-13565355D01*
X13306108Y-13565355D01*
X13306108Y-13812845D01*
X13553598Y-13812845D01*
X22816098Y-13812845D02*
X22816098Y-13565355D01*
X22568608Y-13565355D01*
X22568608Y-13812845D01*
X22816098Y-13812845D01*
X22823698Y-4057845D02*
X22823698Y-3810355D01*
X22576208Y-3810355D01*
X22576208Y-4057845D01*
X22823698Y-4057845D01*
D16*
X5456625Y-8342548D02*
X5709625Y-8089548D01*
X5456625Y-7836548D01*
X5203625Y-8089548D01*
X5456625Y-8342548D01*
X5649439Y-6152000D02*
X5902439Y-5899000D01*
X5649439Y-5646000D01*
X5396439Y-5899000D01*
X5649439Y-6152000D01*
X7649891Y-8245683D02*
X7902891Y-7992683D01*
X7649891Y-7739683D01*
X7396891Y-7992683D01*
X7649891Y-8245683D01*
X9586727Y-8231800D02*
X9839727Y-7978800D01*
X9586727Y-7725800D01*
X9333727Y-7978800D01*
X9586727Y-8231800D01*
X11209424Y-12742100D02*
X11462424Y-12489100D01*
X11209424Y-12236100D01*
X10956424Y-12489100D01*
X11209424Y-12742100D01*
X11402009Y-8907282D02*
X11655009Y-8654282D01*
X11402009Y-8401282D01*
X11149009Y-8654282D01*
X11402009Y-8907282D01*
X15477268Y-8907282D02*
X15730268Y-8654282D01*
X15477268Y-8401282D01*
X15224268Y-8654282D01*
X15477268Y-8907282D01*
X15669853Y-12742100D02*
X15922853Y-12489100D01*
X15669853Y-12236100D01*
X15416853Y-12489100D01*
X15669853Y-12742100D01*
X17292550Y-8231800D02*
X17545550Y-7978800D01*
X17292550Y-7725800D01*
X17039550Y-7978800D01*
X17292550Y-8231800D01*
X19229386Y-8245683D02*
X19482386Y-7992683D01*
X19229386Y-7739683D01*
X18976386Y-7992683D01*
X19229386Y-8245683D01*
X21229838Y-6152000D02*
X21482838Y-5899000D01*
X21229838Y-5646000D01*
X20976838Y-5899000D01*
X21229838Y-6152000D01*
X21422652Y-8342548D02*
X21675652Y-8089548D01*
X21422652Y-7836548D01*
X21169652Y-8089548D01*
X21422652Y-8342548D01*
D11*
X3923126Y-14505587D02*
X3923126Y-14305587D01*
X3923126Y-14305587D02*
X3970745Y-14305587D01*
X3970745Y-14305587D02*
X3999317Y-14315110D01*
X3999317Y-14315110D02*
X4018365Y-14334158D01*
X4018365Y-14334158D02*
X4027888Y-14353206D01*
X4027888Y-14353206D02*
X4037412Y-14391301D01*
X4037412Y-14391301D02*
X4037412Y-14419872D01*
X4037412Y-14419872D02*
X4027888Y-14457968D01*
X4027888Y-14457968D02*
X4018365Y-14477015D01*
X4018365Y-14477015D02*
X3999317Y-14496063D01*
X3999317Y-14496063D02*
X3970745Y-14505587D01*
X3970745Y-14505587D02*
X3923126Y-14505587D01*
X4123126Y-14505587D02*
X4123126Y-14372253D01*
X4123126Y-14410349D02*
X4132650Y-14391301D01*
X4132650Y-14391301D02*
X4142174Y-14381777D01*
X4142174Y-14381777D02*
X4161222Y-14372253D01*
X4161222Y-14372253D02*
X4180269Y-14372253D01*
X4246936Y-14505587D02*
X4246936Y-14372253D01*
X4246936Y-14305587D02*
X4237412Y-14315110D01*
X4237412Y-14315110D02*
X4246936Y-14324634D01*
X4246936Y-14324634D02*
X4256460Y-14315110D01*
X4256460Y-14315110D02*
X4246936Y-14305587D01*
X4246936Y-14305587D02*
X4246936Y-14324634D01*
X4370746Y-14505587D02*
X4351698Y-14496063D01*
X4351698Y-14496063D02*
X4342174Y-14477015D01*
X4342174Y-14477015D02*
X4342174Y-14305587D01*
X4475507Y-14505587D02*
X4456460Y-14496063D01*
X4456460Y-14496063D02*
X4446936Y-14477015D01*
X4446936Y-14477015D02*
X4446936Y-14305587D01*
X4704079Y-14505587D02*
X4704079Y-14305587D01*
X4704079Y-14305587D02*
X4770746Y-14448444D01*
X4770746Y-14448444D02*
X4837412Y-14305587D01*
X4837412Y-14305587D02*
X4837412Y-14505587D01*
X5018365Y-14505587D02*
X5018365Y-14400825D01*
X5018365Y-14400825D02*
X5008841Y-14381777D01*
X5008841Y-14381777D02*
X4989793Y-14372253D01*
X4989793Y-14372253D02*
X4951698Y-14372253D01*
X4951698Y-14372253D02*
X4932650Y-14381777D01*
X5018365Y-14496063D02*
X4999317Y-14505587D01*
X4999317Y-14505587D02*
X4951698Y-14505587D01*
X4951698Y-14505587D02*
X4932650Y-14496063D01*
X4932650Y-14496063D02*
X4923127Y-14477015D01*
X4923127Y-14477015D02*
X4923127Y-14457968D01*
X4923127Y-14457968D02*
X4932650Y-14438920D01*
X4932650Y-14438920D02*
X4951698Y-14429396D01*
X4951698Y-14429396D02*
X4999317Y-14429396D01*
X4999317Y-14429396D02*
X5018365Y-14419872D01*
X5113603Y-14372253D02*
X5113603Y-14572253D01*
X5113603Y-14381777D02*
X5132650Y-14372253D01*
X5132650Y-14372253D02*
X5170746Y-14372253D01*
X5170746Y-14372253D02*
X5189793Y-14381777D01*
X5189793Y-14381777D02*
X5199317Y-14391301D01*
X5199317Y-14391301D02*
X5208841Y-14410349D01*
X5208841Y-14410349D02*
X5208841Y-14467491D01*
X5208841Y-14467491D02*
X5199317Y-14486539D01*
X5199317Y-14486539D02*
X5189793Y-14496063D01*
X5189793Y-14496063D02*
X5170746Y-14505587D01*
X5170746Y-14505587D02*
X5132650Y-14505587D01*
X5132650Y-14505587D02*
X5113603Y-14496063D01*
X5294555Y-14486539D02*
X5304079Y-14496063D01*
X5304079Y-14496063D02*
X5294555Y-14505587D01*
X5294555Y-14505587D02*
X5285031Y-14496063D01*
X5285031Y-14496063D02*
X5294555Y-14486539D01*
X5294555Y-14486539D02*
X5294555Y-14505587D01*
X5294555Y-14381777D02*
X5304079Y-14391301D01*
X5304079Y-14391301D02*
X5294555Y-14400825D01*
X5294555Y-14400825D02*
X5285031Y-14391301D01*
X5285031Y-14391301D02*
X5294555Y-14381777D01*
X5294555Y-14381777D02*
X5294555Y-14400825D01*
D12*
X3492350Y-14749103D02*
X3662350Y-14919103D01*
X3662350Y-14749103D02*
X3492350Y-14919103D01*
D11*
X4027888Y-14925587D02*
X3913603Y-14925587D01*
X3970745Y-14925587D02*
X3970745Y-14725587D01*
X3970745Y-14725587D02*
X3951698Y-14754158D01*
X3951698Y-14754158D02*
X3932650Y-14773206D01*
X3932650Y-14773206D02*
X3913603Y-14782729D01*
X4113603Y-14906539D02*
X4123126Y-14916063D01*
X4123126Y-14916063D02*
X4113603Y-14925587D01*
X4113603Y-14925587D02*
X4104079Y-14916063D01*
X4104079Y-14916063D02*
X4113603Y-14906539D01*
X4113603Y-14906539D02*
X4113603Y-14925587D01*
X4189793Y-14725587D02*
X4323127Y-14725587D01*
X4323127Y-14725587D02*
X4237412Y-14925587D01*
X4437412Y-14725587D02*
X4456460Y-14725587D01*
X4456460Y-14725587D02*
X4475508Y-14735110D01*
X4475508Y-14735110D02*
X4485031Y-14744634D01*
X4485031Y-14744634D02*
X4494555Y-14763682D01*
X4494555Y-14763682D02*
X4504079Y-14801777D01*
X4504079Y-14801777D02*
X4504079Y-14849396D01*
X4504079Y-14849396D02*
X4494555Y-14887491D01*
X4494555Y-14887491D02*
X4485031Y-14906539D01*
X4485031Y-14906539D02*
X4475508Y-14916063D01*
X4475508Y-14916063D02*
X4456460Y-14925587D01*
X4456460Y-14925587D02*
X4437412Y-14925587D01*
X4437412Y-14925587D02*
X4418365Y-14916063D01*
X4418365Y-14916063D02*
X4408841Y-14906539D01*
X4408841Y-14906539D02*
X4399317Y-14887491D01*
X4399317Y-14887491D02*
X4389793Y-14849396D01*
X4389793Y-14849396D02*
X4389793Y-14801777D01*
X4389793Y-14801777D02*
X4399317Y-14763682D01*
X4399317Y-14763682D02*
X4408841Y-14744634D01*
X4408841Y-14744634D02*
X4418365Y-14735110D01*
X4418365Y-14735110D02*
X4437412Y-14725587D01*
X4627888Y-14725587D02*
X4646936Y-14725587D01*
X4646936Y-14725587D02*
X4665984Y-14735110D01*
X4665984Y-14735110D02*
X4675508Y-14744634D01*
X4675508Y-14744634D02*
X4685031Y-14763682D01*
X4685031Y-14763682D02*
X4694555Y-14801777D01*
X4694555Y-14801777D02*
X4694555Y-14849396D01*
X4694555Y-14849396D02*
X4685031Y-14887491D01*
X4685031Y-14887491D02*
X4675508Y-14906539D01*
X4675508Y-14906539D02*
X4665984Y-14916063D01*
X4665984Y-14916063D02*
X4646936Y-14925587D01*
X4646936Y-14925587D02*
X4627888Y-14925587D01*
X4627888Y-14925587D02*
X4608841Y-14916063D01*
X4608841Y-14916063D02*
X4599317Y-14906539D01*
X4599317Y-14906539D02*
X4589793Y-14887491D01*
X4589793Y-14887491D02*
X4580269Y-14849396D01*
X4580269Y-14849396D02*
X4580269Y-14801777D01*
X4580269Y-14801777D02*
X4589793Y-14763682D01*
X4589793Y-14763682D02*
X4599317Y-14744634D01*
X4599317Y-14744634D02*
X4608841Y-14735110D01*
X4608841Y-14735110D02*
X4627888Y-14725587D01*
X4780269Y-14925587D02*
X4780269Y-14792253D01*
X4780269Y-14811301D02*
X4789793Y-14801777D01*
X4789793Y-14801777D02*
X4808841Y-14792253D01*
X4808841Y-14792253D02*
X4837412Y-14792253D01*
X4837412Y-14792253D02*
X4856460Y-14801777D01*
X4856460Y-14801777D02*
X4865984Y-14820825D01*
X4865984Y-14820825D02*
X4865984Y-14925587D01*
X4865984Y-14820825D02*
X4875508Y-14801777D01*
X4875508Y-14801777D02*
X4894555Y-14792253D01*
X4894555Y-14792253D02*
X4923127Y-14792253D01*
X4923127Y-14792253D02*
X4942174Y-14801777D01*
X4942174Y-14801777D02*
X4951698Y-14820825D01*
X4951698Y-14820825D02*
X4951698Y-14925587D01*
X5046936Y-14925587D02*
X5046936Y-14792253D01*
X5046936Y-14811301D02*
X5056460Y-14801777D01*
X5056460Y-14801777D02*
X5075508Y-14792253D01*
X5075508Y-14792253D02*
X5104079Y-14792253D01*
X5104079Y-14792253D02*
X5123127Y-14801777D01*
X5123127Y-14801777D02*
X5132650Y-14820825D01*
X5132650Y-14820825D02*
X5132650Y-14925587D01*
X5132650Y-14820825D02*
X5142174Y-14801777D01*
X5142174Y-14801777D02*
X5161222Y-14792253D01*
X5161222Y-14792253D02*
X5189793Y-14792253D01*
X5189793Y-14792253D02*
X5208841Y-14801777D01*
X5208841Y-14801777D02*
X5218365Y-14820825D01*
X5218365Y-14820825D02*
X5218365Y-14925587D01*
X5608841Y-14716063D02*
X5437412Y-14973206D01*
X5865984Y-14725587D02*
X5885031Y-14725587D01*
X5885031Y-14725587D02*
X5904079Y-14735110D01*
X5904079Y-14735110D02*
X5913603Y-14744634D01*
X5913603Y-14744634D02*
X5923127Y-14763682D01*
X5923127Y-14763682D02*
X5932650Y-14801777D01*
X5932650Y-14801777D02*
X5932650Y-14849396D01*
X5932650Y-14849396D02*
X5923127Y-14887491D01*
X5923127Y-14887491D02*
X5913603Y-14906539D01*
X5913603Y-14906539D02*
X5904079Y-14916063D01*
X5904079Y-14916063D02*
X5885031Y-14925587D01*
X5885031Y-14925587D02*
X5865984Y-14925587D01*
X5865984Y-14925587D02*
X5846936Y-14916063D01*
X5846936Y-14916063D02*
X5837412Y-14906539D01*
X5837412Y-14906539D02*
X5827889Y-14887491D01*
X5827889Y-14887491D02*
X5818365Y-14849396D01*
X5818365Y-14849396D02*
X5818365Y-14801777D01*
X5818365Y-14801777D02*
X5827889Y-14763682D01*
X5827889Y-14763682D02*
X5837412Y-14744634D01*
X5837412Y-14744634D02*
X5846936Y-14735110D01*
X5846936Y-14735110D02*
X5865984Y-14725587D01*
X6018365Y-14906539D02*
X6027889Y-14916063D01*
X6027889Y-14916063D02*
X6018365Y-14925587D01*
X6018365Y-14925587D02*
X6008841Y-14916063D01*
X6008841Y-14916063D02*
X6018365Y-14906539D01*
X6018365Y-14906539D02*
X6018365Y-14925587D01*
X6151698Y-14725587D02*
X6170746Y-14725587D01*
X6170746Y-14725587D02*
X6189793Y-14735110D01*
X6189793Y-14735110D02*
X6199317Y-14744634D01*
X6199317Y-14744634D02*
X6208841Y-14763682D01*
X6208841Y-14763682D02*
X6218365Y-14801777D01*
X6218365Y-14801777D02*
X6218365Y-14849396D01*
X6218365Y-14849396D02*
X6208841Y-14887491D01*
X6208841Y-14887491D02*
X6199317Y-14906539D01*
X6199317Y-14906539D02*
X6189793Y-14916063D01*
X6189793Y-14916063D02*
X6170746Y-14925587D01*
X6170746Y-14925587D02*
X6151698Y-14925587D01*
X6151698Y-14925587D02*
X6132650Y-14916063D01*
X6132650Y-14916063D02*
X6123127Y-14906539D01*
X6123127Y-14906539D02*
X6113603Y-14887491D01*
X6113603Y-14887491D02*
X6104079Y-14849396D01*
X6104079Y-14849396D02*
X6104079Y-14801777D01*
X6104079Y-14801777D02*
X6113603Y-14763682D01*
X6113603Y-14763682D02*
X6123127Y-14744634D01*
X6123127Y-14744634D02*
X6132650Y-14735110D01*
X6132650Y-14735110D02*
X6151698Y-14725587D01*
X6389793Y-14725587D02*
X6351698Y-14725587D01*
X6351698Y-14725587D02*
X6332650Y-14735110D01*
X6332650Y-14735110D02*
X6323127Y-14744634D01*
X6323127Y-14744634D02*
X6304079Y-14773206D01*
X6304079Y-14773206D02*
X6294555Y-14811301D01*
X6294555Y-14811301D02*
X6294555Y-14887491D01*
X6294555Y-14887491D02*
X6304079Y-14906539D01*
X6304079Y-14906539D02*
X6313603Y-14916063D01*
X6313603Y-14916063D02*
X6332650Y-14925587D01*
X6332650Y-14925587D02*
X6370746Y-14925587D01*
X6370746Y-14925587D02*
X6389793Y-14916063D01*
X6389793Y-14916063D02*
X6399317Y-14906539D01*
X6399317Y-14906539D02*
X6408841Y-14887491D01*
X6408841Y-14887491D02*
X6408841Y-14839872D01*
X6408841Y-14839872D02*
X6399317Y-14820825D01*
X6399317Y-14820825D02*
X6389793Y-14811301D01*
X6389793Y-14811301D02*
X6370746Y-14801777D01*
X6370746Y-14801777D02*
X6332650Y-14801777D01*
X6332650Y-14801777D02*
X6313603Y-14811301D01*
X6313603Y-14811301D02*
X6304079Y-14820825D01*
X6304079Y-14820825D02*
X6294555Y-14839872D01*
X6580270Y-14725587D02*
X6542174Y-14725587D01*
X6542174Y-14725587D02*
X6523127Y-14735110D01*
X6523127Y-14735110D02*
X6513603Y-14744634D01*
X6513603Y-14744634D02*
X6494555Y-14773206D01*
X6494555Y-14773206D02*
X6485031Y-14811301D01*
X6485031Y-14811301D02*
X6485031Y-14887491D01*
X6485031Y-14887491D02*
X6494555Y-14906539D01*
X6494555Y-14906539D02*
X6504079Y-14916063D01*
X6504079Y-14916063D02*
X6523127Y-14925587D01*
X6523127Y-14925587D02*
X6561222Y-14925587D01*
X6561222Y-14925587D02*
X6580270Y-14916063D01*
X6580270Y-14916063D02*
X6589793Y-14906539D01*
X6589793Y-14906539D02*
X6599317Y-14887491D01*
X6599317Y-14887491D02*
X6599317Y-14839872D01*
X6599317Y-14839872D02*
X6589793Y-14820825D01*
X6589793Y-14820825D02*
X6580270Y-14811301D01*
X6580270Y-14811301D02*
X6561222Y-14801777D01*
X6561222Y-14801777D02*
X6523127Y-14801777D01*
X6523127Y-14801777D02*
X6504079Y-14811301D01*
X6504079Y-14811301D02*
X6494555Y-14820825D01*
X6494555Y-14820825D02*
X6485031Y-14839872D01*
X6694555Y-14925587D02*
X6732650Y-14925587D01*
X6732650Y-14925587D02*
X6751698Y-14916063D01*
X6751698Y-14916063D02*
X6761222Y-14906539D01*
X6761222Y-14906539D02*
X6780270Y-14877968D01*
X6780270Y-14877968D02*
X6789793Y-14839872D01*
X6789793Y-14839872D02*
X6789793Y-14763682D01*
X6789793Y-14763682D02*
X6780270Y-14744634D01*
X6780270Y-14744634D02*
X6770746Y-14735110D01*
X6770746Y-14735110D02*
X6751698Y-14725587D01*
X6751698Y-14725587D02*
X6713603Y-14725587D01*
X6713603Y-14725587D02*
X6694555Y-14735110D01*
X6694555Y-14735110D02*
X6685031Y-14744634D01*
X6685031Y-14744634D02*
X6675508Y-14763682D01*
X6675508Y-14763682D02*
X6675508Y-14811301D01*
X6675508Y-14811301D02*
X6685031Y-14830349D01*
X6685031Y-14830349D02*
X6694555Y-14839872D01*
X6694555Y-14839872D02*
X6713603Y-14849396D01*
X6713603Y-14849396D02*
X6751698Y-14849396D01*
X6751698Y-14849396D02*
X6770746Y-14839872D01*
X6770746Y-14839872D02*
X6780270Y-14830349D01*
X6780270Y-14830349D02*
X6789793Y-14811301D01*
X6865984Y-14725587D02*
X6865984Y-14763682D01*
X6942174Y-14725587D02*
X6942174Y-14763682D01*
X7237413Y-15001777D02*
X7227889Y-14992253D01*
X7227889Y-14992253D02*
X7208841Y-14963682D01*
X7208841Y-14963682D02*
X7199317Y-14944634D01*
X7199317Y-14944634D02*
X7189793Y-14916063D01*
X7189793Y-14916063D02*
X7180270Y-14868444D01*
X7180270Y-14868444D02*
X7180270Y-14830349D01*
X7180270Y-14830349D02*
X7189793Y-14782729D01*
X7189793Y-14782729D02*
X7199317Y-14754158D01*
X7199317Y-14754158D02*
X7208841Y-14735110D01*
X7208841Y-14735110D02*
X7227889Y-14706539D01*
X7227889Y-14706539D02*
X7237413Y-14697015D01*
X7304079Y-14744634D02*
X7313603Y-14735110D01*
X7313603Y-14735110D02*
X7332651Y-14725587D01*
X7332651Y-14725587D02*
X7380270Y-14725587D01*
X7380270Y-14725587D02*
X7399317Y-14735110D01*
X7399317Y-14735110D02*
X7408841Y-14744634D01*
X7408841Y-14744634D02*
X7418365Y-14763682D01*
X7418365Y-14763682D02*
X7418365Y-14782729D01*
X7418365Y-14782729D02*
X7408841Y-14811301D01*
X7408841Y-14811301D02*
X7294555Y-14925587D01*
X7294555Y-14925587D02*
X7418365Y-14925587D01*
X7589793Y-14792253D02*
X7589793Y-14925587D01*
X7542174Y-14716063D02*
X7494555Y-14858920D01*
X7494555Y-14858920D02*
X7618365Y-14858920D01*
X7846936Y-14925587D02*
X7846936Y-14725587D01*
X7932651Y-14925587D02*
X7932651Y-14820825D01*
X7932651Y-14820825D02*
X7923127Y-14801777D01*
X7923127Y-14801777D02*
X7904079Y-14792253D01*
X7904079Y-14792253D02*
X7875508Y-14792253D01*
X7875508Y-14792253D02*
X7856460Y-14801777D01*
X7856460Y-14801777D02*
X7846936Y-14811301D01*
X8056460Y-14925587D02*
X8037413Y-14916063D01*
X8037413Y-14916063D02*
X8027889Y-14906539D01*
X8027889Y-14906539D02*
X8018365Y-14887491D01*
X8018365Y-14887491D02*
X8018365Y-14830349D01*
X8018365Y-14830349D02*
X8027889Y-14811301D01*
X8027889Y-14811301D02*
X8037413Y-14801777D01*
X8037413Y-14801777D02*
X8056460Y-14792253D01*
X8056460Y-14792253D02*
X8085032Y-14792253D01*
X8085032Y-14792253D02*
X8104079Y-14801777D01*
X8104079Y-14801777D02*
X8113603Y-14811301D01*
X8113603Y-14811301D02*
X8123127Y-14830349D01*
X8123127Y-14830349D02*
X8123127Y-14887491D01*
X8123127Y-14887491D02*
X8113603Y-14906539D01*
X8113603Y-14906539D02*
X8104079Y-14916063D01*
X8104079Y-14916063D02*
X8085032Y-14925587D01*
X8085032Y-14925587D02*
X8056460Y-14925587D01*
X8237413Y-14925587D02*
X8218365Y-14916063D01*
X8218365Y-14916063D02*
X8208841Y-14897015D01*
X8208841Y-14897015D02*
X8208841Y-14725587D01*
X8389794Y-14916063D02*
X8370746Y-14925587D01*
X8370746Y-14925587D02*
X8332651Y-14925587D01*
X8332651Y-14925587D02*
X8313603Y-14916063D01*
X8313603Y-14916063D02*
X8304079Y-14897015D01*
X8304079Y-14897015D02*
X8304079Y-14820825D01*
X8304079Y-14820825D02*
X8313603Y-14801777D01*
X8313603Y-14801777D02*
X8332651Y-14792253D01*
X8332651Y-14792253D02*
X8370746Y-14792253D01*
X8370746Y-14792253D02*
X8389794Y-14801777D01*
X8389794Y-14801777D02*
X8399317Y-14820825D01*
X8399317Y-14820825D02*
X8399317Y-14839872D01*
X8399317Y-14839872D02*
X8304079Y-14858920D01*
X8475508Y-14916063D02*
X8494556Y-14925587D01*
X8494556Y-14925587D02*
X8532651Y-14925587D01*
X8532651Y-14925587D02*
X8551698Y-14916063D01*
X8551698Y-14916063D02*
X8561222Y-14897015D01*
X8561222Y-14897015D02*
X8561222Y-14887491D01*
X8561222Y-14887491D02*
X8551698Y-14868444D01*
X8551698Y-14868444D02*
X8532651Y-14858920D01*
X8532651Y-14858920D02*
X8504079Y-14858920D01*
X8504079Y-14858920D02*
X8485032Y-14849396D01*
X8485032Y-14849396D02*
X8475508Y-14830349D01*
X8475508Y-14830349D02*
X8475508Y-14820825D01*
X8475508Y-14820825D02*
X8485032Y-14801777D01*
X8485032Y-14801777D02*
X8504079Y-14792253D01*
X8504079Y-14792253D02*
X8532651Y-14792253D01*
X8532651Y-14792253D02*
X8551698Y-14801777D01*
X8627889Y-15001777D02*
X8637413Y-14992253D01*
X8637413Y-14992253D02*
X8656460Y-14963682D01*
X8656460Y-14963682D02*
X8665984Y-14944634D01*
X8665984Y-14944634D02*
X8675508Y-14916063D01*
X8675508Y-14916063D02*
X8685032Y-14868444D01*
X8685032Y-14868444D02*
X8685032Y-14830349D01*
X8685032Y-14830349D02*
X8675508Y-14782729D01*
X8675508Y-14782729D02*
X8665984Y-14754158D01*
X8665984Y-14754158D02*
X8656460Y-14735110D01*
X8656460Y-14735110D02*
X8637413Y-14706539D01*
X8637413Y-14706539D02*
X8627889Y-14697015D01*
X8989794Y-15001777D02*
X8980270Y-14992253D01*
X8980270Y-14992253D02*
X8961222Y-14963682D01*
X8961222Y-14963682D02*
X8951698Y-14944634D01*
X8951698Y-14944634D02*
X8942175Y-14916063D01*
X8942175Y-14916063D02*
X8932651Y-14868444D01*
X8932651Y-14868444D02*
X8932651Y-14830349D01*
X8932651Y-14830349D02*
X8942175Y-14782729D01*
X8942175Y-14782729D02*
X8951698Y-14754158D01*
X8951698Y-14754158D02*
X8961222Y-14735110D01*
X8961222Y-14735110D02*
X8980270Y-14706539D01*
X8980270Y-14706539D02*
X8989794Y-14697015D01*
X9065984Y-14792253D02*
X9065984Y-14925587D01*
X9065984Y-14811301D02*
X9075508Y-14801777D01*
X9075508Y-14801777D02*
X9094556Y-14792253D01*
X9094556Y-14792253D02*
X9123127Y-14792253D01*
X9123127Y-14792253D02*
X9142175Y-14801777D01*
X9142175Y-14801777D02*
X9151698Y-14820825D01*
X9151698Y-14820825D02*
X9151698Y-14925587D01*
X9275508Y-14925587D02*
X9256460Y-14916063D01*
X9256460Y-14916063D02*
X9246937Y-14906539D01*
X9246937Y-14906539D02*
X9237413Y-14887491D01*
X9237413Y-14887491D02*
X9237413Y-14830349D01*
X9237413Y-14830349D02*
X9246937Y-14811301D01*
X9246937Y-14811301D02*
X9256460Y-14801777D01*
X9256460Y-14801777D02*
X9275508Y-14792253D01*
X9275508Y-14792253D02*
X9304079Y-14792253D01*
X9304079Y-14792253D02*
X9323127Y-14801777D01*
X9323127Y-14801777D02*
X9332651Y-14811301D01*
X9332651Y-14811301D02*
X9342175Y-14830349D01*
X9342175Y-14830349D02*
X9342175Y-14887491D01*
X9342175Y-14887491D02*
X9332651Y-14906539D01*
X9332651Y-14906539D02*
X9323127Y-14916063D01*
X9323127Y-14916063D02*
X9304079Y-14925587D01*
X9304079Y-14925587D02*
X9275508Y-14925587D01*
X9399318Y-14792253D02*
X9475508Y-14792253D01*
X9427889Y-14725587D02*
X9427889Y-14897015D01*
X9427889Y-14897015D02*
X9437413Y-14916063D01*
X9437413Y-14916063D02*
X9456460Y-14925587D01*
X9456460Y-14925587D02*
X9475508Y-14925587D01*
X9694556Y-14792253D02*
X9694556Y-14992253D01*
X9694556Y-14801777D02*
X9713603Y-14792253D01*
X9713603Y-14792253D02*
X9751699Y-14792253D01*
X9751699Y-14792253D02*
X9770746Y-14801777D01*
X9770746Y-14801777D02*
X9780270Y-14811301D01*
X9780270Y-14811301D02*
X9789794Y-14830349D01*
X9789794Y-14830349D02*
X9789794Y-14887491D01*
X9789794Y-14887491D02*
X9780270Y-14906539D01*
X9780270Y-14906539D02*
X9770746Y-14916063D01*
X9770746Y-14916063D02*
X9751699Y-14925587D01*
X9751699Y-14925587D02*
X9713603Y-14925587D01*
X9713603Y-14925587D02*
X9694556Y-14916063D01*
X9904079Y-14925587D02*
X9885032Y-14916063D01*
X9885032Y-14916063D02*
X9875508Y-14897015D01*
X9875508Y-14897015D02*
X9875508Y-14725587D01*
X10065984Y-14925587D02*
X10065984Y-14820825D01*
X10065984Y-14820825D02*
X10056460Y-14801777D01*
X10056460Y-14801777D02*
X10037413Y-14792253D01*
X10037413Y-14792253D02*
X9999318Y-14792253D01*
X9999318Y-14792253D02*
X9980270Y-14801777D01*
X10065984Y-14916063D02*
X10046937Y-14925587D01*
X10046937Y-14925587D02*
X9999318Y-14925587D01*
X9999318Y-14925587D02*
X9980270Y-14916063D01*
X9980270Y-14916063D02*
X9970746Y-14897015D01*
X9970746Y-14897015D02*
X9970746Y-14877968D01*
X9970746Y-14877968D02*
X9980270Y-14858920D01*
X9980270Y-14858920D02*
X9999318Y-14849396D01*
X9999318Y-14849396D02*
X10046937Y-14849396D01*
X10046937Y-14849396D02*
X10065984Y-14839872D01*
X10132651Y-14792253D02*
X10208841Y-14792253D01*
X10161222Y-14725587D02*
X10161222Y-14897015D01*
X10161222Y-14897015D02*
X10170746Y-14916063D01*
X10170746Y-14916063D02*
X10189794Y-14925587D01*
X10189794Y-14925587D02*
X10208841Y-14925587D01*
X10351699Y-14916063D02*
X10332651Y-14925587D01*
X10332651Y-14925587D02*
X10294556Y-14925587D01*
X10294556Y-14925587D02*
X10275508Y-14916063D01*
X10275508Y-14916063D02*
X10265984Y-14897015D01*
X10265984Y-14897015D02*
X10265984Y-14820825D01*
X10265984Y-14820825D02*
X10275508Y-14801777D01*
X10275508Y-14801777D02*
X10294556Y-14792253D01*
X10294556Y-14792253D02*
X10332651Y-14792253D01*
X10332651Y-14792253D02*
X10351699Y-14801777D01*
X10351699Y-14801777D02*
X10361222Y-14820825D01*
X10361222Y-14820825D02*
X10361222Y-14839872D01*
X10361222Y-14839872D02*
X10265984Y-14858920D01*
X10532651Y-14925587D02*
X10532651Y-14725587D01*
X10532651Y-14916063D02*
X10513603Y-14925587D01*
X10513603Y-14925587D02*
X10475508Y-14925587D01*
X10475508Y-14925587D02*
X10456460Y-14916063D01*
X10456460Y-14916063D02*
X10446937Y-14906539D01*
X10446937Y-14906539D02*
X10437413Y-14887491D01*
X10437413Y-14887491D02*
X10437413Y-14830349D01*
X10437413Y-14830349D02*
X10446937Y-14811301D01*
X10446937Y-14811301D02*
X10456460Y-14801777D01*
X10456460Y-14801777D02*
X10475508Y-14792253D01*
X10475508Y-14792253D02*
X10513603Y-14792253D01*
X10513603Y-14792253D02*
X10532651Y-14801777D01*
X10608841Y-15001777D02*
X10618365Y-14992253D01*
X10618365Y-14992253D02*
X10637413Y-14963682D01*
X10637413Y-14963682D02*
X10646937Y-14944634D01*
X10646937Y-14944634D02*
X10656460Y-14916063D01*
X10656460Y-14916063D02*
X10665984Y-14868444D01*
X10665984Y-14868444D02*
X10665984Y-14830349D01*
X10665984Y-14830349D02*
X10656460Y-14782729D01*
X10656460Y-14782729D02*
X10646937Y-14754158D01*
X10646937Y-14754158D02*
X10637413Y-14735110D01*
X10637413Y-14735110D02*
X10618365Y-14706539D01*
X10618365Y-14706539D02*
X10608841Y-14697015D01*
D13*
X3662350Y-15124103D02*
G75*
G02*
X3487350Y-15124103I-87500J0D01*
G01*
X3487350Y-15124103D02*
G75*
G02*
X3662350Y-15124103I87500J0D01*
G01*
D11*
X4027888Y-15215587D02*
X3913603Y-15215587D01*
X3970745Y-15215587D02*
X3970745Y-15015587D01*
X3970745Y-15015587D02*
X3951698Y-15044158D01*
X3951698Y-15044158D02*
X3932650Y-15063206D01*
X3932650Y-15063206D02*
X3913603Y-15072729D01*
X4113603Y-15196539D02*
X4123126Y-15206063D01*
X4123126Y-15206063D02*
X4113603Y-15215587D01*
X4113603Y-15215587D02*
X4104079Y-15206063D01*
X4104079Y-15206063D02*
X4113603Y-15196539D01*
X4113603Y-15196539D02*
X4113603Y-15215587D01*
X4189793Y-15015587D02*
X4323127Y-15015587D01*
X4323127Y-15015587D02*
X4237412Y-15215587D01*
X4494555Y-15015587D02*
X4399317Y-15015587D01*
X4399317Y-15015587D02*
X4389793Y-15110825D01*
X4389793Y-15110825D02*
X4399317Y-15101301D01*
X4399317Y-15101301D02*
X4418365Y-15091777D01*
X4418365Y-15091777D02*
X4465984Y-15091777D01*
X4465984Y-15091777D02*
X4485031Y-15101301D01*
X4485031Y-15101301D02*
X4494555Y-15110825D01*
X4494555Y-15110825D02*
X4504079Y-15129872D01*
X4504079Y-15129872D02*
X4504079Y-15177491D01*
X4504079Y-15177491D02*
X4494555Y-15196539D01*
X4494555Y-15196539D02*
X4485031Y-15206063D01*
X4485031Y-15206063D02*
X4465984Y-15215587D01*
X4465984Y-15215587D02*
X4418365Y-15215587D01*
X4418365Y-15215587D02*
X4399317Y-15206063D01*
X4399317Y-15206063D02*
X4389793Y-15196539D01*
X4627888Y-15015587D02*
X4646936Y-15015587D01*
X4646936Y-15015587D02*
X4665984Y-15025110D01*
X4665984Y-15025110D02*
X4675508Y-15034634D01*
X4675508Y-15034634D02*
X4685031Y-15053682D01*
X4685031Y-15053682D02*
X4694555Y-15091777D01*
X4694555Y-15091777D02*
X4694555Y-15139396D01*
X4694555Y-15139396D02*
X4685031Y-15177491D01*
X4685031Y-15177491D02*
X4675508Y-15196539D01*
X4675508Y-15196539D02*
X4665984Y-15206063D01*
X4665984Y-15206063D02*
X4646936Y-15215587D01*
X4646936Y-15215587D02*
X4627888Y-15215587D01*
X4627888Y-15215587D02*
X4608841Y-15206063D01*
X4608841Y-15206063D02*
X4599317Y-15196539D01*
X4599317Y-15196539D02*
X4589793Y-15177491D01*
X4589793Y-15177491D02*
X4580269Y-15139396D01*
X4580269Y-15139396D02*
X4580269Y-15091777D01*
X4580269Y-15091777D02*
X4589793Y-15053682D01*
X4589793Y-15053682D02*
X4599317Y-15034634D01*
X4599317Y-15034634D02*
X4608841Y-15025110D01*
X4608841Y-15025110D02*
X4627888Y-15015587D01*
X4780269Y-15215587D02*
X4780269Y-15082253D01*
X4780269Y-15101301D02*
X4789793Y-15091777D01*
X4789793Y-15091777D02*
X4808841Y-15082253D01*
X4808841Y-15082253D02*
X4837412Y-15082253D01*
X4837412Y-15082253D02*
X4856460Y-15091777D01*
X4856460Y-15091777D02*
X4865984Y-15110825D01*
X4865984Y-15110825D02*
X4865984Y-15215587D01*
X4865984Y-15110825D02*
X4875508Y-15091777D01*
X4875508Y-15091777D02*
X4894555Y-15082253D01*
X4894555Y-15082253D02*
X4923127Y-15082253D01*
X4923127Y-15082253D02*
X4942174Y-15091777D01*
X4942174Y-15091777D02*
X4951698Y-15110825D01*
X4951698Y-15110825D02*
X4951698Y-15215587D01*
X5046936Y-15215587D02*
X5046936Y-15082253D01*
X5046936Y-15101301D02*
X5056460Y-15091777D01*
X5056460Y-15091777D02*
X5075508Y-15082253D01*
X5075508Y-15082253D02*
X5104079Y-15082253D01*
X5104079Y-15082253D02*
X5123127Y-15091777D01*
X5123127Y-15091777D02*
X5132650Y-15110825D01*
X5132650Y-15110825D02*
X5132650Y-15215587D01*
X5132650Y-15110825D02*
X5142174Y-15091777D01*
X5142174Y-15091777D02*
X5161222Y-15082253D01*
X5161222Y-15082253D02*
X5189793Y-15082253D01*
X5189793Y-15082253D02*
X5208841Y-15091777D01*
X5208841Y-15091777D02*
X5218365Y-15110825D01*
X5218365Y-15110825D02*
X5218365Y-15215587D01*
X5608841Y-15006063D02*
X5437412Y-15263206D01*
X5865984Y-15015587D02*
X5885031Y-15015587D01*
X5885031Y-15015587D02*
X5904079Y-15025110D01*
X5904079Y-15025110D02*
X5913603Y-15034634D01*
X5913603Y-15034634D02*
X5923127Y-15053682D01*
X5923127Y-15053682D02*
X5932650Y-15091777D01*
X5932650Y-15091777D02*
X5932650Y-15139396D01*
X5932650Y-15139396D02*
X5923127Y-15177491D01*
X5923127Y-15177491D02*
X5913603Y-15196539D01*
X5913603Y-15196539D02*
X5904079Y-15206063D01*
X5904079Y-15206063D02*
X5885031Y-15215587D01*
X5885031Y-15215587D02*
X5865984Y-15215587D01*
X5865984Y-15215587D02*
X5846936Y-15206063D01*
X5846936Y-15206063D02*
X5837412Y-15196539D01*
X5837412Y-15196539D02*
X5827889Y-15177491D01*
X5827889Y-15177491D02*
X5818365Y-15139396D01*
X5818365Y-15139396D02*
X5818365Y-15091777D01*
X5818365Y-15091777D02*
X5827889Y-15053682D01*
X5827889Y-15053682D02*
X5837412Y-15034634D01*
X5837412Y-15034634D02*
X5846936Y-15025110D01*
X5846936Y-15025110D02*
X5865984Y-15015587D01*
X6018365Y-15196539D02*
X6027889Y-15206063D01*
X6027889Y-15206063D02*
X6018365Y-15215587D01*
X6018365Y-15215587D02*
X6008841Y-15206063D01*
X6008841Y-15206063D02*
X6018365Y-15196539D01*
X6018365Y-15196539D02*
X6018365Y-15215587D01*
X6151698Y-15015587D02*
X6170746Y-15015587D01*
X6170746Y-15015587D02*
X6189793Y-15025110D01*
X6189793Y-15025110D02*
X6199317Y-15034634D01*
X6199317Y-15034634D02*
X6208841Y-15053682D01*
X6208841Y-15053682D02*
X6218365Y-15091777D01*
X6218365Y-15091777D02*
X6218365Y-15139396D01*
X6218365Y-15139396D02*
X6208841Y-15177491D01*
X6208841Y-15177491D02*
X6199317Y-15196539D01*
X6199317Y-15196539D02*
X6189793Y-15206063D01*
X6189793Y-15206063D02*
X6170746Y-15215587D01*
X6170746Y-15215587D02*
X6151698Y-15215587D01*
X6151698Y-15215587D02*
X6132650Y-15206063D01*
X6132650Y-15206063D02*
X6123127Y-15196539D01*
X6123127Y-15196539D02*
X6113603Y-15177491D01*
X6113603Y-15177491D02*
X6104079Y-15139396D01*
X6104079Y-15139396D02*
X6104079Y-15091777D01*
X6104079Y-15091777D02*
X6113603Y-15053682D01*
X6113603Y-15053682D02*
X6123127Y-15034634D01*
X6123127Y-15034634D02*
X6132650Y-15025110D01*
X6132650Y-15025110D02*
X6151698Y-15015587D01*
X6389793Y-15015587D02*
X6351698Y-15015587D01*
X6351698Y-15015587D02*
X6332650Y-15025110D01*
X6332650Y-15025110D02*
X6323127Y-15034634D01*
X6323127Y-15034634D02*
X6304079Y-15063206D01*
X6304079Y-15063206D02*
X6294555Y-15101301D01*
X6294555Y-15101301D02*
X6294555Y-15177491D01*
X6294555Y-15177491D02*
X6304079Y-15196539D01*
X6304079Y-15196539D02*
X6313603Y-15206063D01*
X6313603Y-15206063D02*
X6332650Y-15215587D01*
X6332650Y-15215587D02*
X6370746Y-15215587D01*
X6370746Y-15215587D02*
X6389793Y-15206063D01*
X6389793Y-15206063D02*
X6399317Y-15196539D01*
X6399317Y-15196539D02*
X6408841Y-15177491D01*
X6408841Y-15177491D02*
X6408841Y-15129872D01*
X6408841Y-15129872D02*
X6399317Y-15110825D01*
X6399317Y-15110825D02*
X6389793Y-15101301D01*
X6389793Y-15101301D02*
X6370746Y-15091777D01*
X6370746Y-15091777D02*
X6332650Y-15091777D01*
X6332650Y-15091777D02*
X6313603Y-15101301D01*
X6313603Y-15101301D02*
X6304079Y-15110825D01*
X6304079Y-15110825D02*
X6294555Y-15129872D01*
X6523127Y-15101301D02*
X6504079Y-15091777D01*
X6504079Y-15091777D02*
X6494555Y-15082253D01*
X6494555Y-15082253D02*
X6485031Y-15063206D01*
X6485031Y-15063206D02*
X6485031Y-15053682D01*
X6485031Y-15053682D02*
X6494555Y-15034634D01*
X6494555Y-15034634D02*
X6504079Y-15025110D01*
X6504079Y-15025110D02*
X6523127Y-15015587D01*
X6523127Y-15015587D02*
X6561222Y-15015587D01*
X6561222Y-15015587D02*
X6580270Y-15025110D01*
X6580270Y-15025110D02*
X6589793Y-15034634D01*
X6589793Y-15034634D02*
X6599317Y-15053682D01*
X6599317Y-15053682D02*
X6599317Y-15063206D01*
X6599317Y-15063206D02*
X6589793Y-15082253D01*
X6589793Y-15082253D02*
X6580270Y-15091777D01*
X6580270Y-15091777D02*
X6561222Y-15101301D01*
X6561222Y-15101301D02*
X6523127Y-15101301D01*
X6523127Y-15101301D02*
X6504079Y-15110825D01*
X6504079Y-15110825D02*
X6494555Y-15120349D01*
X6494555Y-15120349D02*
X6485031Y-15139396D01*
X6485031Y-15139396D02*
X6485031Y-15177491D01*
X6485031Y-15177491D02*
X6494555Y-15196539D01*
X6494555Y-15196539D02*
X6504079Y-15206063D01*
X6504079Y-15206063D02*
X6523127Y-15215587D01*
X6523127Y-15215587D02*
X6561222Y-15215587D01*
X6561222Y-15215587D02*
X6580270Y-15206063D01*
X6580270Y-15206063D02*
X6589793Y-15196539D01*
X6589793Y-15196539D02*
X6599317Y-15177491D01*
X6599317Y-15177491D02*
X6599317Y-15139396D01*
X6599317Y-15139396D02*
X6589793Y-15120349D01*
X6589793Y-15120349D02*
X6580270Y-15110825D01*
X6580270Y-15110825D02*
X6561222Y-15101301D01*
X6694555Y-15215587D02*
X6732650Y-15215587D01*
X6732650Y-15215587D02*
X6751698Y-15206063D01*
X6751698Y-15206063D02*
X6761222Y-15196539D01*
X6761222Y-15196539D02*
X6780270Y-15167968D01*
X6780270Y-15167968D02*
X6789793Y-15129872D01*
X6789793Y-15129872D02*
X6789793Y-15053682D01*
X6789793Y-15053682D02*
X6780270Y-15034634D01*
X6780270Y-15034634D02*
X6770746Y-15025110D01*
X6770746Y-15025110D02*
X6751698Y-15015587D01*
X6751698Y-15015587D02*
X6713603Y-15015587D01*
X6713603Y-15015587D02*
X6694555Y-15025110D01*
X6694555Y-15025110D02*
X6685031Y-15034634D01*
X6685031Y-15034634D02*
X6675508Y-15053682D01*
X6675508Y-15053682D02*
X6675508Y-15101301D01*
X6675508Y-15101301D02*
X6685031Y-15120349D01*
X6685031Y-15120349D02*
X6694555Y-15129872D01*
X6694555Y-15129872D02*
X6713603Y-15139396D01*
X6713603Y-15139396D02*
X6751698Y-15139396D01*
X6751698Y-15139396D02*
X6770746Y-15129872D01*
X6770746Y-15129872D02*
X6780270Y-15120349D01*
X6780270Y-15120349D02*
X6789793Y-15101301D01*
X6865984Y-15015587D02*
X6865984Y-15053682D01*
X6942174Y-15015587D02*
X6942174Y-15053682D01*
X7237413Y-15291777D02*
X7227889Y-15282253D01*
X7227889Y-15282253D02*
X7208841Y-15253682D01*
X7208841Y-15253682D02*
X7199317Y-15234634D01*
X7199317Y-15234634D02*
X7189793Y-15206063D01*
X7189793Y-15206063D02*
X7180270Y-15158444D01*
X7180270Y-15158444D02*
X7180270Y-15120349D01*
X7180270Y-15120349D02*
X7189793Y-15072729D01*
X7189793Y-15072729D02*
X7199317Y-15044158D01*
X7199317Y-15044158D02*
X7208841Y-15025110D01*
X7208841Y-15025110D02*
X7227889Y-14996539D01*
X7227889Y-14996539D02*
X7237413Y-14987015D01*
X7304079Y-15034634D02*
X7313603Y-15025110D01*
X7313603Y-15025110D02*
X7332651Y-15015587D01*
X7332651Y-15015587D02*
X7380270Y-15015587D01*
X7380270Y-15015587D02*
X7399317Y-15025110D01*
X7399317Y-15025110D02*
X7408841Y-15034634D01*
X7408841Y-15034634D02*
X7418365Y-15053682D01*
X7418365Y-15053682D02*
X7418365Y-15072729D01*
X7418365Y-15072729D02*
X7408841Y-15101301D01*
X7408841Y-15101301D02*
X7294555Y-15215587D01*
X7294555Y-15215587D02*
X7418365Y-15215587D01*
X7589793Y-15082253D02*
X7589793Y-15215587D01*
X7542174Y-15006063D02*
X7494555Y-15148920D01*
X7494555Y-15148920D02*
X7618365Y-15148920D01*
X7846936Y-15215587D02*
X7846936Y-15015587D01*
X7932651Y-15215587D02*
X7932651Y-15110825D01*
X7932651Y-15110825D02*
X7923127Y-15091777D01*
X7923127Y-15091777D02*
X7904079Y-15082253D01*
X7904079Y-15082253D02*
X7875508Y-15082253D01*
X7875508Y-15082253D02*
X7856460Y-15091777D01*
X7856460Y-15091777D02*
X7846936Y-15101301D01*
X8056460Y-15215587D02*
X8037413Y-15206063D01*
X8037413Y-15206063D02*
X8027889Y-15196539D01*
X8027889Y-15196539D02*
X8018365Y-15177491D01*
X8018365Y-15177491D02*
X8018365Y-15120349D01*
X8018365Y-15120349D02*
X8027889Y-15101301D01*
X8027889Y-15101301D02*
X8037413Y-15091777D01*
X8037413Y-15091777D02*
X8056460Y-15082253D01*
X8056460Y-15082253D02*
X8085032Y-15082253D01*
X8085032Y-15082253D02*
X8104079Y-15091777D01*
X8104079Y-15091777D02*
X8113603Y-15101301D01*
X8113603Y-15101301D02*
X8123127Y-15120349D01*
X8123127Y-15120349D02*
X8123127Y-15177491D01*
X8123127Y-15177491D02*
X8113603Y-15196539D01*
X8113603Y-15196539D02*
X8104079Y-15206063D01*
X8104079Y-15206063D02*
X8085032Y-15215587D01*
X8085032Y-15215587D02*
X8056460Y-15215587D01*
X8237413Y-15215587D02*
X8218365Y-15206063D01*
X8218365Y-15206063D02*
X8208841Y-15187015D01*
X8208841Y-15187015D02*
X8208841Y-15015587D01*
X8389794Y-15206063D02*
X8370746Y-15215587D01*
X8370746Y-15215587D02*
X8332651Y-15215587D01*
X8332651Y-15215587D02*
X8313603Y-15206063D01*
X8313603Y-15206063D02*
X8304079Y-15187015D01*
X8304079Y-15187015D02*
X8304079Y-15110825D01*
X8304079Y-15110825D02*
X8313603Y-15091777D01*
X8313603Y-15091777D02*
X8332651Y-15082253D01*
X8332651Y-15082253D02*
X8370746Y-15082253D01*
X8370746Y-15082253D02*
X8389794Y-15091777D01*
X8389794Y-15091777D02*
X8399317Y-15110825D01*
X8399317Y-15110825D02*
X8399317Y-15129872D01*
X8399317Y-15129872D02*
X8304079Y-15148920D01*
X8475508Y-15206063D02*
X8494556Y-15215587D01*
X8494556Y-15215587D02*
X8532651Y-15215587D01*
X8532651Y-15215587D02*
X8551698Y-15206063D01*
X8551698Y-15206063D02*
X8561222Y-15187015D01*
X8561222Y-15187015D02*
X8561222Y-15177491D01*
X8561222Y-15177491D02*
X8551698Y-15158444D01*
X8551698Y-15158444D02*
X8532651Y-15148920D01*
X8532651Y-15148920D02*
X8504079Y-15148920D01*
X8504079Y-15148920D02*
X8485032Y-15139396D01*
X8485032Y-15139396D02*
X8475508Y-15120349D01*
X8475508Y-15120349D02*
X8475508Y-15110825D01*
X8475508Y-15110825D02*
X8485032Y-15091777D01*
X8485032Y-15091777D02*
X8504079Y-15082253D01*
X8504079Y-15082253D02*
X8532651Y-15082253D01*
X8532651Y-15082253D02*
X8551698Y-15091777D01*
X8627889Y-15291777D02*
X8637413Y-15282253D01*
X8637413Y-15282253D02*
X8656460Y-15253682D01*
X8656460Y-15253682D02*
X8665984Y-15234634D01*
X8665984Y-15234634D02*
X8675508Y-15206063D01*
X8675508Y-15206063D02*
X8685032Y-15158444D01*
X8685032Y-15158444D02*
X8685032Y-15120349D01*
X8685032Y-15120349D02*
X8675508Y-15072729D01*
X8675508Y-15072729D02*
X8665984Y-15044158D01*
X8665984Y-15044158D02*
X8656460Y-15025110D01*
X8656460Y-15025110D02*
X8637413Y-14996539D01*
X8637413Y-14996539D02*
X8627889Y-14987015D01*
X8989794Y-15291777D02*
X8980270Y-15282253D01*
X8980270Y-15282253D02*
X8961222Y-15253682D01*
X8961222Y-15253682D02*
X8951698Y-15234634D01*
X8951698Y-15234634D02*
X8942175Y-15206063D01*
X8942175Y-15206063D02*
X8932651Y-15158444D01*
X8932651Y-15158444D02*
X8932651Y-15120349D01*
X8932651Y-15120349D02*
X8942175Y-15072729D01*
X8942175Y-15072729D02*
X8951698Y-15044158D01*
X8951698Y-15044158D02*
X8961222Y-15025110D01*
X8961222Y-15025110D02*
X8980270Y-14996539D01*
X8980270Y-14996539D02*
X8989794Y-14987015D01*
X9065984Y-15082253D02*
X9065984Y-15215587D01*
X9065984Y-15101301D02*
X9075508Y-15091777D01*
X9075508Y-15091777D02*
X9094556Y-15082253D01*
X9094556Y-15082253D02*
X9123127Y-15082253D01*
X9123127Y-15082253D02*
X9142175Y-15091777D01*
X9142175Y-15091777D02*
X9151698Y-15110825D01*
X9151698Y-15110825D02*
X9151698Y-15215587D01*
X9275508Y-15215587D02*
X9256460Y-15206063D01*
X9256460Y-15206063D02*
X9246937Y-15196539D01*
X9246937Y-15196539D02*
X9237413Y-15177491D01*
X9237413Y-15177491D02*
X9237413Y-15120349D01*
X9237413Y-15120349D02*
X9246937Y-15101301D01*
X9246937Y-15101301D02*
X9256460Y-15091777D01*
X9256460Y-15091777D02*
X9275508Y-15082253D01*
X9275508Y-15082253D02*
X9304079Y-15082253D01*
X9304079Y-15082253D02*
X9323127Y-15091777D01*
X9323127Y-15091777D02*
X9332651Y-15101301D01*
X9332651Y-15101301D02*
X9342175Y-15120349D01*
X9342175Y-15120349D02*
X9342175Y-15177491D01*
X9342175Y-15177491D02*
X9332651Y-15196539D01*
X9332651Y-15196539D02*
X9323127Y-15206063D01*
X9323127Y-15206063D02*
X9304079Y-15215587D01*
X9304079Y-15215587D02*
X9275508Y-15215587D01*
X9399318Y-15082253D02*
X9475508Y-15082253D01*
X9427889Y-15015587D02*
X9427889Y-15187015D01*
X9427889Y-15187015D02*
X9437413Y-15206063D01*
X9437413Y-15206063D02*
X9456460Y-15215587D01*
X9456460Y-15215587D02*
X9475508Y-15215587D01*
X9694556Y-15082253D02*
X9694556Y-15282253D01*
X9694556Y-15091777D02*
X9713603Y-15082253D01*
X9713603Y-15082253D02*
X9751699Y-15082253D01*
X9751699Y-15082253D02*
X9770746Y-15091777D01*
X9770746Y-15091777D02*
X9780270Y-15101301D01*
X9780270Y-15101301D02*
X9789794Y-15120349D01*
X9789794Y-15120349D02*
X9789794Y-15177491D01*
X9789794Y-15177491D02*
X9780270Y-15196539D01*
X9780270Y-15196539D02*
X9770746Y-15206063D01*
X9770746Y-15206063D02*
X9751699Y-15215587D01*
X9751699Y-15215587D02*
X9713603Y-15215587D01*
X9713603Y-15215587D02*
X9694556Y-15206063D01*
X9904079Y-15215587D02*
X9885032Y-15206063D01*
X9885032Y-15206063D02*
X9875508Y-15187015D01*
X9875508Y-15187015D02*
X9875508Y-15015587D01*
X10065984Y-15215587D02*
X10065984Y-15110825D01*
X10065984Y-15110825D02*
X10056460Y-15091777D01*
X10056460Y-15091777D02*
X10037413Y-15082253D01*
X10037413Y-15082253D02*
X9999318Y-15082253D01*
X9999318Y-15082253D02*
X9980270Y-15091777D01*
X10065984Y-15206063D02*
X10046937Y-15215587D01*
X10046937Y-15215587D02*
X9999318Y-15215587D01*
X9999318Y-15215587D02*
X9980270Y-15206063D01*
X9980270Y-15206063D02*
X9970746Y-15187015D01*
X9970746Y-15187015D02*
X9970746Y-15167968D01*
X9970746Y-15167968D02*
X9980270Y-15148920D01*
X9980270Y-15148920D02*
X9999318Y-15139396D01*
X9999318Y-15139396D02*
X10046937Y-15139396D01*
X10046937Y-15139396D02*
X10065984Y-15129872D01*
X10132651Y-15082253D02*
X10208841Y-15082253D01*
X10161222Y-15015587D02*
X10161222Y-15187015D01*
X10161222Y-15187015D02*
X10170746Y-15206063D01*
X10170746Y-15206063D02*
X10189794Y-15215587D01*
X10189794Y-15215587D02*
X10208841Y-15215587D01*
X10351699Y-15206063D02*
X10332651Y-15215587D01*
X10332651Y-15215587D02*
X10294556Y-15215587D01*
X10294556Y-15215587D02*
X10275508Y-15206063D01*
X10275508Y-15206063D02*
X10265984Y-15187015D01*
X10265984Y-15187015D02*
X10265984Y-15110825D01*
X10265984Y-15110825D02*
X10275508Y-15091777D01*
X10275508Y-15091777D02*
X10294556Y-15082253D01*
X10294556Y-15082253D02*
X10332651Y-15082253D01*
X10332651Y-15082253D02*
X10351699Y-15091777D01*
X10351699Y-15091777D02*
X10361222Y-15110825D01*
X10361222Y-15110825D02*
X10361222Y-15129872D01*
X10361222Y-15129872D02*
X10265984Y-15148920D01*
X10532651Y-15215587D02*
X10532651Y-15015587D01*
X10532651Y-15206063D02*
X10513603Y-15215587D01*
X10513603Y-15215587D02*
X10475508Y-15215587D01*
X10475508Y-15215587D02*
X10456460Y-15206063D01*
X10456460Y-15206063D02*
X10446937Y-15196539D01*
X10446937Y-15196539D02*
X10437413Y-15177491D01*
X10437413Y-15177491D02*
X10437413Y-15120349D01*
X10437413Y-15120349D02*
X10446937Y-15101301D01*
X10446937Y-15101301D02*
X10456460Y-15091777D01*
X10456460Y-15091777D02*
X10475508Y-15082253D01*
X10475508Y-15082253D02*
X10513603Y-15082253D01*
X10513603Y-15082253D02*
X10532651Y-15091777D01*
X10608841Y-15291777D02*
X10618365Y-15282253D01*
X10618365Y-15282253D02*
X10637413Y-15253682D01*
X10637413Y-15253682D02*
X10646937Y-15234634D01*
X10646937Y-15234634D02*
X10656460Y-15206063D01*
X10656460Y-15206063D02*
X10665984Y-15158444D01*
X10665984Y-15158444D02*
X10665984Y-15120349D01*
X10665984Y-15120349D02*
X10656460Y-15072729D01*
X10656460Y-15072729D02*
X10646937Y-15044158D01*
X10646937Y-15044158D02*
X10637413Y-15025110D01*
X10637413Y-15025110D02*
X10618365Y-14996539D01*
X10618365Y-14996539D02*
X10608841Y-14987015D01*
X3562350Y-15319103D02*
X3562350Y-15519103D01*
X3462350Y-15419103D02*
X3662350Y-15419103D01*
X3904079Y-15310587D02*
X4027888Y-15310587D01*
X4027888Y-15310587D02*
X3961222Y-15386777D01*
X3961222Y-15386777D02*
X3989793Y-15386777D01*
X3989793Y-15386777D02*
X4008841Y-15396301D01*
X4008841Y-15396301D02*
X4018365Y-15405825D01*
X4018365Y-15405825D02*
X4027888Y-15424872D01*
X4027888Y-15424872D02*
X4027888Y-15472491D01*
X4027888Y-15472491D02*
X4018365Y-15491539D01*
X4018365Y-15491539D02*
X4008841Y-15501063D01*
X4008841Y-15501063D02*
X3989793Y-15510587D01*
X3989793Y-15510587D02*
X3932650Y-15510587D01*
X3932650Y-15510587D02*
X3913603Y-15501063D01*
X3913603Y-15501063D02*
X3904079Y-15491539D01*
X4113603Y-15491539D02*
X4123126Y-15501063D01*
X4123126Y-15501063D02*
X4113603Y-15510587D01*
X4113603Y-15510587D02*
X4104079Y-15501063D01*
X4104079Y-15501063D02*
X4113603Y-15491539D01*
X4113603Y-15491539D02*
X4113603Y-15510587D01*
X4246936Y-15310587D02*
X4265984Y-15310587D01*
X4265984Y-15310587D02*
X4285031Y-15320110D01*
X4285031Y-15320110D02*
X4294555Y-15329634D01*
X4294555Y-15329634D02*
X4304079Y-15348682D01*
X4304079Y-15348682D02*
X4313603Y-15386777D01*
X4313603Y-15386777D02*
X4313603Y-15434396D01*
X4313603Y-15434396D02*
X4304079Y-15472491D01*
X4304079Y-15472491D02*
X4294555Y-15491539D01*
X4294555Y-15491539D02*
X4285031Y-15501063D01*
X4285031Y-15501063D02*
X4265984Y-15510587D01*
X4265984Y-15510587D02*
X4246936Y-15510587D01*
X4246936Y-15510587D02*
X4227888Y-15501063D01*
X4227888Y-15501063D02*
X4218365Y-15491539D01*
X4218365Y-15491539D02*
X4208841Y-15472491D01*
X4208841Y-15472491D02*
X4199317Y-15434396D01*
X4199317Y-15434396D02*
X4199317Y-15386777D01*
X4199317Y-15386777D02*
X4208841Y-15348682D01*
X4208841Y-15348682D02*
X4218365Y-15329634D01*
X4218365Y-15329634D02*
X4227888Y-15320110D01*
X4227888Y-15320110D02*
X4246936Y-15310587D01*
X4437412Y-15310587D02*
X4456460Y-15310587D01*
X4456460Y-15310587D02*
X4475508Y-15320110D01*
X4475508Y-15320110D02*
X4485031Y-15329634D01*
X4485031Y-15329634D02*
X4494555Y-15348682D01*
X4494555Y-15348682D02*
X4504079Y-15386777D01*
X4504079Y-15386777D02*
X4504079Y-15434396D01*
X4504079Y-15434396D02*
X4494555Y-15472491D01*
X4494555Y-15472491D02*
X4485031Y-15491539D01*
X4485031Y-15491539D02*
X4475508Y-15501063D01*
X4475508Y-15501063D02*
X4456460Y-15510587D01*
X4456460Y-15510587D02*
X4437412Y-15510587D01*
X4437412Y-15510587D02*
X4418365Y-15501063D01*
X4418365Y-15501063D02*
X4408841Y-15491539D01*
X4408841Y-15491539D02*
X4399317Y-15472491D01*
X4399317Y-15472491D02*
X4389793Y-15434396D01*
X4389793Y-15434396D02*
X4389793Y-15386777D01*
X4389793Y-15386777D02*
X4399317Y-15348682D01*
X4399317Y-15348682D02*
X4408841Y-15329634D01*
X4408841Y-15329634D02*
X4418365Y-15320110D01*
X4418365Y-15320110D02*
X4437412Y-15310587D01*
X4627888Y-15310587D02*
X4646936Y-15310587D01*
X4646936Y-15310587D02*
X4665984Y-15320110D01*
X4665984Y-15320110D02*
X4675508Y-15329634D01*
X4675508Y-15329634D02*
X4685031Y-15348682D01*
X4685031Y-15348682D02*
X4694555Y-15386777D01*
X4694555Y-15386777D02*
X4694555Y-15434396D01*
X4694555Y-15434396D02*
X4685031Y-15472491D01*
X4685031Y-15472491D02*
X4675508Y-15491539D01*
X4675508Y-15491539D02*
X4665984Y-15501063D01*
X4665984Y-15501063D02*
X4646936Y-15510587D01*
X4646936Y-15510587D02*
X4627888Y-15510587D01*
X4627888Y-15510587D02*
X4608841Y-15501063D01*
X4608841Y-15501063D02*
X4599317Y-15491539D01*
X4599317Y-15491539D02*
X4589793Y-15472491D01*
X4589793Y-15472491D02*
X4580269Y-15434396D01*
X4580269Y-15434396D02*
X4580269Y-15386777D01*
X4580269Y-15386777D02*
X4589793Y-15348682D01*
X4589793Y-15348682D02*
X4599317Y-15329634D01*
X4599317Y-15329634D02*
X4608841Y-15320110D01*
X4608841Y-15320110D02*
X4627888Y-15310587D01*
X4780269Y-15510587D02*
X4780269Y-15377253D01*
X4780269Y-15396301D02*
X4789793Y-15386777D01*
X4789793Y-15386777D02*
X4808841Y-15377253D01*
X4808841Y-15377253D02*
X4837412Y-15377253D01*
X4837412Y-15377253D02*
X4856460Y-15386777D01*
X4856460Y-15386777D02*
X4865984Y-15405825D01*
X4865984Y-15405825D02*
X4865984Y-15510587D01*
X4865984Y-15405825D02*
X4875508Y-15386777D01*
X4875508Y-15386777D02*
X4894555Y-15377253D01*
X4894555Y-15377253D02*
X4923127Y-15377253D01*
X4923127Y-15377253D02*
X4942174Y-15386777D01*
X4942174Y-15386777D02*
X4951698Y-15405825D01*
X4951698Y-15405825D02*
X4951698Y-15510587D01*
X5046936Y-15510587D02*
X5046936Y-15377253D01*
X5046936Y-15396301D02*
X5056460Y-15386777D01*
X5056460Y-15386777D02*
X5075508Y-15377253D01*
X5075508Y-15377253D02*
X5104079Y-15377253D01*
X5104079Y-15377253D02*
X5123127Y-15386777D01*
X5123127Y-15386777D02*
X5132650Y-15405825D01*
X5132650Y-15405825D02*
X5132650Y-15510587D01*
X5132650Y-15405825D02*
X5142174Y-15386777D01*
X5142174Y-15386777D02*
X5161222Y-15377253D01*
X5161222Y-15377253D02*
X5189793Y-15377253D01*
X5189793Y-15377253D02*
X5208841Y-15386777D01*
X5208841Y-15386777D02*
X5218365Y-15405825D01*
X5218365Y-15405825D02*
X5218365Y-15510587D01*
X5608841Y-15301063D02*
X5437412Y-15558206D01*
X5865984Y-15310587D02*
X5885031Y-15310587D01*
X5885031Y-15310587D02*
X5904079Y-15320110D01*
X5904079Y-15320110D02*
X5913603Y-15329634D01*
X5913603Y-15329634D02*
X5923127Y-15348682D01*
X5923127Y-15348682D02*
X5932650Y-15386777D01*
X5932650Y-15386777D02*
X5932650Y-15434396D01*
X5932650Y-15434396D02*
X5923127Y-15472491D01*
X5923127Y-15472491D02*
X5913603Y-15491539D01*
X5913603Y-15491539D02*
X5904079Y-15501063D01*
X5904079Y-15501063D02*
X5885031Y-15510587D01*
X5885031Y-15510587D02*
X5865984Y-15510587D01*
X5865984Y-15510587D02*
X5846936Y-15501063D01*
X5846936Y-15501063D02*
X5837412Y-15491539D01*
X5837412Y-15491539D02*
X5827889Y-15472491D01*
X5827889Y-15472491D02*
X5818365Y-15434396D01*
X5818365Y-15434396D02*
X5818365Y-15386777D01*
X5818365Y-15386777D02*
X5827889Y-15348682D01*
X5827889Y-15348682D02*
X5837412Y-15329634D01*
X5837412Y-15329634D02*
X5846936Y-15320110D01*
X5846936Y-15320110D02*
X5865984Y-15310587D01*
X6018365Y-15491539D02*
X6027889Y-15501063D01*
X6027889Y-15501063D02*
X6018365Y-15510587D01*
X6018365Y-15510587D02*
X6008841Y-15501063D01*
X6008841Y-15501063D02*
X6018365Y-15491539D01*
X6018365Y-15491539D02*
X6018365Y-15510587D01*
X6218365Y-15510587D02*
X6104079Y-15510587D01*
X6161222Y-15510587D02*
X6161222Y-15310587D01*
X6161222Y-15310587D02*
X6142174Y-15339158D01*
X6142174Y-15339158D02*
X6123127Y-15358206D01*
X6123127Y-15358206D02*
X6104079Y-15367729D01*
X6408841Y-15510587D02*
X6294555Y-15510587D01*
X6351698Y-15510587D02*
X6351698Y-15310587D01*
X6351698Y-15310587D02*
X6332650Y-15339158D01*
X6332650Y-15339158D02*
X6313603Y-15358206D01*
X6313603Y-15358206D02*
X6294555Y-15367729D01*
X6523127Y-15396301D02*
X6504079Y-15386777D01*
X6504079Y-15386777D02*
X6494555Y-15377253D01*
X6494555Y-15377253D02*
X6485031Y-15358206D01*
X6485031Y-15358206D02*
X6485031Y-15348682D01*
X6485031Y-15348682D02*
X6494555Y-15329634D01*
X6494555Y-15329634D02*
X6504079Y-15320110D01*
X6504079Y-15320110D02*
X6523127Y-15310587D01*
X6523127Y-15310587D02*
X6561222Y-15310587D01*
X6561222Y-15310587D02*
X6580270Y-15320110D01*
X6580270Y-15320110D02*
X6589793Y-15329634D01*
X6589793Y-15329634D02*
X6599317Y-15348682D01*
X6599317Y-15348682D02*
X6599317Y-15358206D01*
X6599317Y-15358206D02*
X6589793Y-15377253D01*
X6589793Y-15377253D02*
X6580270Y-15386777D01*
X6580270Y-15386777D02*
X6561222Y-15396301D01*
X6561222Y-15396301D02*
X6523127Y-15396301D01*
X6523127Y-15396301D02*
X6504079Y-15405825D01*
X6504079Y-15405825D02*
X6494555Y-15415349D01*
X6494555Y-15415349D02*
X6485031Y-15434396D01*
X6485031Y-15434396D02*
X6485031Y-15472491D01*
X6485031Y-15472491D02*
X6494555Y-15491539D01*
X6494555Y-15491539D02*
X6504079Y-15501063D01*
X6504079Y-15501063D02*
X6523127Y-15510587D01*
X6523127Y-15510587D02*
X6561222Y-15510587D01*
X6561222Y-15510587D02*
X6580270Y-15501063D01*
X6580270Y-15501063D02*
X6589793Y-15491539D01*
X6589793Y-15491539D02*
X6599317Y-15472491D01*
X6599317Y-15472491D02*
X6599317Y-15434396D01*
X6599317Y-15434396D02*
X6589793Y-15415349D01*
X6589793Y-15415349D02*
X6580270Y-15405825D01*
X6580270Y-15405825D02*
X6561222Y-15396301D01*
X6789793Y-15510587D02*
X6675508Y-15510587D01*
X6732650Y-15510587D02*
X6732650Y-15310587D01*
X6732650Y-15310587D02*
X6713603Y-15339158D01*
X6713603Y-15339158D02*
X6694555Y-15358206D01*
X6694555Y-15358206D02*
X6675508Y-15367729D01*
X6865984Y-15310587D02*
X6865984Y-15348682D01*
X6942174Y-15310587D02*
X6942174Y-15348682D01*
X7237413Y-15586777D02*
X7227889Y-15577253D01*
X7227889Y-15577253D02*
X7208841Y-15548682D01*
X7208841Y-15548682D02*
X7199317Y-15529634D01*
X7199317Y-15529634D02*
X7189793Y-15501063D01*
X7189793Y-15501063D02*
X7180270Y-15453444D01*
X7180270Y-15453444D02*
X7180270Y-15415349D01*
X7180270Y-15415349D02*
X7189793Y-15367729D01*
X7189793Y-15367729D02*
X7199317Y-15339158D01*
X7199317Y-15339158D02*
X7208841Y-15320110D01*
X7208841Y-15320110D02*
X7227889Y-15291539D01*
X7227889Y-15291539D02*
X7237413Y-15282015D01*
X7399317Y-15377253D02*
X7399317Y-15510587D01*
X7351698Y-15301063D02*
X7304079Y-15443920D01*
X7304079Y-15443920D02*
X7427889Y-15443920D01*
X7532651Y-15396301D02*
X7513603Y-15386777D01*
X7513603Y-15386777D02*
X7504079Y-15377253D01*
X7504079Y-15377253D02*
X7494555Y-15358206D01*
X7494555Y-15358206D02*
X7494555Y-15348682D01*
X7494555Y-15348682D02*
X7504079Y-15329634D01*
X7504079Y-15329634D02*
X7513603Y-15320110D01*
X7513603Y-15320110D02*
X7532651Y-15310587D01*
X7532651Y-15310587D02*
X7570746Y-15310587D01*
X7570746Y-15310587D02*
X7589793Y-15320110D01*
X7589793Y-15320110D02*
X7599317Y-15329634D01*
X7599317Y-15329634D02*
X7608841Y-15348682D01*
X7608841Y-15348682D02*
X7608841Y-15358206D01*
X7608841Y-15358206D02*
X7599317Y-15377253D01*
X7599317Y-15377253D02*
X7589793Y-15386777D01*
X7589793Y-15386777D02*
X7570746Y-15396301D01*
X7570746Y-15396301D02*
X7532651Y-15396301D01*
X7532651Y-15396301D02*
X7513603Y-15405825D01*
X7513603Y-15405825D02*
X7504079Y-15415349D01*
X7504079Y-15415349D02*
X7494555Y-15434396D01*
X7494555Y-15434396D02*
X7494555Y-15472491D01*
X7494555Y-15472491D02*
X7504079Y-15491539D01*
X7504079Y-15491539D02*
X7513603Y-15501063D01*
X7513603Y-15501063D02*
X7532651Y-15510587D01*
X7532651Y-15510587D02*
X7570746Y-15510587D01*
X7570746Y-15510587D02*
X7589793Y-15501063D01*
X7589793Y-15501063D02*
X7599317Y-15491539D01*
X7599317Y-15491539D02*
X7608841Y-15472491D01*
X7608841Y-15472491D02*
X7608841Y-15434396D01*
X7608841Y-15434396D02*
X7599317Y-15415349D01*
X7599317Y-15415349D02*
X7589793Y-15405825D01*
X7589793Y-15405825D02*
X7570746Y-15396301D01*
X7846936Y-15510587D02*
X7846936Y-15310587D01*
X7932651Y-15510587D02*
X7932651Y-15405825D01*
X7932651Y-15405825D02*
X7923127Y-15386777D01*
X7923127Y-15386777D02*
X7904079Y-15377253D01*
X7904079Y-15377253D02*
X7875508Y-15377253D01*
X7875508Y-15377253D02*
X7856460Y-15386777D01*
X7856460Y-15386777D02*
X7846936Y-15396301D01*
X8056460Y-15510587D02*
X8037413Y-15501063D01*
X8037413Y-15501063D02*
X8027889Y-15491539D01*
X8027889Y-15491539D02*
X8018365Y-15472491D01*
X8018365Y-15472491D02*
X8018365Y-15415349D01*
X8018365Y-15415349D02*
X8027889Y-15396301D01*
X8027889Y-15396301D02*
X8037413Y-15386777D01*
X8037413Y-15386777D02*
X8056460Y-15377253D01*
X8056460Y-15377253D02*
X8085032Y-15377253D01*
X8085032Y-15377253D02*
X8104079Y-15386777D01*
X8104079Y-15386777D02*
X8113603Y-15396301D01*
X8113603Y-15396301D02*
X8123127Y-15415349D01*
X8123127Y-15415349D02*
X8123127Y-15472491D01*
X8123127Y-15472491D02*
X8113603Y-15491539D01*
X8113603Y-15491539D02*
X8104079Y-15501063D01*
X8104079Y-15501063D02*
X8085032Y-15510587D01*
X8085032Y-15510587D02*
X8056460Y-15510587D01*
X8237413Y-15510587D02*
X8218365Y-15501063D01*
X8218365Y-15501063D02*
X8208841Y-15482015D01*
X8208841Y-15482015D02*
X8208841Y-15310587D01*
X8389794Y-15501063D02*
X8370746Y-15510587D01*
X8370746Y-15510587D02*
X8332651Y-15510587D01*
X8332651Y-15510587D02*
X8313603Y-15501063D01*
X8313603Y-15501063D02*
X8304079Y-15482015D01*
X8304079Y-15482015D02*
X8304079Y-15405825D01*
X8304079Y-15405825D02*
X8313603Y-15386777D01*
X8313603Y-15386777D02*
X8332651Y-15377253D01*
X8332651Y-15377253D02*
X8370746Y-15377253D01*
X8370746Y-15377253D02*
X8389794Y-15386777D01*
X8389794Y-15386777D02*
X8399317Y-15405825D01*
X8399317Y-15405825D02*
X8399317Y-15424872D01*
X8399317Y-15424872D02*
X8304079Y-15443920D01*
X8475508Y-15501063D02*
X8494556Y-15510587D01*
X8494556Y-15510587D02*
X8532651Y-15510587D01*
X8532651Y-15510587D02*
X8551698Y-15501063D01*
X8551698Y-15501063D02*
X8561222Y-15482015D01*
X8561222Y-15482015D02*
X8561222Y-15472491D01*
X8561222Y-15472491D02*
X8551698Y-15453444D01*
X8551698Y-15453444D02*
X8532651Y-15443920D01*
X8532651Y-15443920D02*
X8504079Y-15443920D01*
X8504079Y-15443920D02*
X8485032Y-15434396D01*
X8485032Y-15434396D02*
X8475508Y-15415349D01*
X8475508Y-15415349D02*
X8475508Y-15405825D01*
X8475508Y-15405825D02*
X8485032Y-15386777D01*
X8485032Y-15386777D02*
X8504079Y-15377253D01*
X8504079Y-15377253D02*
X8532651Y-15377253D01*
X8532651Y-15377253D02*
X8551698Y-15386777D01*
X8627889Y-15586777D02*
X8637413Y-15577253D01*
X8637413Y-15577253D02*
X8656460Y-15548682D01*
X8656460Y-15548682D02*
X8665984Y-15529634D01*
X8665984Y-15529634D02*
X8675508Y-15501063D01*
X8675508Y-15501063D02*
X8685032Y-15453444D01*
X8685032Y-15453444D02*
X8685032Y-15415349D01*
X8685032Y-15415349D02*
X8675508Y-15367729D01*
X8675508Y-15367729D02*
X8665984Y-15339158D01*
X8665984Y-15339158D02*
X8656460Y-15320110D01*
X8656460Y-15320110D02*
X8637413Y-15291539D01*
X8637413Y-15291539D02*
X8627889Y-15282015D01*
X8989794Y-15586777D02*
X8980270Y-15577253D01*
X8980270Y-15577253D02*
X8961222Y-15548682D01*
X8961222Y-15548682D02*
X8951698Y-15529634D01*
X8951698Y-15529634D02*
X8942175Y-15501063D01*
X8942175Y-15501063D02*
X8932651Y-15453444D01*
X8932651Y-15453444D02*
X8932651Y-15415349D01*
X8932651Y-15415349D02*
X8942175Y-15367729D01*
X8942175Y-15367729D02*
X8951698Y-15339158D01*
X8951698Y-15339158D02*
X8961222Y-15320110D01*
X8961222Y-15320110D02*
X8980270Y-15291539D01*
X8980270Y-15291539D02*
X8989794Y-15282015D01*
X9065984Y-15377253D02*
X9065984Y-15510587D01*
X9065984Y-15396301D02*
X9075508Y-15386777D01*
X9075508Y-15386777D02*
X9094556Y-15377253D01*
X9094556Y-15377253D02*
X9123127Y-15377253D01*
X9123127Y-15377253D02*
X9142175Y-15386777D01*
X9142175Y-15386777D02*
X9151698Y-15405825D01*
X9151698Y-15405825D02*
X9151698Y-15510587D01*
X9275508Y-15510587D02*
X9256460Y-15501063D01*
X9256460Y-15501063D02*
X9246937Y-15491539D01*
X9246937Y-15491539D02*
X9237413Y-15472491D01*
X9237413Y-15472491D02*
X9237413Y-15415349D01*
X9237413Y-15415349D02*
X9246937Y-15396301D01*
X9246937Y-15396301D02*
X9256460Y-15386777D01*
X9256460Y-15386777D02*
X9275508Y-15377253D01*
X9275508Y-15377253D02*
X9304079Y-15377253D01*
X9304079Y-15377253D02*
X9323127Y-15386777D01*
X9323127Y-15386777D02*
X9332651Y-15396301D01*
X9332651Y-15396301D02*
X9342175Y-15415349D01*
X9342175Y-15415349D02*
X9342175Y-15472491D01*
X9342175Y-15472491D02*
X9332651Y-15491539D01*
X9332651Y-15491539D02*
X9323127Y-15501063D01*
X9323127Y-15501063D02*
X9304079Y-15510587D01*
X9304079Y-15510587D02*
X9275508Y-15510587D01*
X9399318Y-15377253D02*
X9475508Y-15377253D01*
X9427889Y-15310587D02*
X9427889Y-15482015D01*
X9427889Y-15482015D02*
X9437413Y-15501063D01*
X9437413Y-15501063D02*
X9456460Y-15510587D01*
X9456460Y-15510587D02*
X9475508Y-15510587D01*
X9694556Y-15377253D02*
X9694556Y-15577253D01*
X9694556Y-15386777D02*
X9713603Y-15377253D01*
X9713603Y-15377253D02*
X9751699Y-15377253D01*
X9751699Y-15377253D02*
X9770746Y-15386777D01*
X9770746Y-15386777D02*
X9780270Y-15396301D01*
X9780270Y-15396301D02*
X9789794Y-15415349D01*
X9789794Y-15415349D02*
X9789794Y-15472491D01*
X9789794Y-15472491D02*
X9780270Y-15491539D01*
X9780270Y-15491539D02*
X9770746Y-15501063D01*
X9770746Y-15501063D02*
X9751699Y-15510587D01*
X9751699Y-15510587D02*
X9713603Y-15510587D01*
X9713603Y-15510587D02*
X9694556Y-15501063D01*
X9904079Y-15510587D02*
X9885032Y-15501063D01*
X9885032Y-15501063D02*
X9875508Y-15482015D01*
X9875508Y-15482015D02*
X9875508Y-15310587D01*
X10065984Y-15510587D02*
X10065984Y-15405825D01*
X10065984Y-15405825D02*
X10056460Y-15386777D01*
X10056460Y-15386777D02*
X10037413Y-15377253D01*
X10037413Y-15377253D02*
X9999318Y-15377253D01*
X9999318Y-15377253D02*
X9980270Y-15386777D01*
X10065984Y-15501063D02*
X10046937Y-15510587D01*
X10046937Y-15510587D02*
X9999318Y-15510587D01*
X9999318Y-15510587D02*
X9980270Y-15501063D01*
X9980270Y-15501063D02*
X9970746Y-15482015D01*
X9970746Y-15482015D02*
X9970746Y-15462968D01*
X9970746Y-15462968D02*
X9980270Y-15443920D01*
X9980270Y-15443920D02*
X9999318Y-15434396D01*
X9999318Y-15434396D02*
X10046937Y-15434396D01*
X10046937Y-15434396D02*
X10065984Y-15424872D01*
X10132651Y-15377253D02*
X10208841Y-15377253D01*
X10161222Y-15310587D02*
X10161222Y-15482015D01*
X10161222Y-15482015D02*
X10170746Y-15501063D01*
X10170746Y-15501063D02*
X10189794Y-15510587D01*
X10189794Y-15510587D02*
X10208841Y-15510587D01*
X10351699Y-15501063D02*
X10332651Y-15510587D01*
X10332651Y-15510587D02*
X10294556Y-15510587D01*
X10294556Y-15510587D02*
X10275508Y-15501063D01*
X10275508Y-15501063D02*
X10265984Y-15482015D01*
X10265984Y-15482015D02*
X10265984Y-15405825D01*
X10265984Y-15405825D02*
X10275508Y-15386777D01*
X10275508Y-15386777D02*
X10294556Y-15377253D01*
X10294556Y-15377253D02*
X10332651Y-15377253D01*
X10332651Y-15377253D02*
X10351699Y-15386777D01*
X10351699Y-15386777D02*
X10361222Y-15405825D01*
X10361222Y-15405825D02*
X10361222Y-15424872D01*
X10361222Y-15424872D02*
X10265984Y-15443920D01*
X10532651Y-15510587D02*
X10532651Y-15310587D01*
X10532651Y-15501063D02*
X10513603Y-15510587D01*
X10513603Y-15510587D02*
X10475508Y-15510587D01*
X10475508Y-15510587D02*
X10456460Y-15501063D01*
X10456460Y-15501063D02*
X10446937Y-15491539D01*
X10446937Y-15491539D02*
X10437413Y-15472491D01*
X10437413Y-15472491D02*
X10437413Y-15415349D01*
X10437413Y-15415349D02*
X10446937Y-15396301D01*
X10446937Y-15396301D02*
X10456460Y-15386777D01*
X10456460Y-15386777D02*
X10475508Y-15377253D01*
X10475508Y-15377253D02*
X10513603Y-15377253D01*
X10513603Y-15377253D02*
X10532651Y-15386777D01*
X10608841Y-15586777D02*
X10618365Y-15577253D01*
X10618365Y-15577253D02*
X10637413Y-15548682D01*
X10637413Y-15548682D02*
X10646937Y-15529634D01*
X10646937Y-15529634D02*
X10656460Y-15501063D01*
X10656460Y-15501063D02*
X10665984Y-15453444D01*
X10665984Y-15453444D02*
X10665984Y-15415349D01*
X10665984Y-15415349D02*
X10656460Y-15367729D01*
X10656460Y-15367729D02*
X10646937Y-15339158D01*
X10646937Y-15339158D02*
X10637413Y-15320110D01*
X10637413Y-15320110D02*
X10618365Y-15291539D01*
X10618365Y-15291539D02*
X10608841Y-15282015D01*
X3633061Y-15809814D02*
X3633061Y-15668391D01*
X3491638Y-15668391D01*
X3491638Y-15809814D01*
X3633061Y-15809814D01*
X3904079Y-15630587D02*
X4027888Y-15630587D01*
X4027888Y-15630587D02*
X3961222Y-15706777D01*
X3961222Y-15706777D02*
X3989793Y-15706777D01*
X3989793Y-15706777D02*
X4008841Y-15716301D01*
X4008841Y-15716301D02*
X4018365Y-15725825D01*
X4018365Y-15725825D02*
X4027888Y-15744872D01*
X4027888Y-15744872D02*
X4027888Y-15792491D01*
X4027888Y-15792491D02*
X4018365Y-15811539D01*
X4018365Y-15811539D02*
X4008841Y-15821063D01*
X4008841Y-15821063D02*
X3989793Y-15830587D01*
X3989793Y-15830587D02*
X3932650Y-15830587D01*
X3932650Y-15830587D02*
X3913603Y-15821063D01*
X3913603Y-15821063D02*
X3904079Y-15811539D01*
X4113603Y-15811539D02*
X4123126Y-15821063D01*
X4123126Y-15821063D02*
X4113603Y-15830587D01*
X4113603Y-15830587D02*
X4104079Y-15821063D01*
X4104079Y-15821063D02*
X4113603Y-15811539D01*
X4113603Y-15811539D02*
X4113603Y-15830587D01*
X4304079Y-15630587D02*
X4208841Y-15630587D01*
X4208841Y-15630587D02*
X4199317Y-15725825D01*
X4199317Y-15725825D02*
X4208841Y-15716301D01*
X4208841Y-15716301D02*
X4227888Y-15706777D01*
X4227888Y-15706777D02*
X4275508Y-15706777D01*
X4275508Y-15706777D02*
X4294555Y-15716301D01*
X4294555Y-15716301D02*
X4304079Y-15725825D01*
X4304079Y-15725825D02*
X4313603Y-15744872D01*
X4313603Y-15744872D02*
X4313603Y-15792491D01*
X4313603Y-15792491D02*
X4304079Y-15811539D01*
X4304079Y-15811539D02*
X4294555Y-15821063D01*
X4294555Y-15821063D02*
X4275508Y-15830587D01*
X4275508Y-15830587D02*
X4227888Y-15830587D01*
X4227888Y-15830587D02*
X4208841Y-15821063D01*
X4208841Y-15821063D02*
X4199317Y-15811539D01*
X4437412Y-15630587D02*
X4456460Y-15630587D01*
X4456460Y-15630587D02*
X4475508Y-15640110D01*
X4475508Y-15640110D02*
X4485031Y-15649634D01*
X4485031Y-15649634D02*
X4494555Y-15668682D01*
X4494555Y-15668682D02*
X4504079Y-15706777D01*
X4504079Y-15706777D02*
X4504079Y-15754396D01*
X4504079Y-15754396D02*
X4494555Y-15792491D01*
X4494555Y-15792491D02*
X4485031Y-15811539D01*
X4485031Y-15811539D02*
X4475508Y-15821063D01*
X4475508Y-15821063D02*
X4456460Y-15830587D01*
X4456460Y-15830587D02*
X4437412Y-15830587D01*
X4437412Y-15830587D02*
X4418365Y-15821063D01*
X4418365Y-15821063D02*
X4408841Y-15811539D01*
X4408841Y-15811539D02*
X4399317Y-15792491D01*
X4399317Y-15792491D02*
X4389793Y-15754396D01*
X4389793Y-15754396D02*
X4389793Y-15706777D01*
X4389793Y-15706777D02*
X4399317Y-15668682D01*
X4399317Y-15668682D02*
X4408841Y-15649634D01*
X4408841Y-15649634D02*
X4418365Y-15640110D01*
X4418365Y-15640110D02*
X4437412Y-15630587D01*
X4627888Y-15630587D02*
X4646936Y-15630587D01*
X4646936Y-15630587D02*
X4665984Y-15640110D01*
X4665984Y-15640110D02*
X4675508Y-15649634D01*
X4675508Y-15649634D02*
X4685031Y-15668682D01*
X4685031Y-15668682D02*
X4694555Y-15706777D01*
X4694555Y-15706777D02*
X4694555Y-15754396D01*
X4694555Y-15754396D02*
X4685031Y-15792491D01*
X4685031Y-15792491D02*
X4675508Y-15811539D01*
X4675508Y-15811539D02*
X4665984Y-15821063D01*
X4665984Y-15821063D02*
X4646936Y-15830587D01*
X4646936Y-15830587D02*
X4627888Y-15830587D01*
X4627888Y-15830587D02*
X4608841Y-15821063D01*
X4608841Y-15821063D02*
X4599317Y-15811539D01*
X4599317Y-15811539D02*
X4589793Y-15792491D01*
X4589793Y-15792491D02*
X4580269Y-15754396D01*
X4580269Y-15754396D02*
X4580269Y-15706777D01*
X4580269Y-15706777D02*
X4589793Y-15668682D01*
X4589793Y-15668682D02*
X4599317Y-15649634D01*
X4599317Y-15649634D02*
X4608841Y-15640110D01*
X4608841Y-15640110D02*
X4627888Y-15630587D01*
X4780269Y-15830587D02*
X4780269Y-15697253D01*
X4780269Y-15716301D02*
X4789793Y-15706777D01*
X4789793Y-15706777D02*
X4808841Y-15697253D01*
X4808841Y-15697253D02*
X4837412Y-15697253D01*
X4837412Y-15697253D02*
X4856460Y-15706777D01*
X4856460Y-15706777D02*
X4865984Y-15725825D01*
X4865984Y-15725825D02*
X4865984Y-15830587D01*
X4865984Y-15725825D02*
X4875508Y-15706777D01*
X4875508Y-15706777D02*
X4894555Y-15697253D01*
X4894555Y-15697253D02*
X4923127Y-15697253D01*
X4923127Y-15697253D02*
X4942174Y-15706777D01*
X4942174Y-15706777D02*
X4951698Y-15725825D01*
X4951698Y-15725825D02*
X4951698Y-15830587D01*
X5046936Y-15830587D02*
X5046936Y-15697253D01*
X5046936Y-15716301D02*
X5056460Y-15706777D01*
X5056460Y-15706777D02*
X5075508Y-15697253D01*
X5075508Y-15697253D02*
X5104079Y-15697253D01*
X5104079Y-15697253D02*
X5123127Y-15706777D01*
X5123127Y-15706777D02*
X5132650Y-15725825D01*
X5132650Y-15725825D02*
X5132650Y-15830587D01*
X5132650Y-15725825D02*
X5142174Y-15706777D01*
X5142174Y-15706777D02*
X5161222Y-15697253D01*
X5161222Y-15697253D02*
X5189793Y-15697253D01*
X5189793Y-15697253D02*
X5208841Y-15706777D01*
X5208841Y-15706777D02*
X5218365Y-15725825D01*
X5218365Y-15725825D02*
X5218365Y-15830587D01*
X5608841Y-15621063D02*
X5437412Y-15878206D01*
X5865984Y-15630587D02*
X5885031Y-15630587D01*
X5885031Y-15630587D02*
X5904079Y-15640110D01*
X5904079Y-15640110D02*
X5913603Y-15649634D01*
X5913603Y-15649634D02*
X5923127Y-15668682D01*
X5923127Y-15668682D02*
X5932650Y-15706777D01*
X5932650Y-15706777D02*
X5932650Y-15754396D01*
X5932650Y-15754396D02*
X5923127Y-15792491D01*
X5923127Y-15792491D02*
X5913603Y-15811539D01*
X5913603Y-15811539D02*
X5904079Y-15821063D01*
X5904079Y-15821063D02*
X5885031Y-15830587D01*
X5885031Y-15830587D02*
X5865984Y-15830587D01*
X5865984Y-15830587D02*
X5846936Y-15821063D01*
X5846936Y-15821063D02*
X5837412Y-15811539D01*
X5837412Y-15811539D02*
X5827889Y-15792491D01*
X5827889Y-15792491D02*
X5818365Y-15754396D01*
X5818365Y-15754396D02*
X5818365Y-15706777D01*
X5818365Y-15706777D02*
X5827889Y-15668682D01*
X5827889Y-15668682D02*
X5837412Y-15649634D01*
X5837412Y-15649634D02*
X5846936Y-15640110D01*
X5846936Y-15640110D02*
X5865984Y-15630587D01*
X6018365Y-15811539D02*
X6027889Y-15821063D01*
X6027889Y-15821063D02*
X6018365Y-15830587D01*
X6018365Y-15830587D02*
X6008841Y-15821063D01*
X6008841Y-15821063D02*
X6018365Y-15811539D01*
X6018365Y-15811539D02*
X6018365Y-15830587D01*
X6218365Y-15830587D02*
X6104079Y-15830587D01*
X6161222Y-15830587D02*
X6161222Y-15630587D01*
X6161222Y-15630587D02*
X6142174Y-15659158D01*
X6142174Y-15659158D02*
X6123127Y-15678206D01*
X6123127Y-15678206D02*
X6104079Y-15687729D01*
X6285031Y-15630587D02*
X6408841Y-15630587D01*
X6408841Y-15630587D02*
X6342174Y-15706777D01*
X6342174Y-15706777D02*
X6370746Y-15706777D01*
X6370746Y-15706777D02*
X6389793Y-15716301D01*
X6389793Y-15716301D02*
X6399317Y-15725825D01*
X6399317Y-15725825D02*
X6408841Y-15744872D01*
X6408841Y-15744872D02*
X6408841Y-15792491D01*
X6408841Y-15792491D02*
X6399317Y-15811539D01*
X6399317Y-15811539D02*
X6389793Y-15821063D01*
X6389793Y-15821063D02*
X6370746Y-15830587D01*
X6370746Y-15830587D02*
X6313603Y-15830587D01*
X6313603Y-15830587D02*
X6294555Y-15821063D01*
X6294555Y-15821063D02*
X6285031Y-15811539D01*
X6475508Y-15630587D02*
X6608841Y-15630587D01*
X6608841Y-15630587D02*
X6523127Y-15830587D01*
X6713603Y-15716301D02*
X6694555Y-15706777D01*
X6694555Y-15706777D02*
X6685031Y-15697253D01*
X6685031Y-15697253D02*
X6675508Y-15678206D01*
X6675508Y-15678206D02*
X6675508Y-15668682D01*
X6675508Y-15668682D02*
X6685031Y-15649634D01*
X6685031Y-15649634D02*
X6694555Y-15640110D01*
X6694555Y-15640110D02*
X6713603Y-15630587D01*
X6713603Y-15630587D02*
X6751698Y-15630587D01*
X6751698Y-15630587D02*
X6770746Y-15640110D01*
X6770746Y-15640110D02*
X6780270Y-15649634D01*
X6780270Y-15649634D02*
X6789793Y-15668682D01*
X6789793Y-15668682D02*
X6789793Y-15678206D01*
X6789793Y-15678206D02*
X6780270Y-15697253D01*
X6780270Y-15697253D02*
X6770746Y-15706777D01*
X6770746Y-15706777D02*
X6751698Y-15716301D01*
X6751698Y-15716301D02*
X6713603Y-15716301D01*
X6713603Y-15716301D02*
X6694555Y-15725825D01*
X6694555Y-15725825D02*
X6685031Y-15735349D01*
X6685031Y-15735349D02*
X6675508Y-15754396D01*
X6675508Y-15754396D02*
X6675508Y-15792491D01*
X6675508Y-15792491D02*
X6685031Y-15811539D01*
X6685031Y-15811539D02*
X6694555Y-15821063D01*
X6694555Y-15821063D02*
X6713603Y-15830587D01*
X6713603Y-15830587D02*
X6751698Y-15830587D01*
X6751698Y-15830587D02*
X6770746Y-15821063D01*
X6770746Y-15821063D02*
X6780270Y-15811539D01*
X6780270Y-15811539D02*
X6789793Y-15792491D01*
X6789793Y-15792491D02*
X6789793Y-15754396D01*
X6789793Y-15754396D02*
X6780270Y-15735349D01*
X6780270Y-15735349D02*
X6770746Y-15725825D01*
X6770746Y-15725825D02*
X6751698Y-15716301D01*
X6865984Y-15630587D02*
X6865984Y-15668682D01*
X6942174Y-15630587D02*
X6942174Y-15668682D01*
X7237413Y-15906777D02*
X7227889Y-15897253D01*
X7227889Y-15897253D02*
X7208841Y-15868682D01*
X7208841Y-15868682D02*
X7199317Y-15849634D01*
X7199317Y-15849634D02*
X7189793Y-15821063D01*
X7189793Y-15821063D02*
X7180270Y-15773444D01*
X7180270Y-15773444D02*
X7180270Y-15735349D01*
X7180270Y-15735349D02*
X7189793Y-15687729D01*
X7189793Y-15687729D02*
X7199317Y-15659158D01*
X7199317Y-15659158D02*
X7208841Y-15640110D01*
X7208841Y-15640110D02*
X7227889Y-15611539D01*
X7227889Y-15611539D02*
X7237413Y-15602015D01*
X7399317Y-15630587D02*
X7361222Y-15630587D01*
X7361222Y-15630587D02*
X7342174Y-15640110D01*
X7342174Y-15640110D02*
X7332651Y-15649634D01*
X7332651Y-15649634D02*
X7313603Y-15678206D01*
X7313603Y-15678206D02*
X7304079Y-15716301D01*
X7304079Y-15716301D02*
X7304079Y-15792491D01*
X7304079Y-15792491D02*
X7313603Y-15811539D01*
X7313603Y-15811539D02*
X7323127Y-15821063D01*
X7323127Y-15821063D02*
X7342174Y-15830587D01*
X7342174Y-15830587D02*
X7380270Y-15830587D01*
X7380270Y-15830587D02*
X7399317Y-15821063D01*
X7399317Y-15821063D02*
X7408841Y-15811539D01*
X7408841Y-15811539D02*
X7418365Y-15792491D01*
X7418365Y-15792491D02*
X7418365Y-15744872D01*
X7418365Y-15744872D02*
X7408841Y-15725825D01*
X7408841Y-15725825D02*
X7399317Y-15716301D01*
X7399317Y-15716301D02*
X7380270Y-15706777D01*
X7380270Y-15706777D02*
X7342174Y-15706777D01*
X7342174Y-15706777D02*
X7323127Y-15716301D01*
X7323127Y-15716301D02*
X7313603Y-15725825D01*
X7313603Y-15725825D02*
X7304079Y-15744872D01*
X7656460Y-15830587D02*
X7656460Y-15630587D01*
X7742174Y-15830587D02*
X7742174Y-15725825D01*
X7742174Y-15725825D02*
X7732651Y-15706777D01*
X7732651Y-15706777D02*
X7713603Y-15697253D01*
X7713603Y-15697253D02*
X7685032Y-15697253D01*
X7685032Y-15697253D02*
X7665984Y-15706777D01*
X7665984Y-15706777D02*
X7656460Y-15716301D01*
X7865984Y-15830587D02*
X7846936Y-15821063D01*
X7846936Y-15821063D02*
X7837413Y-15811539D01*
X7837413Y-15811539D02*
X7827889Y-15792491D01*
X7827889Y-15792491D02*
X7827889Y-15735349D01*
X7827889Y-15735349D02*
X7837413Y-15716301D01*
X7837413Y-15716301D02*
X7846936Y-15706777D01*
X7846936Y-15706777D02*
X7865984Y-15697253D01*
X7865984Y-15697253D02*
X7894555Y-15697253D01*
X7894555Y-15697253D02*
X7913603Y-15706777D01*
X7913603Y-15706777D02*
X7923127Y-15716301D01*
X7923127Y-15716301D02*
X7932651Y-15735349D01*
X7932651Y-15735349D02*
X7932651Y-15792491D01*
X7932651Y-15792491D02*
X7923127Y-15811539D01*
X7923127Y-15811539D02*
X7913603Y-15821063D01*
X7913603Y-15821063D02*
X7894555Y-15830587D01*
X7894555Y-15830587D02*
X7865984Y-15830587D01*
X8046936Y-15830587D02*
X8027889Y-15821063D01*
X8027889Y-15821063D02*
X8018365Y-15802015D01*
X8018365Y-15802015D02*
X8018365Y-15630587D01*
X8199317Y-15821063D02*
X8180270Y-15830587D01*
X8180270Y-15830587D02*
X8142174Y-15830587D01*
X8142174Y-15830587D02*
X8123127Y-15821063D01*
X8123127Y-15821063D02*
X8113603Y-15802015D01*
X8113603Y-15802015D02*
X8113603Y-15725825D01*
X8113603Y-15725825D02*
X8123127Y-15706777D01*
X8123127Y-15706777D02*
X8142174Y-15697253D01*
X8142174Y-15697253D02*
X8180270Y-15697253D01*
X8180270Y-15697253D02*
X8199317Y-15706777D01*
X8199317Y-15706777D02*
X8208841Y-15725825D01*
X8208841Y-15725825D02*
X8208841Y-15744872D01*
X8208841Y-15744872D02*
X8113603Y-15763920D01*
X8285032Y-15821063D02*
X8304079Y-15830587D01*
X8304079Y-15830587D02*
X8342174Y-15830587D01*
X8342174Y-15830587D02*
X8361222Y-15821063D01*
X8361222Y-15821063D02*
X8370746Y-15802015D01*
X8370746Y-15802015D02*
X8370746Y-15792491D01*
X8370746Y-15792491D02*
X8361222Y-15773444D01*
X8361222Y-15773444D02*
X8342174Y-15763920D01*
X8342174Y-15763920D02*
X8313603Y-15763920D01*
X8313603Y-15763920D02*
X8294555Y-15754396D01*
X8294555Y-15754396D02*
X8285032Y-15735349D01*
X8285032Y-15735349D02*
X8285032Y-15725825D01*
X8285032Y-15725825D02*
X8294555Y-15706777D01*
X8294555Y-15706777D02*
X8313603Y-15697253D01*
X8313603Y-15697253D02*
X8342174Y-15697253D01*
X8342174Y-15697253D02*
X8361222Y-15706777D01*
X8437413Y-15906777D02*
X8446937Y-15897253D01*
X8446937Y-15897253D02*
X8465984Y-15868682D01*
X8465984Y-15868682D02*
X8475508Y-15849634D01*
X8475508Y-15849634D02*
X8485032Y-15821063D01*
X8485032Y-15821063D02*
X8494556Y-15773444D01*
X8494556Y-15773444D02*
X8494556Y-15735349D01*
X8494556Y-15735349D02*
X8485032Y-15687729D01*
X8485032Y-15687729D02*
X8475508Y-15659158D01*
X8475508Y-15659158D02*
X8465984Y-15640110D01*
X8465984Y-15640110D02*
X8446937Y-15611539D01*
X8446937Y-15611539D02*
X8437413Y-15602015D01*
X8799318Y-15906777D02*
X8789794Y-15897253D01*
X8789794Y-15897253D02*
X8770746Y-15868682D01*
X8770746Y-15868682D02*
X8761222Y-15849634D01*
X8761222Y-15849634D02*
X8751698Y-15821063D01*
X8751698Y-15821063D02*
X8742175Y-15773444D01*
X8742175Y-15773444D02*
X8742175Y-15735349D01*
X8742175Y-15735349D02*
X8751698Y-15687729D01*
X8751698Y-15687729D02*
X8761222Y-15659158D01*
X8761222Y-15659158D02*
X8770746Y-15640110D01*
X8770746Y-15640110D02*
X8789794Y-15611539D01*
X8789794Y-15611539D02*
X8799318Y-15602015D01*
X8875508Y-15697253D02*
X8875508Y-15830587D01*
X8875508Y-15716301D02*
X8885032Y-15706777D01*
X8885032Y-15706777D02*
X8904079Y-15697253D01*
X8904079Y-15697253D02*
X8932651Y-15697253D01*
X8932651Y-15697253D02*
X8951698Y-15706777D01*
X8951698Y-15706777D02*
X8961222Y-15725825D01*
X8961222Y-15725825D02*
X8961222Y-15830587D01*
X9085032Y-15830587D02*
X9065984Y-15821063D01*
X9065984Y-15821063D02*
X9056460Y-15811539D01*
X9056460Y-15811539D02*
X9046937Y-15792491D01*
X9046937Y-15792491D02*
X9046937Y-15735349D01*
X9046937Y-15735349D02*
X9056460Y-15716301D01*
X9056460Y-15716301D02*
X9065984Y-15706777D01*
X9065984Y-15706777D02*
X9085032Y-15697253D01*
X9085032Y-15697253D02*
X9113603Y-15697253D01*
X9113603Y-15697253D02*
X9132651Y-15706777D01*
X9132651Y-15706777D02*
X9142175Y-15716301D01*
X9142175Y-15716301D02*
X9151698Y-15735349D01*
X9151698Y-15735349D02*
X9151698Y-15792491D01*
X9151698Y-15792491D02*
X9142175Y-15811539D01*
X9142175Y-15811539D02*
X9132651Y-15821063D01*
X9132651Y-15821063D02*
X9113603Y-15830587D01*
X9113603Y-15830587D02*
X9085032Y-15830587D01*
X9208841Y-15697253D02*
X9285032Y-15697253D01*
X9237413Y-15630587D02*
X9237413Y-15802015D01*
X9237413Y-15802015D02*
X9246937Y-15821063D01*
X9246937Y-15821063D02*
X9265984Y-15830587D01*
X9265984Y-15830587D02*
X9285032Y-15830587D01*
X9504079Y-15697253D02*
X9504079Y-15897253D01*
X9504079Y-15706777D02*
X9523127Y-15697253D01*
X9523127Y-15697253D02*
X9561222Y-15697253D01*
X9561222Y-15697253D02*
X9580270Y-15706777D01*
X9580270Y-15706777D02*
X9589794Y-15716301D01*
X9589794Y-15716301D02*
X9599318Y-15735349D01*
X9599318Y-15735349D02*
X9599318Y-15792491D01*
X9599318Y-15792491D02*
X9589794Y-15811539D01*
X9589794Y-15811539D02*
X9580270Y-15821063D01*
X9580270Y-15821063D02*
X9561222Y-15830587D01*
X9561222Y-15830587D02*
X9523127Y-15830587D01*
X9523127Y-15830587D02*
X9504079Y-15821063D01*
X9713603Y-15830587D02*
X9694556Y-15821063D01*
X9694556Y-15821063D02*
X9685032Y-15802015D01*
X9685032Y-15802015D02*
X9685032Y-15630587D01*
X9875508Y-15830587D02*
X9875508Y-15725825D01*
X9875508Y-15725825D02*
X9865984Y-15706777D01*
X9865984Y-15706777D02*
X9846937Y-15697253D01*
X9846937Y-15697253D02*
X9808841Y-15697253D01*
X9808841Y-15697253D02*
X9789794Y-15706777D01*
X9875508Y-15821063D02*
X9856460Y-15830587D01*
X9856460Y-15830587D02*
X9808841Y-15830587D01*
X9808841Y-15830587D02*
X9789794Y-15821063D01*
X9789794Y-15821063D02*
X9780270Y-15802015D01*
X9780270Y-15802015D02*
X9780270Y-15782968D01*
X9780270Y-15782968D02*
X9789794Y-15763920D01*
X9789794Y-15763920D02*
X9808841Y-15754396D01*
X9808841Y-15754396D02*
X9856460Y-15754396D01*
X9856460Y-15754396D02*
X9875508Y-15744872D01*
X9942175Y-15697253D02*
X10018365Y-15697253D01*
X9970746Y-15630587D02*
X9970746Y-15802015D01*
X9970746Y-15802015D02*
X9980270Y-15821063D01*
X9980270Y-15821063D02*
X9999318Y-15830587D01*
X9999318Y-15830587D02*
X10018365Y-15830587D01*
X10161222Y-15821063D02*
X10142175Y-15830587D01*
X10142175Y-15830587D02*
X10104079Y-15830587D01*
X10104079Y-15830587D02*
X10085032Y-15821063D01*
X10085032Y-15821063D02*
X10075508Y-15802015D01*
X10075508Y-15802015D02*
X10075508Y-15725825D01*
X10075508Y-15725825D02*
X10085032Y-15706777D01*
X10085032Y-15706777D02*
X10104079Y-15697253D01*
X10104079Y-15697253D02*
X10142175Y-15697253D01*
X10142175Y-15697253D02*
X10161222Y-15706777D01*
X10161222Y-15706777D02*
X10170746Y-15725825D01*
X10170746Y-15725825D02*
X10170746Y-15744872D01*
X10170746Y-15744872D02*
X10075508Y-15763920D01*
X10342175Y-15830587D02*
X10342175Y-15630587D01*
X10342175Y-15821063D02*
X10323127Y-15830587D01*
X10323127Y-15830587D02*
X10285032Y-15830587D01*
X10285032Y-15830587D02*
X10265984Y-15821063D01*
X10265984Y-15821063D02*
X10256460Y-15811539D01*
X10256460Y-15811539D02*
X10246937Y-15792491D01*
X10246937Y-15792491D02*
X10246937Y-15735349D01*
X10246937Y-15735349D02*
X10256460Y-15716301D01*
X10256460Y-15716301D02*
X10265984Y-15706777D01*
X10265984Y-15706777D02*
X10285032Y-15697253D01*
X10285032Y-15697253D02*
X10323127Y-15697253D01*
X10323127Y-15697253D02*
X10342175Y-15706777D01*
X10418365Y-15906777D02*
X10427889Y-15897253D01*
X10427889Y-15897253D02*
X10446937Y-15868682D01*
X10446937Y-15868682D02*
X10456460Y-15849634D01*
X10456460Y-15849634D02*
X10465984Y-15821063D01*
X10465984Y-15821063D02*
X10475508Y-15773444D01*
X10475508Y-15773444D02*
X10475508Y-15735349D01*
X10475508Y-15735349D02*
X10465984Y-15687729D01*
X10465984Y-15687729D02*
X10456460Y-15659158D01*
X10456460Y-15659158D02*
X10446937Y-15640110D01*
X10446937Y-15640110D02*
X10427889Y-15611539D01*
X10427889Y-15611539D02*
X10418365Y-15602015D01*
X3562350Y-16159103D02*
X3662350Y-16059103D01*
X3562350Y-15959103D01*
X3462350Y-16059103D01*
X3562350Y-16159103D01*
X4018365Y-15950587D02*
X3923126Y-15950587D01*
X3923126Y-15950587D02*
X3913603Y-16045825D01*
X3913603Y-16045825D02*
X3923126Y-16036301D01*
X3923126Y-16036301D02*
X3942174Y-16026777D01*
X3942174Y-16026777D02*
X3989793Y-16026777D01*
X3989793Y-16026777D02*
X4008841Y-16036301D01*
X4008841Y-16036301D02*
X4018365Y-16045825D01*
X4018365Y-16045825D02*
X4027888Y-16064872D01*
X4027888Y-16064872D02*
X4027888Y-16112491D01*
X4027888Y-16112491D02*
X4018365Y-16131539D01*
X4018365Y-16131539D02*
X4008841Y-16141063D01*
X4008841Y-16141063D02*
X3989793Y-16150587D01*
X3989793Y-16150587D02*
X3942174Y-16150587D01*
X3942174Y-16150587D02*
X3923126Y-16141063D01*
X3923126Y-16141063D02*
X3913603Y-16131539D01*
X4113603Y-16131539D02*
X4123126Y-16141063D01*
X4123126Y-16141063D02*
X4113603Y-16150587D01*
X4113603Y-16150587D02*
X4104079Y-16141063D01*
X4104079Y-16141063D02*
X4113603Y-16131539D01*
X4113603Y-16131539D02*
X4113603Y-16150587D01*
X4246936Y-15950587D02*
X4265984Y-15950587D01*
X4265984Y-15950587D02*
X4285031Y-15960110D01*
X4285031Y-15960110D02*
X4294555Y-15969634D01*
X4294555Y-15969634D02*
X4304079Y-15988682D01*
X4304079Y-15988682D02*
X4313603Y-16026777D01*
X4313603Y-16026777D02*
X4313603Y-16074396D01*
X4313603Y-16074396D02*
X4304079Y-16112491D01*
X4304079Y-16112491D02*
X4294555Y-16131539D01*
X4294555Y-16131539D02*
X4285031Y-16141063D01*
X4285031Y-16141063D02*
X4265984Y-16150587D01*
X4265984Y-16150587D02*
X4246936Y-16150587D01*
X4246936Y-16150587D02*
X4227888Y-16141063D01*
X4227888Y-16141063D02*
X4218365Y-16131539D01*
X4218365Y-16131539D02*
X4208841Y-16112491D01*
X4208841Y-16112491D02*
X4199317Y-16074396D01*
X4199317Y-16074396D02*
X4199317Y-16026777D01*
X4199317Y-16026777D02*
X4208841Y-15988682D01*
X4208841Y-15988682D02*
X4218365Y-15969634D01*
X4218365Y-15969634D02*
X4227888Y-15960110D01*
X4227888Y-15960110D02*
X4246936Y-15950587D01*
X4485031Y-15950587D02*
X4446936Y-15950587D01*
X4446936Y-15950587D02*
X4427888Y-15960110D01*
X4427888Y-15960110D02*
X4418365Y-15969634D01*
X4418365Y-15969634D02*
X4399317Y-15998206D01*
X4399317Y-15998206D02*
X4389793Y-16036301D01*
X4389793Y-16036301D02*
X4389793Y-16112491D01*
X4389793Y-16112491D02*
X4399317Y-16131539D01*
X4399317Y-16131539D02*
X4408841Y-16141063D01*
X4408841Y-16141063D02*
X4427888Y-16150587D01*
X4427888Y-16150587D02*
X4465984Y-16150587D01*
X4465984Y-16150587D02*
X4485031Y-16141063D01*
X4485031Y-16141063D02*
X4494555Y-16131539D01*
X4494555Y-16131539D02*
X4504079Y-16112491D01*
X4504079Y-16112491D02*
X4504079Y-16064872D01*
X4504079Y-16064872D02*
X4494555Y-16045825D01*
X4494555Y-16045825D02*
X4485031Y-16036301D01*
X4485031Y-16036301D02*
X4465984Y-16026777D01*
X4465984Y-16026777D02*
X4427888Y-16026777D01*
X4427888Y-16026777D02*
X4408841Y-16036301D01*
X4408841Y-16036301D02*
X4399317Y-16045825D01*
X4399317Y-16045825D02*
X4389793Y-16064872D01*
X4627888Y-15950587D02*
X4646936Y-15950587D01*
X4646936Y-15950587D02*
X4665984Y-15960110D01*
X4665984Y-15960110D02*
X4675508Y-15969634D01*
X4675508Y-15969634D02*
X4685031Y-15988682D01*
X4685031Y-15988682D02*
X4694555Y-16026777D01*
X4694555Y-16026777D02*
X4694555Y-16074396D01*
X4694555Y-16074396D02*
X4685031Y-16112491D01*
X4685031Y-16112491D02*
X4675508Y-16131539D01*
X4675508Y-16131539D02*
X4665984Y-16141063D01*
X4665984Y-16141063D02*
X4646936Y-16150587D01*
X4646936Y-16150587D02*
X4627888Y-16150587D01*
X4627888Y-16150587D02*
X4608841Y-16141063D01*
X4608841Y-16141063D02*
X4599317Y-16131539D01*
X4599317Y-16131539D02*
X4589793Y-16112491D01*
X4589793Y-16112491D02*
X4580269Y-16074396D01*
X4580269Y-16074396D02*
X4580269Y-16026777D01*
X4580269Y-16026777D02*
X4589793Y-15988682D01*
X4589793Y-15988682D02*
X4599317Y-15969634D01*
X4599317Y-15969634D02*
X4608841Y-15960110D01*
X4608841Y-15960110D02*
X4627888Y-15950587D01*
X4780269Y-16150587D02*
X4780269Y-16017253D01*
X4780269Y-16036301D02*
X4789793Y-16026777D01*
X4789793Y-16026777D02*
X4808841Y-16017253D01*
X4808841Y-16017253D02*
X4837412Y-16017253D01*
X4837412Y-16017253D02*
X4856460Y-16026777D01*
X4856460Y-16026777D02*
X4865984Y-16045825D01*
X4865984Y-16045825D02*
X4865984Y-16150587D01*
X4865984Y-16045825D02*
X4875508Y-16026777D01*
X4875508Y-16026777D02*
X4894555Y-16017253D01*
X4894555Y-16017253D02*
X4923127Y-16017253D01*
X4923127Y-16017253D02*
X4942174Y-16026777D01*
X4942174Y-16026777D02*
X4951698Y-16045825D01*
X4951698Y-16045825D02*
X4951698Y-16150587D01*
X5046936Y-16150587D02*
X5046936Y-16017253D01*
X5046936Y-16036301D02*
X5056460Y-16026777D01*
X5056460Y-16026777D02*
X5075508Y-16017253D01*
X5075508Y-16017253D02*
X5104079Y-16017253D01*
X5104079Y-16017253D02*
X5123127Y-16026777D01*
X5123127Y-16026777D02*
X5132650Y-16045825D01*
X5132650Y-16045825D02*
X5132650Y-16150587D01*
X5132650Y-16045825D02*
X5142174Y-16026777D01*
X5142174Y-16026777D02*
X5161222Y-16017253D01*
X5161222Y-16017253D02*
X5189793Y-16017253D01*
X5189793Y-16017253D02*
X5208841Y-16026777D01*
X5208841Y-16026777D02*
X5218365Y-16045825D01*
X5218365Y-16045825D02*
X5218365Y-16150587D01*
X5608841Y-15941063D02*
X5437412Y-16198206D01*
X5865984Y-15950587D02*
X5885031Y-15950587D01*
X5885031Y-15950587D02*
X5904079Y-15960110D01*
X5904079Y-15960110D02*
X5913603Y-15969634D01*
X5913603Y-15969634D02*
X5923127Y-15988682D01*
X5923127Y-15988682D02*
X5932650Y-16026777D01*
X5932650Y-16026777D02*
X5932650Y-16074396D01*
X5932650Y-16074396D02*
X5923127Y-16112491D01*
X5923127Y-16112491D02*
X5913603Y-16131539D01*
X5913603Y-16131539D02*
X5904079Y-16141063D01*
X5904079Y-16141063D02*
X5885031Y-16150587D01*
X5885031Y-16150587D02*
X5865984Y-16150587D01*
X5865984Y-16150587D02*
X5846936Y-16141063D01*
X5846936Y-16141063D02*
X5837412Y-16131539D01*
X5837412Y-16131539D02*
X5827889Y-16112491D01*
X5827889Y-16112491D02*
X5818365Y-16074396D01*
X5818365Y-16074396D02*
X5818365Y-16026777D01*
X5818365Y-16026777D02*
X5827889Y-15988682D01*
X5827889Y-15988682D02*
X5837412Y-15969634D01*
X5837412Y-15969634D02*
X5846936Y-15960110D01*
X5846936Y-15960110D02*
X5865984Y-15950587D01*
X6018365Y-16131539D02*
X6027889Y-16141063D01*
X6027889Y-16141063D02*
X6018365Y-16150587D01*
X6018365Y-16150587D02*
X6008841Y-16141063D01*
X6008841Y-16141063D02*
X6018365Y-16131539D01*
X6018365Y-16131539D02*
X6018365Y-16150587D01*
X6218365Y-16150587D02*
X6104079Y-16150587D01*
X6161222Y-16150587D02*
X6161222Y-15950587D01*
X6161222Y-15950587D02*
X6142174Y-15979158D01*
X6142174Y-15979158D02*
X6123127Y-15998206D01*
X6123127Y-15998206D02*
X6104079Y-16007729D01*
X6313603Y-16150587D02*
X6351698Y-16150587D01*
X6351698Y-16150587D02*
X6370746Y-16141063D01*
X6370746Y-16141063D02*
X6380270Y-16131539D01*
X6380270Y-16131539D02*
X6399317Y-16102968D01*
X6399317Y-16102968D02*
X6408841Y-16064872D01*
X6408841Y-16064872D02*
X6408841Y-15988682D01*
X6408841Y-15988682D02*
X6399317Y-15969634D01*
X6399317Y-15969634D02*
X6389793Y-15960110D01*
X6389793Y-15960110D02*
X6370746Y-15950587D01*
X6370746Y-15950587D02*
X6332650Y-15950587D01*
X6332650Y-15950587D02*
X6313603Y-15960110D01*
X6313603Y-15960110D02*
X6304079Y-15969634D01*
X6304079Y-15969634D02*
X6294555Y-15988682D01*
X6294555Y-15988682D02*
X6294555Y-16036301D01*
X6294555Y-16036301D02*
X6304079Y-16055349D01*
X6304079Y-16055349D02*
X6313603Y-16064872D01*
X6313603Y-16064872D02*
X6332650Y-16074396D01*
X6332650Y-16074396D02*
X6370746Y-16074396D01*
X6370746Y-16074396D02*
X6389793Y-16064872D01*
X6389793Y-16064872D02*
X6399317Y-16055349D01*
X6399317Y-16055349D02*
X6408841Y-16036301D01*
X6504079Y-16150587D02*
X6542174Y-16150587D01*
X6542174Y-16150587D02*
X6561222Y-16141063D01*
X6561222Y-16141063D02*
X6570746Y-16131539D01*
X6570746Y-16131539D02*
X6589793Y-16102968D01*
X6589793Y-16102968D02*
X6599317Y-16064872D01*
X6599317Y-16064872D02*
X6599317Y-15988682D01*
X6599317Y-15988682D02*
X6589793Y-15969634D01*
X6589793Y-15969634D02*
X6580270Y-15960110D01*
X6580270Y-15960110D02*
X6561222Y-15950587D01*
X6561222Y-15950587D02*
X6523127Y-15950587D01*
X6523127Y-15950587D02*
X6504079Y-15960110D01*
X6504079Y-15960110D02*
X6494555Y-15969634D01*
X6494555Y-15969634D02*
X6485031Y-15988682D01*
X6485031Y-15988682D02*
X6485031Y-16036301D01*
X6485031Y-16036301D02*
X6494555Y-16055349D01*
X6494555Y-16055349D02*
X6504079Y-16064872D01*
X6504079Y-16064872D02*
X6523127Y-16074396D01*
X6523127Y-16074396D02*
X6561222Y-16074396D01*
X6561222Y-16074396D02*
X6580270Y-16064872D01*
X6580270Y-16064872D02*
X6589793Y-16055349D01*
X6589793Y-16055349D02*
X6599317Y-16036301D01*
X6675508Y-15969634D02*
X6685031Y-15960110D01*
X6685031Y-15960110D02*
X6704079Y-15950587D01*
X6704079Y-15950587D02*
X6751698Y-15950587D01*
X6751698Y-15950587D02*
X6770746Y-15960110D01*
X6770746Y-15960110D02*
X6780270Y-15969634D01*
X6780270Y-15969634D02*
X6789793Y-15988682D01*
X6789793Y-15988682D02*
X6789793Y-16007729D01*
X6789793Y-16007729D02*
X6780270Y-16036301D01*
X6780270Y-16036301D02*
X6665984Y-16150587D01*
X6665984Y-16150587D02*
X6789793Y-16150587D01*
X6865984Y-15950587D02*
X6865984Y-15988682D01*
X6942174Y-15950587D02*
X6942174Y-15988682D01*
X7237413Y-16226777D02*
X7227889Y-16217253D01*
X7227889Y-16217253D02*
X7208841Y-16188682D01*
X7208841Y-16188682D02*
X7199317Y-16169634D01*
X7199317Y-16169634D02*
X7189793Y-16141063D01*
X7189793Y-16141063D02*
X7180270Y-16093444D01*
X7180270Y-16093444D02*
X7180270Y-16055349D01*
X7180270Y-16055349D02*
X7189793Y-16007729D01*
X7189793Y-16007729D02*
X7199317Y-15979158D01*
X7199317Y-15979158D02*
X7208841Y-15960110D01*
X7208841Y-15960110D02*
X7227889Y-15931539D01*
X7227889Y-15931539D02*
X7237413Y-15922015D01*
X7418365Y-16150587D02*
X7304079Y-16150587D01*
X7361222Y-16150587D02*
X7361222Y-15950587D01*
X7361222Y-15950587D02*
X7342174Y-15979158D01*
X7342174Y-15979158D02*
X7323127Y-15998206D01*
X7323127Y-15998206D02*
X7304079Y-16007729D01*
X7494555Y-15969634D02*
X7504079Y-15960110D01*
X7504079Y-15960110D02*
X7523127Y-15950587D01*
X7523127Y-15950587D02*
X7570746Y-15950587D01*
X7570746Y-15950587D02*
X7589793Y-15960110D01*
X7589793Y-15960110D02*
X7599317Y-15969634D01*
X7599317Y-15969634D02*
X7608841Y-15988682D01*
X7608841Y-15988682D02*
X7608841Y-16007729D01*
X7608841Y-16007729D02*
X7599317Y-16036301D01*
X7599317Y-16036301D02*
X7485032Y-16150587D01*
X7485032Y-16150587D02*
X7608841Y-16150587D01*
X7846936Y-16150587D02*
X7846936Y-15950587D01*
X7932651Y-16150587D02*
X7932651Y-16045825D01*
X7932651Y-16045825D02*
X7923127Y-16026777D01*
X7923127Y-16026777D02*
X7904079Y-16017253D01*
X7904079Y-16017253D02*
X7875508Y-16017253D01*
X7875508Y-16017253D02*
X7856460Y-16026777D01*
X7856460Y-16026777D02*
X7846936Y-16036301D01*
X8056460Y-16150587D02*
X8037413Y-16141063D01*
X8037413Y-16141063D02*
X8027889Y-16131539D01*
X8027889Y-16131539D02*
X8018365Y-16112491D01*
X8018365Y-16112491D02*
X8018365Y-16055349D01*
X8018365Y-16055349D02*
X8027889Y-16036301D01*
X8027889Y-16036301D02*
X8037413Y-16026777D01*
X8037413Y-16026777D02*
X8056460Y-16017253D01*
X8056460Y-16017253D02*
X8085032Y-16017253D01*
X8085032Y-16017253D02*
X8104079Y-16026777D01*
X8104079Y-16026777D02*
X8113603Y-16036301D01*
X8113603Y-16036301D02*
X8123127Y-16055349D01*
X8123127Y-16055349D02*
X8123127Y-16112491D01*
X8123127Y-16112491D02*
X8113603Y-16131539D01*
X8113603Y-16131539D02*
X8104079Y-16141063D01*
X8104079Y-16141063D02*
X8085032Y-16150587D01*
X8085032Y-16150587D02*
X8056460Y-16150587D01*
X8237413Y-16150587D02*
X8218365Y-16141063D01*
X8218365Y-16141063D02*
X8208841Y-16122015D01*
X8208841Y-16122015D02*
X8208841Y-15950587D01*
X8389794Y-16141063D02*
X8370746Y-16150587D01*
X8370746Y-16150587D02*
X8332651Y-16150587D01*
X8332651Y-16150587D02*
X8313603Y-16141063D01*
X8313603Y-16141063D02*
X8304079Y-16122015D01*
X8304079Y-16122015D02*
X8304079Y-16045825D01*
X8304079Y-16045825D02*
X8313603Y-16026777D01*
X8313603Y-16026777D02*
X8332651Y-16017253D01*
X8332651Y-16017253D02*
X8370746Y-16017253D01*
X8370746Y-16017253D02*
X8389794Y-16026777D01*
X8389794Y-16026777D02*
X8399317Y-16045825D01*
X8399317Y-16045825D02*
X8399317Y-16064872D01*
X8399317Y-16064872D02*
X8304079Y-16083920D01*
X8475508Y-16141063D02*
X8494556Y-16150587D01*
X8494556Y-16150587D02*
X8532651Y-16150587D01*
X8532651Y-16150587D02*
X8551698Y-16141063D01*
X8551698Y-16141063D02*
X8561222Y-16122015D01*
X8561222Y-16122015D02*
X8561222Y-16112491D01*
X8561222Y-16112491D02*
X8551698Y-16093444D01*
X8551698Y-16093444D02*
X8532651Y-16083920D01*
X8532651Y-16083920D02*
X8504079Y-16083920D01*
X8504079Y-16083920D02*
X8485032Y-16074396D01*
X8485032Y-16074396D02*
X8475508Y-16055349D01*
X8475508Y-16055349D02*
X8475508Y-16045825D01*
X8475508Y-16045825D02*
X8485032Y-16026777D01*
X8485032Y-16026777D02*
X8504079Y-16017253D01*
X8504079Y-16017253D02*
X8532651Y-16017253D01*
X8532651Y-16017253D02*
X8551698Y-16026777D01*
X8627889Y-16226777D02*
X8637413Y-16217253D01*
X8637413Y-16217253D02*
X8656460Y-16188682D01*
X8656460Y-16188682D02*
X8665984Y-16169634D01*
X8665984Y-16169634D02*
X8675508Y-16141063D01*
X8675508Y-16141063D02*
X8685032Y-16093444D01*
X8685032Y-16093444D02*
X8685032Y-16055349D01*
X8685032Y-16055349D02*
X8675508Y-16007729D01*
X8675508Y-16007729D02*
X8665984Y-15979158D01*
X8665984Y-15979158D02*
X8656460Y-15960110D01*
X8656460Y-15960110D02*
X8637413Y-15931539D01*
X8637413Y-15931539D02*
X8627889Y-15922015D01*
X8989794Y-16226777D02*
X8980270Y-16217253D01*
X8980270Y-16217253D02*
X8961222Y-16188682D01*
X8961222Y-16188682D02*
X8951698Y-16169634D01*
X8951698Y-16169634D02*
X8942175Y-16141063D01*
X8942175Y-16141063D02*
X8932651Y-16093444D01*
X8932651Y-16093444D02*
X8932651Y-16055349D01*
X8932651Y-16055349D02*
X8942175Y-16007729D01*
X8942175Y-16007729D02*
X8951698Y-15979158D01*
X8951698Y-15979158D02*
X8961222Y-15960110D01*
X8961222Y-15960110D02*
X8980270Y-15931539D01*
X8980270Y-15931539D02*
X8989794Y-15922015D01*
X9065984Y-16017253D02*
X9065984Y-16150587D01*
X9065984Y-16036301D02*
X9075508Y-16026777D01*
X9075508Y-16026777D02*
X9094556Y-16017253D01*
X9094556Y-16017253D02*
X9123127Y-16017253D01*
X9123127Y-16017253D02*
X9142175Y-16026777D01*
X9142175Y-16026777D02*
X9151698Y-16045825D01*
X9151698Y-16045825D02*
X9151698Y-16150587D01*
X9275508Y-16150587D02*
X9256460Y-16141063D01*
X9256460Y-16141063D02*
X9246937Y-16131539D01*
X9246937Y-16131539D02*
X9237413Y-16112491D01*
X9237413Y-16112491D02*
X9237413Y-16055349D01*
X9237413Y-16055349D02*
X9246937Y-16036301D01*
X9246937Y-16036301D02*
X9256460Y-16026777D01*
X9256460Y-16026777D02*
X9275508Y-16017253D01*
X9275508Y-16017253D02*
X9304079Y-16017253D01*
X9304079Y-16017253D02*
X9323127Y-16026777D01*
X9323127Y-16026777D02*
X9332651Y-16036301D01*
X9332651Y-16036301D02*
X9342175Y-16055349D01*
X9342175Y-16055349D02*
X9342175Y-16112491D01*
X9342175Y-16112491D02*
X9332651Y-16131539D01*
X9332651Y-16131539D02*
X9323127Y-16141063D01*
X9323127Y-16141063D02*
X9304079Y-16150587D01*
X9304079Y-16150587D02*
X9275508Y-16150587D01*
X9399318Y-16017253D02*
X9475508Y-16017253D01*
X9427889Y-15950587D02*
X9427889Y-16122015D01*
X9427889Y-16122015D02*
X9437413Y-16141063D01*
X9437413Y-16141063D02*
X9456460Y-16150587D01*
X9456460Y-16150587D02*
X9475508Y-16150587D01*
X9694556Y-16017253D02*
X9694556Y-16217253D01*
X9694556Y-16026777D02*
X9713603Y-16017253D01*
X9713603Y-16017253D02*
X9751699Y-16017253D01*
X9751699Y-16017253D02*
X9770746Y-16026777D01*
X9770746Y-16026777D02*
X9780270Y-16036301D01*
X9780270Y-16036301D02*
X9789794Y-16055349D01*
X9789794Y-16055349D02*
X9789794Y-16112491D01*
X9789794Y-16112491D02*
X9780270Y-16131539D01*
X9780270Y-16131539D02*
X9770746Y-16141063D01*
X9770746Y-16141063D02*
X9751699Y-16150587D01*
X9751699Y-16150587D02*
X9713603Y-16150587D01*
X9713603Y-16150587D02*
X9694556Y-16141063D01*
X9904079Y-16150587D02*
X9885032Y-16141063D01*
X9885032Y-16141063D02*
X9875508Y-16122015D01*
X9875508Y-16122015D02*
X9875508Y-15950587D01*
X10065984Y-16150587D02*
X10065984Y-16045825D01*
X10065984Y-16045825D02*
X10056460Y-16026777D01*
X10056460Y-16026777D02*
X10037413Y-16017253D01*
X10037413Y-16017253D02*
X9999318Y-16017253D01*
X9999318Y-16017253D02*
X9980270Y-16026777D01*
X10065984Y-16141063D02*
X10046937Y-16150587D01*
X10046937Y-16150587D02*
X9999318Y-16150587D01*
X9999318Y-16150587D02*
X9980270Y-16141063D01*
X9980270Y-16141063D02*
X9970746Y-16122015D01*
X9970746Y-16122015D02*
X9970746Y-16102968D01*
X9970746Y-16102968D02*
X9980270Y-16083920D01*
X9980270Y-16083920D02*
X9999318Y-16074396D01*
X9999318Y-16074396D02*
X10046937Y-16074396D01*
X10046937Y-16074396D02*
X10065984Y-16064872D01*
X10132651Y-16017253D02*
X10208841Y-16017253D01*
X10161222Y-15950587D02*
X10161222Y-16122015D01*
X10161222Y-16122015D02*
X10170746Y-16141063D01*
X10170746Y-16141063D02*
X10189794Y-16150587D01*
X10189794Y-16150587D02*
X10208841Y-16150587D01*
X10351699Y-16141063D02*
X10332651Y-16150587D01*
X10332651Y-16150587D02*
X10294556Y-16150587D01*
X10294556Y-16150587D02*
X10275508Y-16141063D01*
X10275508Y-16141063D02*
X10265984Y-16122015D01*
X10265984Y-16122015D02*
X10265984Y-16045825D01*
X10265984Y-16045825D02*
X10275508Y-16026777D01*
X10275508Y-16026777D02*
X10294556Y-16017253D01*
X10294556Y-16017253D02*
X10332651Y-16017253D01*
X10332651Y-16017253D02*
X10351699Y-16026777D01*
X10351699Y-16026777D02*
X10361222Y-16045825D01*
X10361222Y-16045825D02*
X10361222Y-16064872D01*
X10361222Y-16064872D02*
X10265984Y-16083920D01*
X10532651Y-16150587D02*
X10532651Y-15950587D01*
X10532651Y-16141063D02*
X10513603Y-16150587D01*
X10513603Y-16150587D02*
X10475508Y-16150587D01*
X10475508Y-16150587D02*
X10456460Y-16141063D01*
X10456460Y-16141063D02*
X10446937Y-16131539D01*
X10446937Y-16131539D02*
X10437413Y-16112491D01*
X10437413Y-16112491D02*
X10437413Y-16055349D01*
X10437413Y-16055349D02*
X10446937Y-16036301D01*
X10446937Y-16036301D02*
X10456460Y-16026777D01*
X10456460Y-16026777D02*
X10475508Y-16017253D01*
X10475508Y-16017253D02*
X10513603Y-16017253D01*
X10513603Y-16017253D02*
X10532651Y-16026777D01*
X10608841Y-16226777D02*
X10618365Y-16217253D01*
X10618365Y-16217253D02*
X10637413Y-16188682D01*
X10637413Y-16188682D02*
X10646937Y-16169634D01*
X10646937Y-16169634D02*
X10656460Y-16141063D01*
X10656460Y-16141063D02*
X10665984Y-16093444D01*
X10665984Y-16093444D02*
X10665984Y-16055349D01*
X10665984Y-16055349D02*
X10656460Y-16007729D01*
X10656460Y-16007729D02*
X10646937Y-15979158D01*
X10646937Y-15979158D02*
X10637413Y-15960110D01*
X10637413Y-15960110D02*
X10618365Y-15931539D01*
X10618365Y-15931539D02*
X10608841Y-15922015D01*
M02*
